  0
SECTION
  2
HEADER
  9
$ACADVER
  1
AC1009
  9
$INSBASE
 10
0.0
 20
0.0
 30
0.0
  9
$EXTMIN
 10
0.0
 20
0.0
 30
0.0
  9
$EXTMAX
 10
0.0
 20
0.0
 30
0.0
  0
ENDSEC
  0
SECTION
  2
TABLES
  0
TABLE
  2
VPORT
 70
0
  0
ENDTAB
  0
TABLE
  2
LTYPE
 70
1
  0
LTYPE
  2
CONTINUOUS
 70
0
  3
Solid line
 72
65
 73
0
 40
0.0
  0
ENDTAB
  0
TABLE
  2
LAYER
 70
1
  0
LAYER
  2
0
 70
64
 62
7
  6
continuous
  0
ENDTAB
  0
TABLE
  2
STYLE
 70
1
  0
STYLE
  2
STANDARD
 70
0
 40
0
 41
1.0
 50
0.0
 71
0
 42
1
 3
ARIAL.TTF
 4

  0
ENDTAB
  0
TABLE
  2
VIEW
 70
0
  0
ENDTAB
  0
ENDSEC
  0
SECTION
  2
BLOCKS
  0
BLOCK
  8
0
  2
SHAPE2DVIEW001
 70
0
 10
0.0
 20
0.0
 30
0.0
  3
SHAPE2DVIEW001
  0
LINE
  8
0
 62
0
 10
7913.51489258
 20
6500.00097656
 30
0.0
 11
7913.51489258
 21
6999.99169922
 31
0.0
  0
LINE
  8
0
 62
0
 10
7888.51489258
 20
6500.00097656
 30
0.0
 11
7913.51489258
 21
6500.00097656
 31
0.0
  0
LINE
  8
0
 62
0
 10
7888.51489258
 20
6500.00097656
 30
0.0
 11
7888.51489258
 21
6999.99169922
 31
0.0
  0
LINE
  8
0
 62
0
 10
7913.51489258
 20
6999.99169922
 30
0.0
 11
7888.51489258
 21
6999.99169922
 31
0.0
  0
LINE
  8
0
 62
0
 10
7056.0078125
 20
5920.14453126
 30
0.0
 11
7056.0078125
 21
5420.14501953
 31
0.0
  0
LINE
  8
0
 62
0
 10
8429.63264084
 20
5420.14501953
 30
0.0
 11
7056.0078125
 21
5420.14501953
 31
0.0
  0
LINE
  8
0
 62
0
 10
7913.51489258
 20
7099.99560547
 30
0.0
 11
7913.51489258
 21
7800.00634766
 31
0.0
  0
LINE
  8
0
 62
0
 10
7888.51489258
 20
7099.99560547
 30
0.0
 11
7913.51489258
 21
7099.99560547
 31
0.0
  0
LINE
  8
0
 62
0
 10
7888.51489258
 20
7099.99560547
 30
0.0
 11
7888.51489258
 21
7800.00634766
 31
0.0
  0
LINE
  8
0
 62
0
 10
7913.51489258
 20
7800.00634766
 30
0.0
 11
7888.51489258
 21
7800.00634766
 31
0.0
  0
LINE
  8
0
 62
0
 10
7907.68847656
 20
-5950.00244141
 30
0.0
 11
8659.38378906
 21
-5950.00244141
 31
0.0
  0
LINE
  8
0
 62
0
 10
7907.68847656
 20
-5900.00244141
 30
0.0
 11
7907.68847656
 21
-5950.00244141
 31
0.0
  0
LINE
  8
0
 62
0
 10
7907.68847656
 20
-5900.00244141
 30
0.0
 11
8659.38378906
 21
-5900.00244141
 31
0.0
  0
LINE
  8
0
 62
0
 10
8659.38378906
 20
-5950.00244141
 30
0.0
 11
8659.38378906
 21
-5900.00244141
 31
0.0
  0
LINE
  8
0
 62
0
 10
12455.9970703
 20
1870.15588379
 30
0.0
 11
12455.9970703
 21
4420.13867188
 31
0.0
  0
LINE
  8
0
 62
0
 10
12455.9970703
 20
4420.13867188
 30
0.0
 11
12755.9970703
 21
4420.13867188
 31
0.0
  0
LINE
  8
0
 62
0
 10
12755.9970703
 20
1870.15588379
 30
0.0
 11
12755.9970703
 21
4420.13867188
 31
0.0
  0
LINE
  8
0
 62
0
 10
12755.9970703
 20
1870.15588379
 30
0.0
 11
12455.9970703
 21
1870.15588379
 31
0.0
  0
LINE
  8
0
 62
0
 10
12755.9953613
 20
1270.15795899
 30
0.0
 11
12755.9995117
 21
1270.15795898
 31
0.0
  0
LINE
  8
0
 62
0
 10
12155.9995967
 20
390.028671957
 30
0.0
 11
12155.9997559
 21
1270.15795898
 31
0.0
  0
LINE
  8
0
 62
0
 10
12755.9995117
 20
1270.15795898
 30
0.0
 11
12755.9995117
 21
390.028671957
 31
0.0
  0
LINE
  8
0
 62
0
 10
7926.01196289
 20
7800.00195312
 30
0.0
 11
7926.01196289
 21
7850.00195312
 31
0.0
  0
LINE
  8
0
 62
0
 10
7926.01196289
 20
7099.99560547
 30
0.0
 11
7926.01196289
 21
7800.00195312
 31
0.0
  0
LINE
  8
0
 62
0
 10
7926.01196289
 20
7049.99560547
 30
0.0
 11
7926.01196289
 21
7099.99560547
 31
0.0
  0
LINE
  8
0
 62
0
 10
7926.01196289
 20
7049.99560547
 30
0.0
 11
7876.01196289
 21
7049.99560547
 31
0.0
  0
LINE
  8
0
 62
0
 10
7876.01196289
 20
7850.00195312
 30
0.0
 11
7926.01196289
 21
7850.00195312
 31
0.0
  0
LINE
  8
0
 62
0
 10
7926.01196289
 20
7800.00195312
 30
0.0
 11
7876.01196289
 21
7800.00195312
 31
0.0
  0
LINE
  8
0
 62
0
 10
7876.01196289
 20
7800.00195312
 30
0.0
 11
7876.01196289
 21
7850.00195312
 31
0.0
  0
LINE
  8
0
 62
0
 10
7876.01196289
 20
7800.00195312
 30
0.0
 11
7876.01196289
 21
7099.99560547
 31
0.0
  0
LINE
  8
0
 62
0
 10
7876.01196289
 20
7099.99560547
 30
0.0
 11
7926.01196289
 21
7099.99560547
 31
0.0
  0
LINE
  8
0
 62
0
 10
7876.01196289
 20
7049.99560547
 30
0.0
 11
7876.01196289
 21
7099.99560547
 31
0.0
  0
LINE
  8
0
 62
0
 10
11206.0130615
 20
4445.13330078
 30
0.0
 11
12106.0039062
 21
4445.13330078
 31
0.0
  0
LINE
  8
0
 62
0
 10
11206.0130615
 20
4495.13330078
 30
0.0
 11
11206.0130615
 21
4445.13330078
 31
0.0
  0
LINE
  8
0
 62
0
 10
11206.0130615
 20
4495.13330078
 30
0.0
 11
12106.0039062
 21
4495.13330078
 31
0.0
  0
LINE
  8
0
 62
0
 10
12106.0039062
 20
4445.13330078
 30
0.0
 11
12106.0039062
 21
4495.13330078
 31
0.0
  0
LINE
  8
0
 62
0
 10
10103.0976562
 20
617.396240234
 30
0.0
 11
9759.38737672
 21
617.396240234
 31
0.0
  0
LINE
  8
0
 62
0
 10
10103.0977325
 20
137.396240234
 30
0.0
 11
9759.38730192
 21
137.396156321
 31
0.0
  0
LINE
  8
0
 62
0
 10
10103.0976562
 20
617.396240234
 30
0.0
 11
10103.0977325
 21
137.396240234
 31
0.0
  0
LINE
  8
0
 62
0
 10
8006.01098633
 20
6350.00048828
 30
0.0
 11
8006.01098633
 21
6070.14550781
 31
0.0
  0
LINE
  8
0
 62
0
 10
7056.0078125
 20
6450.00097656
 30
0.0
 11
7056.0078125
 21
6070.14501953
 31
0.0
  0
LINE
  8
0
 62
0
 10
7556.00976562
 20
6070.14501953
 30
0.0
 11
7056.0078125
 21
6070.14501953
 31
0.0
  0
LINE
  8
0
 62
0
 10
7556.00976562
 20
6450.00097656
 30
0.0
 11
7556.00976562
 21
6070.14501953
 31
0.0
  0
LINE
  8
0
 62
0
 10
7056.0078125
 20
6450.00097656
 30
0.0
 11
7556.00976562
 21
6450.00097656
 31
0.0
  0
LINE
  8
0
 62
0
 10
7106.01123047
 20
2320.14282227
 30
0.0
 11
8006.01489258
 21
2320.14282227
 31
0.0
  0
LINE
  8
0
 62
0
 10
7106.01123047
 20
2370.14282227
 30
0.0
 11
7106.01123047
 21
2320.14282227
 31
0.0
  0
LINE
  8
0
 62
0
 10
7106.01123047
 20
2370.14282227
 30
0.0
 11
8006.01489258
 21
2370.14282227
 31
0.0
  0
LINE
  8
0
 62
0
 10
8006.01489258
 20
2320.14282227
 30
0.0
 11
8006.01489258
 21
2370.14282227
 31
0.0
  0
LINE
  8
0
 62
0
 10
10103.0977173
 20
2057.39624023
 30
0.0
 11
9759.38760112
 21
2057.39607241
 31
0.0
  0
LINE
  8
0
 62
0
 10
10103.0977936
 20
1577.39611816
 30
0.0
 11
9759.38752632
 21
1577.39611816
 31
0.0
  0
LINE
  8
0
 62
0
 10
10103.0977173
 20
2057.39624023
 30
0.0
 11
10103.0977936
 21
1577.39611816
 31
0.0
  0
LINE
  8
0
 62
0
 10
7106.00805664
 20
-5950.00244141
 30
0.0
 11
7857.69580078
 21
-5950.00244141
 31
0.0
  0
LINE
  8
0
 62
0
 10
7106.00805664
 20
-5900.00244141
 30
0.0
 11
7106.00805664
 21
-5950.00244141
 31
0.0
  0
LINE
  8
0
 62
0
 10
7106.00805664
 20
-5900.00244141
 30
0.0
 11
7857.69580078
 21
-5900.00244141
 31
0.0
  0
LINE
  8
0
 62
0
 10
7857.69580078
 20
-5950.00244141
 30
0.0
 11
7857.69580078
 21
-5900.00244141
 31
0.0
  0
LINE
  8
0
 62
0
 10
11556.0018311
 20
578.319335938
 30
0.0
 11
11556.001709
 21
98.319519043
 31
0.0
  0
LINE
  8
0
 62
0
 10
11556.0056152
 20
98.319519042
 30
0.0
 11
11556.001709
 21
98.319519043
 31
0.0
  0
LINE
  8
0
 62
0
 10
12056.001709
 20
578.319335938
 30
0.0
 11
12056.001709
 21
390.028671957
 31
0.0
  0
LINE
  8
0
 62
0
 10
11556.0018311
 20
578.319335938
 30
0.0
 11
12056.001709
 21
578.319335938
 31
0.0
  0
LINE
  8
0
 62
0
 10
10103.0976868
 20
1337.39611816
 30
0.0
 11
9759.38748892
 21
1337.39611816
 31
0.0
  0
LINE
  8
0
 62
0
 10
10103.0977631
 20
857.396179199
 30
0.0
 11
9759.38741412
 21
857.396179199
 31
0.0
  0
LINE
  8
0
 62
0
 10
10103.0976868
 20
1337.39611816
 30
0.0
 11
10103.0977631
 21
857.396179199
 31
0.0
  0
LINE
  8
0
 62
0
 10
12155.9997559
 20
1870.15795898
 30
0.0
 11
12156.0
 21
4420.13916016
 31
0.0
  0
LINE
  8
0
 62
0
 10
12756.0
 20
4420.13964844
 30
0.0
 11
12755.9995117
 21
1870.15649414
 31
0.0
  0
LINE
  8
0
 62
0
 10
12755.9995117
 20
1870.15649414
 30
0.0
 11
12755.9970703
 21
1870.15649414
 31
0.0
  0
LINE
  8
0
 62
0
 10
12755.9992676
 20
4420.13964844
 30
0.0
 11
12756.0
 21
4420.13964844
 31
0.0
  0
LINE
  8
0
 62
0
 10
7926.01196289
 20
6999.99169922
 30
0.0
 11
7926.01196289
 21
7049.99169922
 31
0.0
  0
LINE
  8
0
 62
0
 10
7926.01196289
 20
6500.00097656
 30
0.0
 11
7926.01196289
 21
6999.99169922
 31
0.0
  0
LINE
  8
0
 62
0
 10
7926.01196289
 20
6450.00097656
 30
0.0
 11
7926.01196289
 21
6500.00097656
 31
0.0
  0
LINE
  8
0
 62
0
 10
7926.01196289
 20
6450.00097656
 30
0.0
 11
7876.01196289
 21
6450.00097656
 31
0.0
  0
LINE
  8
0
 62
0
 10
7876.01196289
 20
7049.99169922
 30
0.0
 11
7926.01196289
 21
7049.99169922
 31
0.0
  0
LINE
  8
0
 62
0
 10
7926.01196289
 20
6999.99169922
 30
0.0
 11
7876.01196289
 21
6999.99169922
 31
0.0
  0
LINE
  8
0
 62
0
 10
7876.01196289
 20
6999.99169922
 30
0.0
 11
7876.01196289
 21
7049.99169922
 31
0.0
  0
LINE
  8
0
 62
0
 10
7876.01196289
 20
6999.99169922
 30
0.0
 11
7876.01196289
 21
6500.00097656
 31
0.0
  0
LINE
  8
0
 62
0
 10
7876.01196289
 20
6500.00097656
 30
0.0
 11
7926.01196289
 21
6500.00097656
 31
0.0
  0
LINE
  8
0
 62
0
 10
7876.01196289
 20
6450.00097656
 30
0.0
 11
7876.01196289
 21
6500.00097656
 31
0.0
  0
LINE
  8
0
 62
0
 10
7907.68847656
 20
-2181.41357422
 30
0.0
 11
8659.38378906
 21
-2181.41357422
 31
0.0
  0
LINE
  8
0
 62
0
 10
7907.68847656
 20
-2131.41357422
 30
0.0
 11
7907.68847656
 21
-2181.41357422
 31
0.0
  0
LINE
  8
0
 62
0
 10
7907.68847656
 20
-2131.41357422
 30
0.0
 11
8659.38378906
 21
-2131.41357422
 31
0.0
  0
LINE
  8
0
 62
0
 10
8659.38378906
 20
-2181.41357422
 30
0.0
 11
8659.38378906
 21
-2131.41357422
 31
0.0
  0
LINE
  8
0
 62
0
 10
7556.00976562
 20
6450.00097656
 30
0.0
 11
7556.00976562
 21
6070.14501953
 31
0.0
  0
LINE
  8
0
 62
0
 10
11556.0018311
 20
1198.27514648
 30
0.0
 11
11556.001709
 21
718.275390625
 31
0.0
  0
LINE
  8
0
 62
0
 10
12056.001709
 20
718.275268555
 30
0.0
 11
11556.001709
 21
718.275390625
 31
0.0
  0
LINE
  8
0
 62
0
 10
12056.001709
 20
1198.27514648
 30
0.0
 11
12056.001709
 21
718.275268555
 31
0.0
  0
LINE
  8
0
 62
0
 10
11556.0018311
 20
1198.27514648
 30
0.0
 11
12056.001709
 21
1198.27514648
 31
0.0
  0
LINE
  8
0
 62
0
 10
8006.01098633
 20
6350.00048828
 30
0.0
 11
8006.01098633
 21
6070.14550781
 31
0.0
  0
LINE
  8
0
 62
0
 10
7106.00805664
 20
-2181.41357422
 30
0.0
 11
7857.69580078
 21
-2181.41357422
 31
0.0
  0
LINE
  8
0
 62
0
 10
7106.00805664
 20
-2131.41357422
 30
0.0
 11
7106.00805664
 21
-2181.41357422
 31
0.0
  0
LINE
  8
0
 62
0
 10
7106.00805664
 20
-2131.41357422
 30
0.0
 11
7857.69580078
 21
-2131.41357422
 31
0.0
  0
LINE
  8
0
 62
0
 10
7857.69580078
 20
-2181.41357422
 30
0.0
 11
7857.69580078
 21
-2131.41357422
 31
0.0
  0
LINE
  8
0
 62
0
 10
8006.01098633
 20
6070.14550781
 30
0.0
 11
7656.01171875
 21
6070.14550781
 31
0.0
  0
LINE
  8
0
 62
0
 10
8006.01098633
 20
6350.00048828
 30
0.0
 11
8006.01098633
 21
6070.14550781
 31
0.0
  0
LINE
  8
0
 62
0
 10
12755.9953613
 20
1270.15795898
 30
0.0
 11
12155.9953613
 21
1270.15795898
 31
0.0
  0
LINE
  8
0
 62
0
 10
12155.9953613
 20
1870.15795898
 30
0.0
 11
12155.9953613
 21
1270.15795898
 31
0.0
  0
LINE
  8
0
 62
0
 10
12755.9953613
 20
1870.15795898
 30
0.0
 11
12155.9953613
 21
1870.15795898
 31
0.0
  0
LINE
  8
0
 62
0
 10
12755.9953613
 20
1270.15795898
 30
0.0
 11
12755.9953613
 21
1870.15795898
 31
0.0
  0
LINE
  8
0
 62
0
 10
7106.00805664
 20
-5975.00244141
 30
0.0
 11
7056.01098633
 21
-5975.00244141
 31
0.0
  0
LINE
  8
0
 62
0
 10
7857.69580078
 20
-5975.00244141
 30
0.0
 11
7106.00805664
 21
-5975.00244141
 31
0.0
  0
LINE
  8
0
 62
0
 10
7907.68847656
 20
-5975.00244141
 30
0.0
 11
7857.69580078
 21
-5975.00244141
 31
0.0
  0
LINE
  8
0
 62
0
 10
7907.68847656
 20
-5975.00244141
 30
0.0
 11
8659.38378906
 21
-5975.00244141
 31
0.0
  0
LINE
  8
0
 62
0
 10
8709.38085938
 20
-5975.00244141
 30
0.0
 11
8659.38378906
 21
-5975.00244141
 31
0.0
  0
LINE
  8
0
 62
0
 10
8709.38085938
 20
-5875.00244141
 30
0.0
 11
8709.38085938
 21
-5975.00244141
 31
0.0
  0
LINE
  8
0
 62
0
 10
7056.01098633
 20
-5975.00244141
 30
0.0
 11
7056.01098633
 21
-5875.00244141
 31
0.0
  0
LINE
  8
0
 62
0
 10
7056.01098633
 20
-5875.00244141
 30
0.0
 11
7106.00805664
 21
-5875.00244141
 31
0.0
  0
LINE
  8
0
 62
0
 10
7106.00805664
 20
-5975.00244141
 30
0.0
 11
7106.00805664
 21
-5875.00244141
 31
0.0
  0
LINE
  8
0
 62
0
 10
7106.00805664
 20
-5875.00244141
 30
0.0
 11
7106.00805664
 21
-5900.00244141
 31
0.0
  0
LINE
  8
0
 62
0
 10
7106.00805664
 20
-5950.00244141
 30
0.0
 11
7106.00805664
 21
-5975.00244141
 31
0.0
  0
LINE
  8
0
 62
0
 10
7106.00805664
 20
-5875.00244141
 30
0.0
 11
7857.69580078
 21
-5875.00244141
 31
0.0
  0
LINE
  8
0
 62
0
 10
7857.69580078
 20
-5975.00244141
 30
0.0
 11
7857.69580078
 21
-5875.00244141
 31
0.0
  0
LINE
  8
0
 62
0
 10
7857.69580078
 20
-5875.00244141
 30
0.0
 11
7907.68847656
 21
-5875.00244141
 31
0.0
  0
LINE
  8
0
 62
0
 10
7907.68847656
 20
-5975.00244141
 30
0.0
 11
7907.68847656
 21
-5875.00244141
 31
0.0
  0
LINE
  8
0
 62
0
 10
7907.68847656
 20
-5975.00244141
 30
0.0
 11
7907.68847656
 21
-5950.00244141
 31
0.0
  0
LINE
  8
0
 62
0
 10
7907.68847656
 20
-5900.00244141
 30
0.0
 11
7907.68847656
 21
-5875.00244141
 31
0.0
  0
LINE
  8
0
 62
0
 10
8659.38378906
 20
-5875.00244141
 30
0.0
 11
7907.68847656
 21
-5875.00244141
 31
0.0
  0
LINE
  8
0
 62
0
 10
8659.38378906
 20
-5975.00244141
 30
0.0
 11
8659.38378906
 21
-5875.00244141
 31
0.0
  0
LINE
  8
0
 62
0
 10
8659.38378906
 20
-5875.00244141
 30
0.0
 11
8709.38085938
 21
-5875.00244141
 31
0.0
  0
LINE
  8
0
 62
0
 10
7907.68847656
 20
-5975.00244141
 30
0.0
 11
7907.68847656
 21
-5950.00244141
 31
0.0
  0
LINE
  8
0
 62
0
 10
7907.68847656
 20
-5900.00244141
 30
0.0
 11
7907.68847656
 21
-5875.00244141
 31
0.0
  0
LINE
  8
0
 62
0
 10
7106.00805664
 20
-2206.41333008
 30
0.0
 11
7056.01098633
 21
-2206.41333008
 31
0.0
  0
LINE
  8
0
 62
0
 10
7857.69580078
 20
-2206.41333008
 30
0.0
 11
7106.00805664
 21
-2206.41333008
 31
0.0
  0
LINE
  8
0
 62
0
 10
7907.68847656
 20
-2206.41333008
 30
0.0
 11
7857.69580078
 21
-2206.41333008
 31
0.0
  0
LINE
  8
0
 62
0
 10
7907.68847656
 20
-2206.41333008
 30
0.0
 11
8659.38378906
 21
-2206.41333008
 31
0.0
  0
LINE
  8
0
 62
0
 10
8709.38085938
 20
-2206.41333008
 30
0.0
 11
8659.38378906
 21
-2206.41333008
 31
0.0
  0
LINE
  8
0
 62
0
 10
8709.38085938
 20
-2106.41333008
 30
0.0
 11
8709.38085938
 21
-2206.41333008
 31
0.0
  0
LINE
  8
0
 62
0
 10
7056.01098633
 20
-2206.41333008
 30
0.0
 11
7056.01098633
 21
-2106.41333008
 31
0.0
  0
LINE
  8
0
 62
0
 10
7056.01098633
 20
-2106.41333008
 30
0.0
 11
7106.00805664
 21
-2106.41333008
 31
0.0
  0
LINE
  8
0
 62
0
 10
7106.00805664
 20
-2206.41333008
 30
0.0
 11
7106.00805664
 21
-2106.41333008
 31
0.0
  0
LINE
  8
0
 62
0
 10
7106.00805664
 20
-2106.41333008
 30
0.0
 11
7106.00805664
 21
-2131.41357422
 31
0.0
  0
LINE
  8
0
 62
0
 10
7106.00805664
 20
-2181.41357422
 30
0.0
 11
7106.00805664
 21
-2206.41333008
 31
0.0
  0
LINE
  8
0
 62
0
 10
7106.00805664
 20
-2106.41333008
 30
0.0
 11
7857.69580078
 21
-2106.41333008
 31
0.0
  0
LINE
  8
0
 62
0
 10
7857.69580078
 20
-2206.41333008
 30
0.0
 11
7857.69580078
 21
-2106.41333008
 31
0.0
  0
LINE
  8
0
 62
0
 10
7857.69580078
 20
-2106.41333008
 30
0.0
 11
7907.68847656
 21
-2106.41333008
 31
0.0
  0
LINE
  8
0
 62
0
 10
7907.68847656
 20
-2206.41333008
 30
0.0
 11
7907.68847656
 21
-2106.41333008
 31
0.0
  0
LINE
  8
0
 62
0
 10
7907.68847656
 20
-2206.41333008
 30
0.0
 11
7907.68847656
 21
-2181.41357422
 31
0.0
  0
LINE
  8
0
 62
0
 10
7907.68847656
 20
-2131.41357422
 30
0.0
 11
7907.68847656
 21
-2106.41333008
 31
0.0
  0
LINE
  8
0
 62
0
 10
8659.38378906
 20
-2106.41333008
 30
0.0
 11
7907.68847656
 21
-2106.41333008
 31
0.0
  0
LINE
  8
0
 62
0
 10
8659.38378906
 20
-2206.41333008
 30
0.0
 11
8659.38378906
 21
-2106.41333008
 31
0.0
  0
LINE
  8
0
 62
0
 10
8659.38378906
 20
-2106.41333008
 30
0.0
 11
8709.38085938
 21
-2106.41333008
 31
0.0
  0
LINE
  8
0
 62
0
 10
7907.68847656
 20
-2206.41333008
 30
0.0
 11
7907.68847656
 21
-2181.41357422
 31
0.0
  0
LINE
  8
0
 62
0
 10
7907.68847656
 20
-2131.41357422
 30
0.0
 11
7907.68847656
 21
-2106.41333008
 31
0.0
  0
LINE
  8
0
 62
0
 10
11206.0131836
 20
4420.13916016
 30
0.0
 11
11156.0206299
 21
4420.13916016
 31
0.0
  0
LINE
  8
0
 62
0
 10
11206.0131836
 20
4420.13916016
 30
0.0
 11
12106.0029297
 21
4420.13916016
 31
0.0
  0
LINE
  8
0
 62
0
 10
12156.0
 20
4420.13916016
 30
0.0
 11
12106.0029297
 21
4420.13916016
 31
0.0
  0
LINE
  8
0
 62
0
 10
12156.0
 20
4520.13916016
 30
0.0
 11
12156.0
 21
4420.13916016
 31
0.0
  0
LINE
  8
0
 62
0
 10
11156.0206299
 20
4420.13916016
 30
0.0
 11
11156.0206299
 21
4520.13916016
 31
0.0
  0
LINE
  8
0
 62
0
 10
11156.0206299
 20
4520.13916016
 30
0.0
 11
11206.0131836
 21
4520.13916016
 31
0.0
  0
LINE
  8
0
 62
0
 10
11206.0131836
 20
4420.13916016
 30
0.0
 11
11206.0131836
 21
4520.13916016
 31
0.0
  0
LINE
  8
0
 62
0
 10
11206.0131836
 20
4420.13916016
 30
0.0
 11
11206.0131836
 21
4445.13330078
 31
0.0
  0
LINE
  8
0
 62
0
 10
11206.0131836
 20
4495.13330078
 30
0.0
 11
11206.0131836
 21
4520.13916016
 31
0.0
  0
LINE
  8
0
 62
0
 10
11206.0131836
 20
4520.13916016
 30
0.0
 11
12106.0029297
 21
4520.13916016
 31
0.0
  0
LINE
  8
0
 62
0
 10
12106.0029297
 20
4420.13916016
 30
0.0
 11
12106.0029297
 21
4520.13916016
 31
0.0
  0
LINE
  8
0
 62
0
 10
12106.0029297
 20
4520.13916016
 30
0.0
 11
12156.0
 21
4520.13916016
 31
0.0
  0
LINE
  8
0
 62
0
 10
11206.0131836
 20
4520.13916016
 30
0.0
 11
11206.0131836
 21
4495.13330078
 31
0.0
  0
LINE
  8
0
 62
0
 10
11206.0131836
 20
4445.13330078
 30
0.0
 11
11206.0131836
 21
4420.13916016
 31
0.0
  0
LINE
  8
0
 62
0
 10
10256.0062256
 20
4420.13916016
 30
0.0
 11
10206.0091553
 21
4420.13916016
 31
0.0
  0
LINE
  8
0
 62
0
 10
10206.0091553
 20
4420.13916016
 30
0.0
 11
10206.0091553
 21
4520.13916016
 31
0.0
  0
LINE
  8
0
 62
0
 10
10206.0091553
 20
4520.13916016
 30
0.0
 11
10256.0062256
 21
4520.13916016
 31
0.0
  0
LINE
  8
0
 62
0
 10
10256.0062256
 20
4420.13916016
 30
0.0
 11
10256.0062256
 21
4520.13916016
 31
0.0
  0
LINE
  8
0
 62
0
 10
8006.01062012
 20
2295.14306641
 30
0.0
 11
8056.01062012
 21
2295.14306641
 31
0.0
  0
LINE
  8
0
 62
0
 10
7106.01123047
 20
2295.14306641
 30
0.0
 11
8006.01062012
 21
2295.14306641
 31
0.0
  0
LINE
  8
0
 62
0
 10
7056.01123047
 20
2295.14306641
 30
0.0
 11
7106.01123047
 21
2295.14306641
 31
0.0
  0
LINE
  8
0
 62
0
 10
7056.01123047
 20
2295.14306641
 30
0.0
 11
7056.01123047
 21
2395.14306641
 31
0.0
  0
LINE
  8
0
 62
0
 10
8056.01062012
 20
2395.14306641
 30
0.0
 11
8056.01062012
 21
2295.14306641
 31
0.0
  0
LINE
  8
0
 62
0
 10
8006.01062012
 20
2295.14306641
 30
0.0
 11
8006.01062012
 21
2395.14306641
 31
0.0
  0
LINE
  8
0
 62
0
 10
8006.01062012
 20
2395.14306641
 30
0.0
 11
8056.01062012
 21
2395.14306641
 31
0.0
  0
LINE
  8
0
 62
0
 10
8006.01062012
 20
2395.14306641
 30
0.0
 11
7106.01123047
 21
2395.14306641
 31
0.0
  0
LINE
  8
0
 62
0
 10
7106.01123047
 20
2395.14306641
 30
0.0
 11
7106.01123047
 21
2370.14282227
 31
0.0
  0
LINE
  8
0
 62
0
 10
7106.01123047
 20
2320.14282227
 30
0.0
 11
7106.01123047
 21
2295.14306641
 31
0.0
  0
LINE
  8
0
 62
0
 10
7106.01123047
 20
2395.14306641
 30
0.0
 11
7106.01123047
 21
2295.14306641
 31
0.0
  0
LINE
  8
0
 62
0
 10
7056.01123047
 20
2395.14306641
 30
0.0
 11
7106.01123047
 21
2395.14306641
 31
0.0
  0
LINE
  8
0
 62
0
 10
7556.00976562
 20
6450.00097656
 30
0.0
 11
7556.00976562
 21
6070.14501953
 31
0.0
  0
LINE
  8
0
 62
0
 10
11556.0056152
 20
-79.8606643679
 30
0.0
 11
11556.0003662
 21
-79.8606643677
 31
0.0
  0
LINE
  8
0
 62
0
 10
11556.0003662
 20
-79.8606643677
 30
0.0
 11
11556.0003662
 21
-229.860641479
 31
0.0
  0
LINE
  8
0
 62
0
 10
11556.0003662
 20
-229.860641479
 30
0.0
 11
11556.0056152
 21
-229.859985352
 31
0.0
  0
LINE
  8
0
 62
0
 10
11556.0003662
 20
-229.860641479
 30
0.0
 11
11556.0056152
 21
-229.86064148
 31
0.0
  0
LINE
  8
0
 62
0
 10
8709.3828125
 20
-2231.4128418
 30
0.0
 11
10206.0010986
 21
-2231.4128418
 31
0.0
  0
LINE
  8
0
 62
0
 10
8709.3828125
 20
-2081.4128418
 30
0.0
 11
8709.3828125
 21
-2231.4128418
 31
0.0
  0
LINE
  8
0
 62
0
 10
8709.3828125
 20
-2081.4128418
 30
0.0
 11
10206.0010986
 21
-2081.4128418
 31
0.0
  0
LINE
  8
0
 62
0
 10
10206.0010986
 20
-2231.4128418
 30
0.0
 11
10206.0010986
 21
-2081.4128418
 31
0.0
  0
LINE
  8
0
 62
0
 10
8709.3828125
 20
2270.14282227
 30
0.0
 11
8709.3828125
 21
2420.14282227
 31
0.0
  0
LINE
  8
0
 62
0
 10
8056.01062012
 20
2270.14291875
 30
0.0
 11
8709.3828125
 21
2270.14282227
 31
0.0
  0
LINE
  8
0
 62
0
 10
8056.01062012
 20
2420.14282227
 30
0.0
 11
8056.01062012
 21
2270.14291875
 31
0.0
  0
LINE
  8
0
 62
0
 10
8709.3828125
 20
2420.14282227
 30
0.0
 11
8056.01062012
 21
2420.14282227
 31
0.0
  0
LINE
  8
0
 62
0
 10
8056.01062012
 20
2270.14291875
 30
0.0
 11
7056.01220703
 21
2270.14306641
 31
0.0
  0
LINE
  8
0
 62
0
 10
7056.01220703
 20
2420.14282227
 30
0.0
 11
8056.01062012
 21
2420.14282227
 31
0.0
  0
LINE
  8
0
 62
0
 10
7056.01220703
 20
2270.14306641
 30
0.0
 11
7056.01220703
 21
2295.14306641
 31
0.0
  0
LINE
  8
0
 62
0
 10
7056.01220703
 20
2395.14306641
 30
0.0
 11
7056.01220703
 21
2420.14282227
 31
0.0
  0
LINE
  8
0
 62
0
 10
9029.62927246
 20
6070.14453125
 30
0.0
 11
8579.62768555
 21
6070.14453125
 31
0.0
  0
LINE
  8
0
 62
0
 10
9029.62927246
 20
6070.14453125
 30
0.0
 11
9029.62927246
 21
5970.14453125
 31
0.0
  0
LINE
  8
0
 62
0
 10
8579.62768555
 20
6070.14453125
 30
0.0
 11
8579.62768555
 21
5970.14453125
 31
0.0
  0
LINE
  8
0
 62
0
 10
9029.62927246
 20
5970.14453125
 30
0.0
 11
8579.62768555
 21
5970.14453125
 31
0.0
  0
LINE
  8
0
 62
0
 10
8006.01330566
 20
6450.00048828
 30
0.0
 11
7556.01171875
 21
6450.00097656
 31
0.0
  0
LINE
  8
0
 62
0
 10
8006.01330566
 20
6450.00048828
 30
0.0
 11
8006.01330566
 21
6350.00048828
 31
0.0
  0
LINE
  8
0
 62
0
 10
7556.01171875
 20
6070.14453125
 30
0.0
 11
7556.01171875
 21
6450.00097656
 31
0.0
  0
LINE
  8
0
 62
0
 10
7656.01171875
 20
6350.00097656
 30
0.0
 11
8006.01330566
 21
6350.00048828
 31
0.0
  0
LINE
  8
0
 62
0
 10
7656.01171875
 20
6350.00097656
 30
0.0
 11
7656.01171875
 21
6070.14453125
 31
0.0
  0
LINE
  8
0
 62
0
 10
7656.01171875
 20
6070.14453125
 30
0.0
 11
7556.01171875
 21
6070.14453125
 31
0.0
  0
LINE
  8
0
 62
0
 10
12755.9992676
 20
4570.13916016
 30
0.0
 11
12156.0
 21
4570.13916016
 31
0.0
  0
LINE
  8
0
 62
0
 10
12755.9992676
 20
4570.13916016
 30
0.0
 11
12755.9992676
 21
4420.13916016
 31
0.0
  0
LINE
  8
0
 62
0
 10
12156.0
 20
4420.13916016
 30
0.0
 11
12156.0
 21
4570.13916016
 31
0.0
  0
LINE
  8
0
 62
0
 10
12755.9992676
 20
4420.13916016
 30
0.0
 11
12156.0
 21
4420.13916016
 31
0.0
  0
LINE
  8
0
 62
0
 10
8709.3828125
 20
-79.8606872559
 30
0.0
 11
8709.3828125
 21
2270.13745117
 31
0.0
  0
LINE
  8
0
 62
0
 10
8859.3828125
 20
-79.8606872559
 30
0.0
 11
8859.3828125
 21
2270.13745117
 31
0.0
  0
LINE
  8
0
 62
0
 10
6906.0078125
 20
-2081.41407994
 30
0.0
 11
6906.00756836
 21
-6000.00097656
 31
0.0
  0
LINE
  8
0
 62
0
 10
7056.0078125
 20
-2081.41407994
 30
0.0
 11
6906.0078125
 21
-2081.41407994
 31
0.0
  0
LINE
  8
0
 62
0
 10
7056.00756836
 20
-6000.00097656
 30
0.0
 11
7056.0078125
 21
-2081.41407994
 31
0.0
  0
LINE
  8
0
 62
0
 10
6906.00756836
 20
-6000.00097656
 30
0.0
 11
7056.00756836
 21
-6000.00097656
 31
0.0
  0
LINE
  8
0
 62
0
 10
12906.0078125
 20
-6000.0
 30
0.0
 11
12906.0078125
 21
-2081.41137695
 31
0.0
  0
LINE
  8
0
 62
0
 10
12906.0078125
 20
-6000.0
 30
0.0
 11
12756.0078125
 21
-6000.0
 31
0.0
  0
LINE
  8
0
 62
0
 10
12906.0078125
 20
-2081.41137695
 30
0.0
 11
12756.0078125
 21
-2081.41137695
 31
0.0
  0
LINE
  8
0
 62
0
 10
12756.0078125
 20
-6000.0
 30
0.0
 11
12756.0078125
 21
-2081.41137695
 31
0.0
  0
LINE
  8
0
 62
0
 10
12906.0078125
 20
2420.1394043
 30
0.0
 11
12906.0078125
 21
4570.13867188
 31
0.0
  0
LINE
  8
0
 62
0
 10
12906.0078125
 20
2420.1394043
 30
0.0
 11
12756.0078125
 21
2420.1394043
 31
0.0
  0
LINE
  8
0
 62
0
 10
12906.0078125
 20
4570.13867188
 30
0.0
 11
12756.0078125
 21
4570.13867188
 31
0.0
  0
LINE
  8
0
 62
0
 10
12756.0078125
 20
2420.1394043
 30
0.0
 11
12756.0078125
 21
4570.13867188
 31
0.0
  0
LINE
  8
0
 62
0
 10
6906.00732422
 20
2420.13867188
 30
0.0
 11
6906.00732422
 21
-2081.41210938
 31
0.0
  0
LINE
  8
0
 62
0
 10
6906.00732422
 20
2420.13867188
 30
0.0
 11
7056.00756836
 21
2420.13867188
 31
0.0
  0
LINE
  8
0
 62
0
 10
6906.00732422
 20
-2081.41210938
 30
0.0
 11
7056.00756836
 21
-2081.41210938
 31
0.0
  0
LINE
  8
0
 62
0
 10
7056.00756836
 20
2420.13867188
 30
0.0
 11
7056.00756836
 21
-2081.41210938
 31
0.0
  0
LINE
  8
0
 62
0
 10
10056.0091553
 20
7849.99609375
 30
0.0
 11
10206.0091553
 21
7849.99609375
 31
0.0
  0
LINE
  8
0
 62
0
 10
10056.0091553
 20
6400.04882812
 30
0.0
 11
10056.0091553
 21
3520.14453125
 31
0.0
  0
LINE
  8
0
 62
0
 10
10056.0091553
 20
7100.04443359
 30
0.0
 11
10056.0091553
 21
6400.04882812
 31
0.0
  0
LINE
  8
0
 62
0
 10
10056.0091553
 20
7849.99609375
 30
0.0
 11
10056.0091553
 21
7100.04443359
 31
0.0
  0
LINE
  8
0
 62
0
 10
10206.0091553
 20
6400.04882812
 30
0.0
 11
10206.0091553
 21
3520.14453125
 31
0.0
  0
LINE
  8
0
 62
0
 10
10206.0091553
 20
6400.04931641
 30
0.0
 11
10206.0091553
 21
6400.04882812
 31
0.0
  0
LINE
  8
0
 62
0
 10
10206.0091553
 20
7849.99609375
 30
0.0
 11
10206.0091553
 21
7100.04443359
 31
0.0
  0
LINE
  8
0
 62
0
 10
10056.0091553
 20
7100.04443359
 30
0.0
 11
10206.0091553
 21
7100.04443359
 31
0.0
  0
LINE
  8
0
 62
0
 10
10206.0091553
 20
3520.14453125
 30
0.0
 11
10056.0091553
 21
3520.14453125
 31
0.0
  0
LINE
  8
0
 62
0
 10
10056.0091553
 20
6400.04882812
 30
0.0
 11
10206.0091553
 21
6400.04882812
 31
0.0
  0
LINE
  8
0
 62
0
 10
10056.0091553
 20
2520.13969482
 30
0.0
 11
10056.0091553
 21
2420.14306641
 31
0.0
  0
LINE
  8
0
 62
0
 10
10056.0091553
 20
2520.14447021
 30
0.0
 11
10056.0091553
 21
2520.13969482
 31
0.0
  0
LINE
  8
0
 62
0
 10
10056.0091553
 20
2520.13969482
 30
0.0
 11
10206.0091553
 21
2520.13969482
 31
0.0
  0
LINE
  8
0
 62
0
 10
10206.0091553
 20
2520.13969482
 30
0.0
 11
10206.0091553
 21
2420.14306641
 31
0.0
  0
LINE
  8
0
 62
0
 10
10206.0091553
 20
2420.14306641
 30
0.0
 11
10056.0091553
 21
2420.14306641
 31
0.0
  0
LINE
  8
0
 62
0
 10
10206.0091553
 20
2520.13969482
 30
0.0
 11
10056.0091553
 21
2520.13969482
 31
0.0
  0
LINE
  8
0
 62
0
 10
10206.0091553
 20
2520.14477539
 30
0.0
 11
10206.0088501
 21
2520.14477539
 31
0.0
  0
LINE
  8
0
 62
0
 10
10206.0091553
 20
2520.14477539
 30
0.0
 11
10206.0091553
 21
2520.13969482
 31
0.0
  0
LINE
  8
0
 62
0
 10
8709.38671875
 20
-6000.00048828
 30
0.0
 11
8709.38671875
 21
-5850.00048828
 31
0.0
  0
LINE
  8
0
 62
0
 10
10455.9996948
 20
-5850.00048828
 30
0.0
 11
8709.38671875
 21
-5850.00048828
 31
0.0
  0
LINE
  8
0
 62
0
 10
10455.9996948
 20
-6000.00048828
 30
0.0
 11
10455.9996948
 21
-5850.00048828
 31
0.0
  0
LINE
  8
0
 62
0
 10
10455.9996948
 20
-6000.00048828
 30
0.0
 11
8709.38671875
 21
-6000.00048828
 31
0.0
  0
LINE
  8
0
 62
0
 10
12756.0078125
 20
-5850.00048828
 30
0.0
 11
12756.0078125
 21
-6000.00048828
 31
0.0
  0
LINE
  8
0
 62
0
 10
12756.0078125
 20
-5850.00048828
 30
0.0
 11
11456.0024414
 21
-5850.00048828
 31
0.0
  0
LINE
  8
0
 62
0
 10
12756.0078125
 20
-6000.00048828
 30
0.0
 11
11456.0024414
 21
-6000.00048828
 31
0.0
  0
LINE
  8
0
 62
0
 10
11456.0024414
 20
-5850.00048828
 30
0.0
 11
11456.0024414
 21
-6000.00048828
 31
0.0
  0
LINE
  8
0
 62
0
 10
12756.001709
 20
-3931.40795898
 30
0.0
 11
12756.001709
 21
-4081.40795898
 31
0.0
  0
LINE
  8
0
 62
0
 10
12656.0
 20
-4081.40795898
 30
0.0
 11
12756.001709
 21
-4081.40795898
 31
0.0
  0
LINE
  8
0
 62
0
 10
12656.0
 20
-4081.40795898
 30
0.0
 11
12656.0
 21
-3931.40795898
 31
0.0
  0
LINE
  8
0
 62
0
 10
12656.0
 20
-3931.40795898
 30
0.0
 11
12756.001709
 21
-3931.40795898
 31
0.0
  0
LINE
  8
0
 62
0
 10
11706.0030518
 20
-4081.40795898
 30
0.0
 11
11755.9996338
 21
-4081.40795898
 31
0.0
  0
LINE
  8
0
 62
0
 10
11755.9996338
 20
-4081.40795898
 30
0.0
 11
11755.9996338
 21
-3931.40795898
 31
0.0
  0
LINE
  8
0
 62
0
 10
11556.0030518
 20
-3931.40795898
 30
0.0
 11
11755.9996338
 21
-3931.40795898
 31
0.0
  0
LINE
  8
0
 62
0
 10
11706.0030518
 20
-5850.00244141
 30
0.0
 11
11706.0030518
 21
-4081.40795898
 31
0.0
  0
LINE
  8
0
 62
0
 10
11556.0030518
 20
-5850.00244141
 30
0.0
 11
11706.0030518
 21
-5850.00244141
 31
0.0
  0
LINE
  8
0
 62
0
 10
11556.0030518
 20
-5850.00244141
 30
0.0
 11
11556.0030518
 21
-3931.40795898
 31
0.0
  0
LINE
  8
0
 62
0
 10
8429.63264084
 20
5420.14453126
 30
0.0
 11
9056.00607248
 21
5420.14453126
 31
0.0
  0
LINE
  8
0
 62
0
 10
8429.63264084
 20
5420.14453126
 30
0.0
 11
8429.63264084
 21
5920.14453126
 31
0.0
  0
LINE
  8
0
 62
0
 10
9056.00607248
 20
5570.14453126
 30
0.0
 11
9056.00607248
 21
5420.14453126
 31
0.0
  0
LINE
  8
0
 62
0
 10
8429.63264084
 20
5920.14453126
 30
0.0
 11
7056.00593186
 21
5920.14453126
 31
0.0
  0
LINE
  8
0
 62
0
 10
7056.00593186
 20
5920.14453126
 30
0.0
 11
7056.00593186
 21
6070.14453126
 31
0.0
  0
LINE
  8
0
 62
0
 10
7056.00593186
 20
6070.14453126
 30
0.0
 11
8579.63251877
 21
6070.14453126
 31
0.0
  0
LINE
  8
0
 62
0
 10
8579.63251877
 20
6070.14453126
 30
0.0
 11
8579.63251877
 21
5570.14453126
 31
0.0
  0
LINE
  8
0
 62
0
 10
8579.63251877
 20
5570.14453126
 30
0.0
 11
9056.00607248
 21
5570.14453126
 31
0.0
  0
LINE
  8
0
 62
0
 10
9956.00670243
 20
5420.14453126
 30
0.0
 11
10056.0082817
 21
5420.14453126
 31
0.0
  0
LINE
  8
0
 62
0
 10
9956.00670243
 20
5570.14453126
 30
0.0
 11
9956.00670243
 21
5420.14453126
 31
0.0
  0
LINE
  8
0
 62
0
 10
9956.00670243
 20
5570.14453126
 30
0.0
 11
10056.0082817
 21
5570.14453126
 31
0.0
  0
LINE
  8
0
 62
0
 10
10056.0082817
 20
5570.14453126
 30
0.0
 11
10056.0082817
 21
5420.14453126
 31
0.0
  0
LINE
  8
0
 62
0
 10
10081.0102081
 20
-1180.62973029
 30
0.0
 11
10181.0108719
 21
-1180.62976081
 31
0.0
  0
LINE
  8
0
 62
0
 10
10181.0108872
 20
-1130.6372071
 30
0.0
 11
10081.0102233
 21
-1130.63717658
 31
0.0
  0
LINE
  8
0
 62
0
 10
10081.0102081
 20
-1180.62973029
 30
0.0
 11
10081.0102233
 21
-1130.63717658
 31
0.0
  0
LINE
  8
0
 62
0
 10
10181.0108719
 20
-1180.62976081
 30
0.0
 11
10181.0108872
 21
-1130.6372071
 31
0.0
  0
LINE
  8
0
 62
0
 10
10081.0103607
 20
-279.851501401
 30
0.0
 11
10181.0110245
 21
-279.851531924
 31
0.0
  0
LINE
  8
0
 62
0
 10
10181.0110398
 20
-229.858978213
 30
0.0
 11
10081.0103759
 21
-229.85894769
 31
0.0
  0
LINE
  8
0
 62
0
 10
10081.0103607
 20
-279.851501401
 30
0.0
 11
10081.0103759
 21
-229.85894769
 31
0.0
  0
LINE
  8
0
 62
0
 10
10181.0110245
 20
-279.851531924
 30
0.0
 11
10181.0110398
 21
-229.858978213
 31
0.0
  0
LINE
  8
0
 62
0
 10
10081.0100555
 20
-2081.41195685
 30
0.0
 11
10181.0107193
 21
-2081.41198738
 31
0.0
  0
LINE
  8
0
 62
0
 10
10181.0107346
 20
-2031.41943366
 30
0.0
 11
10081.0100707
 21
-2031.41940314
 31
0.0
  0
LINE
  8
0
 62
0
 10
10081.0100555
 20
-2081.41195685
 30
0.0
 11
10081.0100707
 21
-2031.41940314
 31
0.0
  0
LINE
  8
0
 62
0
 10
10181.0107193
 20
-2081.41198738
 30
0.0
 11
10181.0107346
 21
-2031.41943366
 31
0.0
  0
LINE
  8
0
 62
0
 10
8734.38452148
 20
1707.640625
 30
0.0
 11
8734.38452148
 21
1657.64355469
 31
0.0
  0
LINE
  8
0
 62
0
 10
8734.38452148
 20
1707.640625
 30
0.0
 11
8734.38452148
 21
2220.14746094
 31
0.0
  0
LINE
  8
0
 62
0
 10
8734.38452148
 20
2270.14453125
 30
0.0
 11
8734.38452148
 21
2220.14746094
 31
0.0
  0
LINE
  8
0
 62
0
 10
8734.38452148
 20
2270.14453125
 30
0.0
 11
8834.38452148
 21
2270.14453125
 31
0.0
  0
LINE
  8
0
 62
0
 10
8734.38439941
 20
1120.13769531
 30
0.0
 11
8734.38452148
 21
1657.64355469
 31
0.0
  0
LINE
  8
0
 62
0
 10
8834.38452148
 20
1657.64355469
 30
0.0
 11
8734.38452148
 21
1657.64355469
 31
0.0
  0
LINE
  8
0
 62
0
 10
8734.38452148
 20
1707.640625
 30
0.0
 11
8834.38452148
 21
1707.640625
 31
0.0
  0
LINE
  8
0
 62
0
 10
8834.38452148
 20
1657.64355469
 30
0.0
 11
8834.38452148
 21
1707.640625
 31
0.0
  0
LINE
  8
0
 62
0
 10
8834.38452148
 20
2220.14746094
 30
0.0
 11
8834.38452148
 21
1707.640625
 31
0.0
  0
LINE
  8
0
 62
0
 10
8834.38452148
 20
2220.14746094
 30
0.0
 11
8734.38452148
 21
2220.14746094
 31
0.0
  0
LINE
  8
0
 62
0
 10
8834.38452148
 20
2220.14746094
 30
0.0
 11
8834.38452148
 21
2270.14453125
 31
0.0
  0
LINE
  8
0
 62
0
 10
8834.38452148
 20
1657.64355469
 30
0.0
 11
8834.38439941
 21
1120.13769531
 31
0.0
  0
LINE
  8
0
 62
0
 10
8834.38439941
 20
1070.1451416
 30
0.0
 11
8834.38439941
 21
1120.13769531
 31
0.0
  0
LINE
  8
0
 62
0
 10
8834.38439941
 20
1070.1451416
 30
0.0
 11
8834.38427734
 21
532.637390137
 31
0.0
  0
LINE
  8
0
 62
0
 10
8834.38427734
 20
482.640258789
 30
0.0
 11
8834.38427734
 21
532.637390137
 31
0.0
  0
LINE
  8
0
 62
0
 10
8834.38427734
 20
482.640258789
 30
0.0
 11
8834.38427734
 21
-29.8664550781
 31
0.0
  0
LINE
  8
0
 62
0
 10
8834.38427734
 20
-79.8635253906
 30
0.0
 11
8834.38427734
 21
-29.8664550781
 31
0.0
  0
LINE
  8
0
 62
0
 10
8834.38427734
 20
-79.8635253906
 30
0.0
 11
8734.38427734
 21
-79.8635253906
 31
0.0
  0
LINE
  8
0
 62
0
 10
8734.38427734
 20
-29.8664550781
 30
0.0
 11
8734.38427734
 21
-79.8635253906
 31
0.0
  0
LINE
  8
0
 62
0
 10
8734.38427734
 20
-29.8664550781
 30
0.0
 11
8734.38427734
 21
482.640258789
 31
0.0
  0
LINE
  8
0
 62
0
 10
8734.38427734
 20
532.637390137
 30
0.0
 11
8734.38427734
 21
482.640258789
 31
0.0
  0
LINE
  8
0
 62
0
 10
8734.38427734
 20
532.637390137
 30
0.0
 11
8734.38439941
 21
1070.1451416
 31
0.0
  0
LINE
  8
0
 62
0
 10
8734.38439941
 20
1120.13769531
 30
0.0
 11
8734.38439941
 21
1070.1451416
 31
0.0
  0
LINE
  8
0
 62
0
 10
8734.38439941
 20
1120.13769531
 30
0.0
 11
8834.38439941
 21
1120.13769531
 31
0.0
  0
LINE
  8
0
 62
0
 10
8834.38439941
 20
1070.1451416
 30
0.0
 11
8734.38439941
 21
1070.1451416
 31
0.0
  0
LINE
  8
0
 62
0
 10
8734.38427734
 20
532.637390137
 30
0.0
 11
8834.38427734
 21
532.637390137
 31
0.0
  0
LINE
  8
0
 62
0
 10
8834.38427734
 20
482.640258789
 30
0.0
 11
8734.38427734
 21
482.640258789
 31
0.0
  0
LINE
  8
0
 62
0
 10
8734.38427734
 20
-29.8664550781
 30
0.0
 11
8834.38427734
 21
-29.8664550781
 31
0.0
  0
LINE
  8
0
 62
0
 10
8759.37841797
 20
1657.64355469
 30
0.0
 11
8759.37841797
 21
1120.13916016
 31
0.0
  0
LINE
  8
0
 62
0
 10
8759.37841797
 20
1120.13916016
 30
0.0
 11
8809.37841797
 21
1120.13916016
 31
0.0
  0
LINE
  8
0
 62
0
 10
8809.37841797
 20
1657.64355469
 30
0.0
 11
8759.37841797
 21
1657.64355469
 31
0.0
  0
LINE
  8
0
 62
0
 10
8809.37841797
 20
1657.64355469
 30
0.0
 11
8809.37841797
 21
1120.13916016
 31
0.0
  0
LINE
  8
0
 62
0
 10
8759.37841797
 20
482.64050293
 30
0.0
 11
8759.37841797
 21
-29.8662109375
 31
0.0
  0
LINE
  8
0
 62
0
 10
8759.37841797
 20
-29.8662109375
 30
0.0
 11
8809.37841797
 21
-29.8662109375
 31
0.0
  0
LINE
  8
0
 62
0
 10
8809.37841797
 20
482.64050293
 30
0.0
 11
8759.37841797
 21
482.64050293
 31
0.0
  0
LINE
  8
0
 62
0
 10
8809.37841797
 20
482.64050293
 30
0.0
 11
8809.37841797
 21
-29.8662109375
 31
0.0
  0
LINE
  8
0
 62
0
 10
8759.37841797
 20
1070.1451416
 30
0.0
 11
8759.37841797
 21
532.637573242
 31
0.0
  0
LINE
  8
0
 62
0
 10
8759.37841797
 20
532.637573242
 30
0.0
 11
8809.37841797
 21
532.637573242
 31
0.0
  0
LINE
  8
0
 62
0
 10
8809.37841797
 20
1070.1451416
 30
0.0
 11
8759.37841797
 21
1070.1451416
 31
0.0
  0
LINE
  8
0
 62
0
 10
8809.37841797
 20
1070.1451416
 30
0.0
 11
8809.37841797
 21
532.637573242
 31
0.0
  0
LINE
  8
0
 62
0
 10
8759.37841797
 20
2220.14746094
 30
0.0
 11
8759.37841797
 21
1707.640625
 31
0.0
  0
LINE
  8
0
 62
0
 10
8759.37841797
 20
1707.640625
 30
0.0
 11
8809.37841797
 21
1707.640625
 31
0.0
  0
LINE
  8
0
 62
0
 10
8809.37841797
 20
2220.14746094
 30
0.0
 11
8759.37841797
 21
2220.14746094
 31
0.0
  0
LINE
  8
0
 62
0
 10
8809.37841797
 20
2220.14746094
 30
0.0
 11
8809.37841797
 21
1707.640625
 31
0.0
  0
LINE
  8
0
 62
0
 10
9563.55351765
 20
-79.8606872559
 30
0.0
 11
8859.3828125
 21
-79.860577522
 31
0.0
  0
LINE
  8
0
 62
0
 10
9759.38726807
 20
-79.8606872559
 30
0.0
 11
9759.38763428
 21
2270.13745117
 31
0.0
  0
LINE
  8
0
 62
0
 10
8859.3828125
 20
-79.860577522
 30
0.0
 11
8859.38317871
 21
2270.13745117
 31
0.0
  0
LINE
  8
0
 62
0
 10
10206.0106812
 20
-79.8606872559
 30
0.0
 11
8709.3828125
 21
-79.8606872559
 31
0.0
  0
LINE
  8
0
 62
0
 10
10206.0106812
 20
-79.8606872559
 30
0.0
 11
10206.0106812
 21
-229.860671997
 31
0.0
  0
LINE
  8
0
 62
0
 10
8709.3828125
 20
-79.8606872559
 30
0.0
 11
8709.3828125
 21
-229.860671997
 31
0.0
  0
LINE
  8
0
 62
0
 10
10206.0106812
 20
-229.860671997
 30
0.0
 11
8709.3828125
 21
-229.860671997
 31
0.0
  0
LINE
  8
0
 62
0
 10
10206.0106812
 20
2420.13745117
 30
0.0
 11
8709.3828125
 21
2420.13745117
 31
0.0
  0
LINE
  8
0
 62
0
 10
10206.0106812
 20
2420.13745117
 30
0.0
 11
10206.0106812
 21
2270.13745117
 31
0.0
  0
LINE
  8
0
 62
0
 10
8709.3828125
 20
2420.13745117
 30
0.0
 11
8709.3828125
 21
2270.13745117
 31
0.0
  0
LINE
  8
0
 62
0
 10
10206.0106812
 20
2270.13745117
 30
0.0
 11
8709.3828125
 21
2270.13745117
 31
0.0
  0
LINE
  8
0
 62
0
 10
12756.0026855
 20
-2081.41259766
 30
0.0
 11
12756.0026855
 21
-1816.61535645
 31
0.0
  0
LINE
  8
0
 62
0
 10
12756.0026855
 20
-1816.61535645
 30
0.0
 11
12756.0026855
 21
-1551.81811524
 31
0.0
  0
LINE
  8
0
 62
0
 10
12756.0026855
 20
-1551.81811524
 30
0.0
 11
12756.0026855
 21
-1287.0209961
 31
0.0
  0
LINE
  8
0
 62
0
 10
12756.0026855
 20
-1287.0209961
 30
0.0
 11
12756.0026855
 21
-1022.22387696
 31
0.0
  0
LINE
  8
0
 62
0
 10
12756.0026855
 20
-1022.22387696
 30
0.0
 11
12756.0026855
 21
-757.426513675
 31
0.0
  0
LINE
  8
0
 62
0
 10
12756.0026855
 20
-757.426513675
 30
0.0
 11
12756.0026855
 21
-492.629394534
 31
0.0
  0
LINE
  8
0
 62
0
 10
12756.0026855
 20
-492.629394534
 30
0.0
 11
12756.0026855
 21
-227.832275393
 31
0.0
  0
LINE
  8
0
 62
0
 10
12756.0026855
 20
36.9650878881
 30
0.0
 11
12756.0026855
 21
-227.832275393
 31
0.0
  0
LINE
  8
0
 62
0
 10
12756.0026855
 20
390.028671957
 30
0.0
 11
12756.0026855
 21
36.9650878881
 31
0.0
  0
LINE
  8
0
 62
0
 10
11556.0056152
 20
390.028671957
 30
0.0
 11
12756.0026855
 21
390.028671957
 31
0.0
  0
LINE
  8
0
 62
0
 10
12756.0026855
 20
-2081.41259766
 30
0.0
 11
11556.0056152
 21
-2081.41259766
 31
0.0
  0
LINE
  8
0
 62
0
 10
11556.0056152
 20
-2081.41259766
 30
0.0
 11
11556.0056152
 21
-1816.61535645
 31
0.0
  0
LINE
  8
0
 62
0
 10
12756.0026855
 20
-1816.61535645
 30
0.0
 11
11556.0056152
 21
-1816.61535645
 31
0.0
  0
LINE
  8
0
 62
0
 10
11556.0056152
 20
-1816.61535645
 30
0.0
 11
11556.0056152
 21
-1551.81811524
 31
0.0
  0
LINE
  8
0
 62
0
 10
12756.0026855
 20
-1551.81811524
 30
0.0
 11
11556.0056152
 21
-1551.81811524
 31
0.0
  0
LINE
  8
0
 62
0
 10
11556.0056152
 20
-1551.81811524
 30
0.0
 11
11556.0056152
 21
-1287.0209961
 31
0.0
  0
LINE
  8
0
 62
0
 10
12756.0026855
 20
-1287.0209961
 30
0.0
 11
11556.0056152
 21
-1287.0209961
 31
0.0
  0
LINE
  8
0
 62
0
 10
11556.0056152
 20
-1287.0209961
 30
0.0
 11
11556.0056152
 21
-1022.22387696
 31
0.0
  0
LINE
  8
0
 62
0
 10
12756.0026855
 20
-1022.22387696
 30
0.0
 11
11556.0056152
 21
-1022.22387696
 31
0.0
  0
LINE
  8
0
 62
0
 10
11556.0056152
 20
-1022.22387696
 30
0.0
 11
11556.0056152
 21
-757.426513675
 31
0.0
  0
LINE
  8
0
 62
0
 10
12756.0026855
 20
-757.426513675
 30
0.0
 11
11556.0056152
 21
-757.426513675
 31
0.0
  0
LINE
  8
0
 62
0
 10
11556.0056152
 20
-757.426513675
 30
0.0
 11
11556.0056152
 21
-492.629394534
 31
0.0
  0
LINE
  8
0
 62
0
 10
12756.0026855
 20
-492.629394534
 30
0.0
 11
11556.0056152
 21
-492.629394534
 31
0.0
  0
LINE
  8
0
 62
0
 10
12756.0026855
 20
-227.832275393
 30
0.0
 11
11556.0056152
 21
-227.832275393
 31
0.0
  0
LINE
  8
0
 62
0
 10
11556.0056152
 20
-492.629394534
 30
0.0
 11
11556.0056152
 21
-227.832275393
 31
0.0
  0
LINE
  8
0
 62
0
 10
12756.0026855
 20
-227.832275393
 30
0.0
 11
11556.0056152
 21
-227.832275393
 31
0.0
  0
LINE
  8
0
 62
0
 10
11556.0056152
 20
36.9650878881
 30
0.0
 11
11556.0056152
 21
-227.832275393
 31
0.0
  0
LINE
  8
0
 62
0
 10
11556.0056152
 20
36.9650878881
 30
0.0
 11
12756.0026855
 21
36.9650878881
 31
0.0
  0
LINE
  8
0
 62
0
 10
11556.0056152
 20
390.028671957
 30
0.0
 11
11556.0056152
 21
36.9650878881
 31
0.0
  0
LINE
  8
0
 62
0
 10
7056.01220703
 20
2270.14306641
 30
0.0
 11
8709.3828125
 21
2270.13745117
 31
0.0
  0
LINE
  8
0
 62
0
 10
8709.3828125
 20
2270.13745117
 30
0.0
 11
8709.3828125
 21
-79.8606872559
 31
0.0
  0
LINE
  8
0
 62
0
 10
8709.3828125
 20
-229.860671997
 30
0.0
 11
8709.3828125
 21
-2081.4128418
 31
0.0
  0
LINE
  8
0
 62
0
 10
8709.3828125
 20
-2081.4128418
 30
0.0
 11
7056.00756836
 21
-2081.41210937
 31
0.0
  0
LINE
  8
0
 62
0
 10
7056.00756836
 20
-2081.41210937
 30
0.0
 11
7056.00756836
 21
-2081.41407994
 31
0.0
  0
LINE
  8
0
 62
0
 10
7056.00756836
 20
-5999.99095759
 30
0.0
 11
7056.00756836
 21
-6000.00097656
 31
0.0
  0
LINE
  8
0
 62
0
 10
7056.00756836
 20
-6000.00097656
 30
0.0
 11
12756.0078124
 21
-6000.00048828
 31
0.0
  0
LINE
  8
0
 62
0
 10
12756.0076394
 20
-5850.00048828
 30
0.0
 11
12756.0026855
 21
-1556.24402863
 31
0.0
  0
LINE
  8
0
 62
0
 10
12756.00044
 20
390.028671957
 30
0.0
 11
12755.9995117
 21
1194.64177594
 31
0.0
  0
LINE
  8
0
 62
0
 10
12755.9994246
 20
1270.15795898
 30
0.0
 11
12755.9987323
 21
1870.15649414
 31
0.0
  0
LINE
  8
0
 62
0
 10
12755.9956173
 20
4570.13916016
 30
0.0
 11
12755.9941406
 21
5849.99853516
 31
0.0
  0
LINE
  8
0
 62
0
 10
12755.9941406
 20
5849.99853516
 30
0.0
 11
10206.0091553
 21
5849.99853516
 31
0.0
  0
LINE
  8
0
 62
0
 10
10206.0091553
 20
6224.99640981
 30
0.0
 11
10206.0107422
 21
7850.0
 31
0.0
  0
LINE
  8
0
 62
0
 10
10206.0107422
 20
7850.0
 30
0.0
 11
7926.01196289
 21
7850.0
 31
0.0
  0
LINE
  8
0
 62
0
 10
7876.01196289
 20
7850.0
 30
0.0
 11
7056.0078125
 21
7850.0
 31
0.0
  0
LINE
  8
0
 62
0
 10
7056.0078125
 20
7850.0
 30
0.0
 11
7056.0089151
 21
6450.00097656
 31
0.0
  0
LINE
  8
0
 62
0
 10
7056.00921426
 20
6070.14501953
 30
0.0
 11
7056.00921426
 21
6070.14453126
 31
0.0
  0
LINE
  8
0
 62
0
 10
7056.00972618
 20
5420.14501953
 30
0.0
 11
7056.01210858
 21
2395.14306641
 31
0.0
  0
LINE
  8
0
 62
0
 10
7056.01218734
 20
2295.14306641
 30
0.0
 11
7056.01220703
 21
2270.14306697
 31
0.0
  0
LINE
  8
0
 62
0
 10
12756.0078125
 20
7850.0
 30
0.0
 11
12756.0078125
 21
5849.99853516
 31
0.0
  0
LINE
  8
0
 62
0
 10
12756.0078125
 20
5849.99853516
 30
0.0
 11
10206.0091553
 21
5849.99853516
 31
0.0
  0
LINE
  8
0
 62
0
 10
8709.3828125
 20
2270.13745117
 30
0.0
 11
8709.3828125
 21
-2081.4128418
 31
0.0
  0
LINE
  8
0
 62
0
 10
7056.02420027
 20
-2081.41210938
 30
0.0
 11
7056.02420027
 21
2270.14306637
 31
0.0
  0
LINE
  8
0
 62
0
 10
9029.62390137
 20
5970.14453125
 30
0.0
 11
9029.62390137
 21
5570.15275884
 31
0.0
  0
LINE
  8
0
 62
0
 10
9029.62390137
 20
5570.15275884
 30
0.0
 11
8579.63256836
 21
5570.15275883
 31
0.0
  0
LINE
  8
0
 62
0
 10
8579.63256836
 20
5570.15275883
 30
0.0
 11
8579.63256836
 21
5570.15283207
 31
0.0
  0
LINE
  8
0
 62
0
 10
9029.62383626
 20
5970.14453125
 30
0.0
 11
9029.62383626
 21
5570.15283207
 31
0.0
  0
LINE
  8
0
 62
0
 10
9029.62383626
 20
5970.14453125
 30
0.0
 11
9029.62383626
 21
5570.15283207
 31
0.0
  0
LINE
  8
0
 62
0
 10
9029.62383626
 20
5570.15283207
 30
0.0
 11
8579.63251877
 21
5570.15283207
 31
0.0
  0
LINE
  8
0
 62
0
 10
10291.0067902
 20
5340.14233398
 30
0.0
 11
10291.0068207
 21
4600.14239628
 31
0.0
  0
LINE
  8
0
 62
0
 10
10291.0068207
 20
4600.14239628
 30
0.0
 11
10271.0068207
 21
4600.14239628
 31
0.0
  0
LINE
  8
0
 62
0
 10
10271.0068207
 20
4600.14239628
 30
0.0
 11
10271.0067902
 21
5340.14233398
 31
0.0
  0
LINE
  8
0
 62
0
 10
10291.0067902
 20
5340.14233398
 30
0.0
 11
10271.0067902
 21
5340.14233398
 31
0.0
  0
LINE
  8
0
 62
0
 10
10181.0095367
 20
6450.04931641
 30
0.0
 11
10181.0095367
 21
7050.04443359
 31
0.0
  0
LINE
  8
0
 62
0
 10
10131.0095367
 20
6450.04931641
 30
0.0
 11
10181.0095367
 21
6450.04931641
 31
0.0
  0
LINE
  8
0
 62
0
 10
10131.009552
 20
7050.04443359
 30
0.0
 11
10131.0095367
 21
6450.04931641
 31
0.0
  0
LINE
  8
0
 62
0
 10
10181.0095367
 20
7050.04443359
 30
0.0
 11
10131.009552
 21
7050.04443359
 31
0.0
  0
LINE
  8
0
 62
0
 10
10256.0062256
 20
5420.13916016
 30
0.0
 11
10306.0062256
 21
5420.13916016
 31
0.0
  0
LINE
  8
0
 62
0
 10
10256.0062256
 20
4600.13916016
 30
0.0
 11
10256.0062256
 21
4520.13916016
 31
0.0
  0
LINE
  8
0
 62
0
 10
10256.0062256
 20
5340.13916016
 30
0.0
 11
10256.0062256
 21
4600.13916016
 31
0.0
  0
LINE
  8
0
 62
0
 10
10256.0062256
 20
5420.13916016
 30
0.0
 11
10256.0062256
 21
5340.13916016
 31
0.0
  0
LINE
  8
0
 62
0
 10
10306.0062256
 20
4600.13916016
 30
0.0
 11
10306.0062256
 21
4520.13916016
 31
0.0
  0
LINE
  8
0
 62
0
 10
10306.0062256
 20
5340.13916016
 30
0.0
 11
10306.0062256
 21
4600.13916016
 31
0.0
  0
LINE
  8
0
 62
0
 10
10306.0062256
 20
5420.13916016
 30
0.0
 11
10306.0062256
 21
5340.13916016
 31
0.0
  0
LINE
  8
0
 62
0
 10
10306.0062256
 20
5340.13916016
 30
0.0
 11
10256.0062256
 21
5340.13916016
 31
0.0
  0
LINE
  8
0
 62
0
 10
10306.0062256
 20
4520.13916016
 30
0.0
 11
10256.0062256
 21
4520.13916016
 31
0.0
  0
LINE
  8
0
 62
0
 10
10256.0062256
 20
4600.13916016
 30
0.0
 11
10306.0062256
 21
4600.13916016
 31
0.0
  0
LINE
  8
0
 62
0
 10
10206.0091553
 20
7050.04443359
 30
0.0
 11
10206.0091553
 21
7100.04443359
 31
0.0
  0
LINE
  8
0
 62
0
 10
10206.0091553
 20
6450.04931641
 30
0.0
 11
10206.0091553
 21
7050.04443359
 31
0.0
  0
LINE
  8
0
 62
0
 10
10206.0091553
 20
6400.04931641
 30
0.0
 11
10206.0091553
 21
6450.04931641
 31
0.0
  0
LINE
  8
0
 62
0
 10
10206.0091553
 20
6400.04931641
 30
0.0
 11
10106.0091553
 21
6400.04931641
 31
0.0
  0
LINE
  8
0
 62
0
 10
10106.0091553
 20
7100.04443359
 30
0.0
 11
10206.0091553
 21
7100.04443359
 31
0.0
  0
LINE
  8
0
 62
0
 10
10206.0091553
 20
7050.04443359
 30
0.0
 11
10106.0091553
 21
7050.04443359
 31
0.0
  0
LINE
  8
0
 62
0
 10
10106.0091553
 20
7050.04443359
 30
0.0
 11
10106.0091553
 21
7100.04443359
 31
0.0
  0
LINE
  8
0
 62
0
 10
10106.0091553
 20
7050.04443359
 30
0.0
 11
10106.0091553
 21
6450.04931641
 31
0.0
  0
LINE
  8
0
 62
0
 10
10106.0091553
 20
6450.04931641
 30
0.0
 11
10206.0091553
 21
6450.04931641
 31
0.0
  0
LINE
  8
0
 62
0
 10
10106.0091553
 20
6400.04931641
 30
0.0
 11
10106.0091553
 21
6450.04931641
 31
0.0
  0
LINE
  8
0
 62
0
 10
9056.00635529
 20
5570.14501954
 30
0.0
 11
9106.00635529
 21
5570.14501954
 31
0.0
  0
LINE
  8
0
 62
0
 10
9056.00635529
 20
5420.14501954
 30
0.0
 11
9056.00635529
 21
5570.14501954
 31
0.0
  0
LINE
  8
0
 62
0
 10
9106.00635529
 20
5570.14501954
 30
0.0
 11
9106.00635529
 21
5420.14501954
 31
0.0
  0
LINE
  8
0
 62
0
 10
9106.00635529
 20
5420.14501954
 30
0.0
 11
9056.00635529
 21
5420.14501954
 31
0.0
  0
LINE
  8
0
 62
0
 10
9906.0067215
 20
5570.14501954
 30
0.0
 11
9956.0067215
 21
5570.14501954
 31
0.0
  0
LINE
  8
0
 62
0
 10
9956.0067215
 20
5420.14501954
 30
0.0
 11
9956.0067215
 21
5570.14501954
 31
0.0
  0
LINE
  8
0
 62
0
 10
9956.0067215
 20
5420.14501954
 30
0.0
 11
9906.0067215
 21
5420.14501954
 31
0.0
  0
LINE
  8
0
 62
0
 10
9906.0067215
 20
5420.14501954
 30
0.0
 11
9906.0067215
 21
5570.14501954
 31
0.0
  0
LINE
  8
0
 62
0
 10
10056.0088501
 20
2520.14447021
 30
0.0
 11
10056.0088501
 21
2570.14447021
 31
0.0
  0
LINE
  8
0
 62
0
 10
10206.0088501
 20
2520.14447021
 30
0.0
 11
10056.0088501
 21
2520.14447021
 31
0.0
  0
LINE
  8
0
 62
0
 10
10056.0088501
 20
2570.14447021
 30
0.0
 11
10206.0088501
 21
2570.14447021
 31
0.0
  0
LINE
  8
0
 62
0
 10
10206.0088501
 20
2570.14447021
 30
0.0
 11
10206.0088501
 21
2520.14447021
 31
0.0
  0
LINE
  8
0
 62
0
 10
10056.0088501
 20
3470.14477539
 30
0.0
 11
10056.0088501
 21
3520.14477539
 31
0.0
  0
LINE
  8
0
 62
0
 10
10206.0088501
 20
3520.14477539
 30
0.0
 11
10056.0088501
 21
3520.14477539
 31
0.0
  0
LINE
  8
0
 62
0
 10
10206.0088501
 20
3520.14477539
 30
0.0
 11
10206.0088501
 21
3470.14477539
 31
0.0
  0
LINE
  8
0
 62
0
 10
10206.0088501
 20
3470.14477539
 30
0.0
 11
10056.0088501
 21
3470.14477539
 31
0.0
  0
LINE
  8
0
 62
0
 10
11755.9991455
 20
-3931.40771484
 30
0.0
 11
11805.9991455
 21
-3931.40771484
 31
0.0
  0
LINE
  8
0
 62
0
 10
11755.9991455
 20
-4081.40771484
 30
0.0
 11
11755.9991455
 21
-3931.40771484
 31
0.0
  0
LINE
  8
0
 62
0
 10
11805.9991455
 20
-3931.40771484
 30
0.0
 11
11805.9991455
 21
-4081.40771484
 31
0.0
  0
LINE
  8
0
 62
0
 10
11805.9991455
 20
-4081.40771484
 30
0.0
 11
11755.9991455
 21
-4081.40771484
 31
0.0
  0
LINE
  8
0
 62
0
 10
12605.9995117
 20
-3931.40771484
 30
0.0
 11
12655.9995117
 21
-3931.40771484
 31
0.0
  0
LINE
  8
0
 62
0
 10
12655.9995117
 20
-4081.40771484
 30
0.0
 11
12655.9995117
 21
-3931.40771484
 31
0.0
  0
LINE
  8
0
 62
0
 10
12655.9995117
 20
-4081.40771484
 30
0.0
 11
12605.9995117
 21
-4081.40771484
 31
0.0
  0
LINE
  8
0
 62
0
 10
12605.9995117
 20
-4081.40771484
 30
0.0
 11
12605.9995117
 21
-3931.40771484
 31
0.0
  0
LINE
  8
0
 62
0
 10
10456.0021362
 20
-5850.0
 30
0.0
 11
10506.0021362
 21
-5850.0
 31
0.0
  0
LINE
  8
0
 62
0
 10
10456.0021362
 20
-6000.0
 30
0.0
 11
10456.0021362
 21
-5850.0
 31
0.0
  0
LINE
  8
0
 62
0
 10
10506.0021362
 20
-5850.0
 30
0.0
 11
10506.0021362
 21
-6000.0
 31
0.0
  0
LINE
  8
0
 62
0
 10
10506.0021362
 20
-6000.0
 30
0.0
 11
10456.0021362
 21
-6000.0
 31
0.0
  0
LINE
  8
0
 62
0
 10
11406.0024414
 20
-5850.0
 30
0.0
 11
11456.0024414
 21
-5850.0
 31
0.0
  0
LINE
  8
0
 62
0
 10
11456.0024414
 20
-6000.0
 30
0.0
 11
11456.0024414
 21
-5850.0
 31
0.0
  0
LINE
  8
0
 62
0
 10
11456.0024414
 20
-6000.0
 30
0.0
 11
11406.0024414
 21
-6000.0
 31
0.0
  0
LINE
  8
0
 62
0
 10
11406.0024414
 20
-6000.0
 30
0.0
 11
11406.0024414
 21
-5850.0
 31
0.0
  0
LINE
  8
0
 62
0
 10
9265.01904755
 20
-2031.41894531
 30
0.0
 11
9265.01904755
 21
-1981.41894531
 31
0.0
  0
LINE
  8
0
 62
0
 10
10115.7962235
 20
-1981.41894531
 30
0.0
 11
10115.7962235
 21
-2031.41894531
 31
0.0
  0
LINE
  8
0
 62
0
 10
10035.7960709
 20
-2031.41894531
 30
0.0
 11
10115.7962235
 21
-2031.41894531
 31
0.0
  0
LINE
  8
0
 62
0
 10
10035.7960709
 20
-2031.41894531
 30
0.0
 11
9345.01916962
 21
-2031.41894531
 31
0.0
  0
LINE
  8
0
 62
0
 10
9265.01904755
 20
-2031.41894531
 30
0.0
 11
9345.01916962
 21
-2031.41894531
 31
0.0
  0
LINE
  8
0
 62
0
 10
10035.7960709
 20
-1981.41894531
 30
0.0
 11
10115.7962235
 21
-1981.41894531
 31
0.0
  0
LINE
  8
0
 62
0
 10
10035.7960709
 20
-1981.41894531
 30
0.0
 11
9345.01916962
 21
-1981.41894531
 31
0.0
  0
LINE
  8
0
 62
0
 10
9265.01904755
 20
-1981.41894531
 30
0.0
 11
9345.01916962
 21
-1981.41894531
 31
0.0
  0
LINE
  8
0
 62
0
 10
9345.01916962
 20
-1981.41894531
 30
0.0
 11
9345.01916962
 21
-2031.41894531
 31
0.0
  0
LINE
  8
0
 62
0
 10
10035.7960709
 20
-2031.41894531
 30
0.0
 11
10035.7960709
 21
-1981.41894531
 31
0.0
  0
LINE
  8
0
 62
0
 10
9345.01916962
 20
-2031.41894531
 30
0.0
 11
9345.01916962
 21
-2016.41821288
 31
0.0
  0
LINE
  8
0
 62
0
 10
9345.01916962
 20
-1996.41821288
 30
0.0
 11
9345.01916962
 21
-1981.41894531
 31
0.0
  0
LINE
  8
0
 62
0
 10
9906.005618
 20
6370.14501953
 30
0.0
 11
9906.006661
 21
5570.14501953
 31
0.0
  0
LINE
  8
0
 62
0
 10
9906.005618
 20
6370.14501953
 30
0.0
 11
9856.00561142
 21
6370.14453125
 31
0.0
  0
LINE
  8
0
 62
0
 10
9906.006661
 20
5570.14501953
 30
0.0
 11
9856.00665283
 21
5570.14453125
 31
0.0
  0
LINE
  8
0
 62
0
 10
9856.00665283
 20
5570.14453125
 30
0.0
 11
9856.00561142
 21
6370.14453125
 31
0.0
  0
LINE
  8
0
 62
0
 10
11406.0024414
 20
-5850.0
 30
0.0
 11
11406.0023193
 21
-4950.0
 31
0.0
  0
LINE
  8
0
 62
0
 10
11356.0024414
 20
-5850.0
 30
0.0
 11
11406.0024414
 21
-5850.0
 31
0.0
  0
LINE
  8
0
 62
0
 10
11356.0023193
 20
-4950.0
 30
0.0
 11
11356.0024414
 21
-5850.0
 31
0.0
  0
LINE
  8
0
 62
0
 10
11406.0023193
 20
-4950.0
 30
0.0
 11
11356.0023193
 21
-4950.0
 31
0.0
  0
LINE
  8
0
 62
0
 10
10056.0088501
 20
2620.14453125
 30
0.0
 11
9156.00891113
 21
2620.14331055
 31
0.0
  0
LINE
  8
0
 62
0
 10
10056.0089264
 20
2570.14453125
 30
0.0
 11
10056.0088501
 21
2620.14453125
 31
0.0
  0
LINE
  8
0
 62
0
 10
10056.0089264
 20
2570.14453125
 30
0.0
 11
9156.00897217
 21
2570.14331055
 31
0.0
  0
LINE
  8
0
 62
0
 10
9156.00891113
 20
2620.14331055
 30
0.0
 11
9156.00897217
 21
2570.14331055
 31
0.0
  0
LINE
  8
0
 62
0
 10
12605.9995117
 20
-3931.40771484
 30
0.0
 11
12605.9992676
 21
-3131.40771484
 31
0.0
  0
LINE
  8
0
 62
0
 10
12555.9995117
 20
-3931.40771484
 30
0.0
 11
12605.9995117
 21
-3931.40771484
 31
0.0
  0
LINE
  8
0
 62
0
 10
12555.9995117
 20
-3931.40771484
 30
0.0
 11
12555.9992676
 21
-3131.40771484
 31
0.0
  0
LINE
  8
0
 62
0
 10
12605.9992676
 20
-3131.40771484
 30
0.0
 11
12555.9992676
 21
-3131.40771484
 31
0.0
  0
LINE
  8
0
 62
0
 10
10035.7968628
 20
-2016.41796874
 30
0.0
 11
9345.01596424
 21
-2016.41821288
 31
0.0
  0
LINE
  8
0
 62
0
 10
9345.01596424
 20
-1996.41821288
 30
0.0
 11
9345.01596424
 21
-2016.41821288
 31
0.0
  0
LINE
  8
0
 62
0
 10
10035.7968628
 20
-1996.41796874
 30
0.0
 11
9345.01596424
 21
-1996.41821288
 31
0.0
  0
LINE
  8
0
 62
0
 10
10035.7968628
 20
-2016.41796874
 30
0.0
 11
10035.7968628
 21
-1996.41796874
 31
0.0
  0
LINE
  8
0
 62
0
 10
10035.7973821
 20
-314.850077624
 30
0.0
 11
9345.01648359
 21
-314.850321764
 31
0.0
  0
LINE
  8
0
 62
0
 10
9345.01648359
 20
-294.850321764
 30
0.0
 11
9345.01648359
 21
-314.850321764
 31
0.0
  0
LINE
  8
0
 62
0
 10
10035.7973821
 20
-294.850077624
 30
0.0
 11
9345.01648359
 21
-294.850321764
 31
0.0
  0
LINE
  8
0
 62
0
 10
10035.7973821
 20
-314.850077624
 30
0.0
 11
10035.7973821
 21
-294.850077624
 31
0.0
  0
LINE
  8
0
 62
0
 10
9265.0195669
 20
-329.851054191
 30
0.0
 11
9265.0195669
 21
-279.851054191
 31
0.0
  0
LINE
  8
0
 62
0
 10
10115.7967428
 20
-279.851054191
 30
0.0
 11
10115.7967428
 21
-329.851054191
 31
0.0
  0
LINE
  8
0
 62
0
 10
10035.7965902
 20
-329.851054191
 30
0.0
 11
10115.7967428
 21
-329.851054191
 31
0.0
  0
LINE
  8
0
 62
0
 10
10035.7965902
 20
-329.851054191
 30
0.0
 11
9345.01968897
 21
-329.851054191
 31
0.0
  0
LINE
  8
0
 62
0
 10
9265.0195669
 20
-329.851054191
 30
0.0
 11
9345.01968897
 21
-329.851054191
 31
0.0
  0
LINE
  8
0
 62
0
 10
10035.7965902
 20
-279.851054191
 30
0.0
 11
10115.7967428
 21
-279.851054191
 31
0.0
  0
LINE
  8
0
 62
0
 10
10035.7965902
 20
-279.851054191
 30
0.0
 11
9345.01968897
 21
-279.851054191
 31
0.0
  0
LINE
  8
0
 62
0
 10
9265.0195669
 20
-279.851054191
 30
0.0
 11
9345.01968897
 21
-279.851054191
 31
0.0
  0
LINE
  8
0
 62
0
 10
9345.01968897
 20
-279.851054191
 30
0.0
 11
9345.01968897
 21
-329.851054191
 31
0.0
  0
LINE
  8
0
 62
0
 10
10035.7965902
 20
-329.851054191
 30
0.0
 11
10035.7965902
 21
-279.851054191
 31
0.0
  0
LINE
  8
0
 62
0
 10
9345.01968897
 20
-329.851054191
 30
0.0
 11
9345.01968897
 21
-314.850321763
 31
0.0
  0
LINE
  8
0
 62
0
 10
9345.01968897
 20
-294.850321763
 30
0.0
 11
9345.01968897
 21
-279.851054191
 31
0.0
  0
LINE
  8
0
 62
0
 10
6906.00732422
 20
-6000.00097656
 30
0.0
 11
6906.00732422
 21
-8000.0
 31
0.0
  0
LINE
  8
0
 62
0
 10
6906.00732422
 20
-6000.00097656
 30
0.0
 11
7056.00756836
 21
-6000.00097656
 31
0.0
  0
LINE
  8
0
 62
0
 10
6906.00732422
 20
-8000.0
 30
0.0
 11
7056.00756836
 21
-8000.0
 31
0.0
  0
LINE
  8
0
 62
0
 10
7056.00756836
 20
-6000.00097656
 30
0.0
 11
7056.00756836
 21
-8000.0
 31
0.0
  0
LINE
  8
0
 62
0
 10
12906.0078125
 20
-5999.99804688
 30
0.0
 11
12906.0078125
 21
-8000.00195312
 31
0.0
  0
LINE
  8
0
 62
0
 10
12906.0078125
 20
-8000.00195312
 30
0.0
 11
12756.0078125
 21
-8000.00195312
 31
0.0
  0
LINE
  8
0
 62
0
 10
12756.0078125
 20
-8000.00195312
 30
0.0
 11
12756.0078125
 21
-5999.99804688
 31
0.0
  0
LINE
  8
0
 62
0
 10
12906.0078125
 20
-5999.99804688
 30
0.0
 11
12756.0078125
 21
-5999.99804688
 31
0.0
  0
LINE
  8
0
 62
0
 10
12906.0078125
 20
2420.1394043
 30
0.0
 11
12906.0078125
 21
-2081.41137695
 31
0.0
  0
LINE
  8
0
 62
0
 10
12906.0078125
 20
-2081.41137695
 30
0.0
 11
12756.0078125
 21
-2081.41137695
 31
0.0
  0
LINE
  8
0
 62
0
 10
12756.0078125
 20
-2081.41137695
 30
0.0
 11
12756.0078125
 21
2420.1394043
 31
0.0
  0
LINE
  8
0
 62
0
 10
12906.0078125
 20
2420.1394043
 30
0.0
 11
12756.0078125
 21
2420.1394043
 31
0.0
  0
LINE
  8
0
 62
0
 10
12906.0078125
 20
8000.0
 30
0.0
 11
10206.0107422
 21
8000.0
 31
0.0
  0
LINE
  8
0
 62
0
 10
12906.0078125
 20
8000.0
 30
0.0
 11
12906.0078125
 21
4570.13867188
 31
0.0
  0
LINE
  8
0
 62
0
 10
10206.0107422
 20
7850.0
 30
0.0
 11
10206.0107422
 21
8000.0
 31
0.0
  0
LINE
  8
0
 62
0
 10
12906.0078125
 20
4570.13867188
 30
0.0
 11
12756.0078125
 21
4570.13867188
 31
0.0
  0
LINE
  8
0
 62
0
 10
12756.0078125
 20
4570.13867188
 30
0.0
 11
12756.0078125
 21
7850.0
 31
0.0
  0
LINE
  8
0
 62
0
 10
12756.0078125
 20
7850.0
 30
0.0
 11
10206.0107422
 21
7850.0
 31
0.0
  0
LINE
  8
0
 62
0
 10
6906.0078125
 20
8000.0
 30
0.0
 11
6906.0078125
 21
2420.14257812
 31
0.0
  0
LINE
  8
0
 62
0
 10
6906.0078125
 20
8000.0
 30
0.0
 11
10206.0107422
 21
8000.0
 31
0.0
  0
LINE
  8
0
 62
0
 10
10206.0107422
 20
8000.0
 30
0.0
 11
10206.0107422
 21
7850.0
 31
0.0
  0
LINE
  8
0
 62
0
 10
10206.0107422
 20
7850.0
 30
0.0
 11
7056.0078125
 21
7850.0
 31
0.0
  0
LINE
  8
0
 62
0
 10
7056.0078125
 20
7850.0
 30
0.0
 11
7056.0078125
 21
2420.14257812
 31
0.0
  0
LINE
  8
0
 62
0
 10
6906.0078125
 20
2420.14257812
 30
0.0
 11
7056.0078125
 21
2420.14257812
 31
0.0
  0
ENDBLK
  0
BLOCK
  8
0
  2
SHAPE2DVIEW002
 70
0
 10
0.0
 20
0.0
 30
0.0
  3
SHAPE2DVIEW002
  0
LINE
  8
0
 62
0
 10
21244.0050049
 20
-5975.00244141
 30
0.0
 11
21294.0050049
 21
-5975.00244141
 31
0.0
  0
LINE
  8
0
 62
0
 10
21244.0050049
 20
-5975.00244141
 30
0.0
 11
21244.0050049
 21
-5875.00244141
 31
0.0
  0
LINE
  8
0
 62
0
 10
21294.0050049
 20
-5875.00244141
 30
0.0
 11
21294.0050049
 21
-5975.00244141
 31
0.0
  0
LINE
  8
0
 62
0
 10
22244.0041504
 20
-5975.00244141
 30
0.0
 11
22294.0043945
 21
-5975.00244141
 31
0.0
  0
LINE
  8
0
 62
0
 10
22244.0041504
 20
-5975.00244141
 30
0.0
 11
22244.0041504
 21
-5875.00244141
 31
0.0
  0
LINE
  8
0
 62
0
 10
22294.0043945
 20
-5875.00244141
 30
0.0
 11
22294.0043945
 21
-5975.00244141
 31
0.0
  0
LINE
  8
0
 62
0
 10
21244.0050049
 20
-5875.00244141
 30
0.0
 11
21294.0050049
 21
-5875.00244141
 31
0.0
  0
LINE
  8
0
 62
0
 10
22244.0041504
 20
-5875.00244141
 30
0.0
 11
22294.0043945
 21
-5875.00244141
 31
0.0
  0
LINE
  8
0
 62
0
 10
19694.0096283
 20
6450.04931641
 30
0.0
 11
19694.0096283
 21
7050.04443359
 31
0.0
  0
LINE
  8
0
 62
0
 10
19644.0096283
 20
6450.04931641
 30
0.0
 11
19694.0096283
 21
6450.04931641
 31
0.0
  0
LINE
  8
0
 62
0
 10
19694.0096283
 20
7050.04443359
 30
0.0
 11
19644.0096436
 21
7050.04443359
 31
0.0
  0
LINE
  8
0
 62
0
 10
19644.0096436
 20
7050.04443359
 30
0.0
 11
19644.0096283
 21
6450.04931641
 31
0.0
  0
LINE
  8
0
 62
0
 10
19644.0046997
 20
-229.860046387
 30
0.0
 11
19644.0045929
 21
-1130.63574219
 31
0.0
  0
LINE
  8
0
 62
0
 10
19694.0046997
 20
-229.860046387
 30
0.0
 11
19644.0046997
 21
-229.860046387
 31
0.0
  0
LINE
  8
0
 62
0
 10
19644.0045929
 20
-1130.63574219
 30
0.0
 11
19694.0046082
 21
-1130.63574219
 31
0.0
  0
LINE
  8
0
 62
0
 10
19694.0046082
 20
-1130.63574219
 30
0.0
 11
19694.0046997
 21
-229.860046387
 31
0.0
  0
LINE
  8
0
 62
0
 10
19719.0092468
 20
6400.04931641
 30
0.0
 11
19719.0092468
 21
6450.04931641
 31
0.0
  0
LINE
  8
0
 62
0
 10
19719.0092468
 20
6400.04931641
 30
0.0
 11
19619.0092468
 21
6400.04931641
 31
0.0
  0
LINE
  8
0
 62
0
 10
19619.0092468
 20
6450.04931641
 30
0.0
 11
19719.0092468
 21
6450.04931641
 31
0.0
  0
LINE
  8
0
 62
0
 10
19719.0092468
 20
7050.04443359
 30
0.0
 11
19719.0092468
 21
7100.04443359
 31
0.0
  0
LINE
  8
0
 62
0
 10
19719.0092468
 20
7050.04443359
 30
0.0
 11
19619.0092468
 21
7050.04443359
 31
0.0
  0
LINE
  8
0
 62
0
 10
19619.0092468
 20
7100.04443359
 30
0.0
 11
19719.0092468
 21
7100.04443359
 31
0.0
  0
LINE
  8
0
 62
0
 10
19619.0092468
 20
6400.04931641
 30
0.0
 11
19619.0092468
 21
6450.04931641
 31
0.0
  0
LINE
  8
0
 62
0
 10
19619.0092468
 20
7050.04443359
 30
0.0
 11
19619.0092468
 21
7100.04443359
 31
0.0
  0
LINE
  8
0
 62
0
 10
17464.0119629
 20
6450.00097656
 30
0.0
 11
17464.0119629
 21
6500.00097656
 31
0.0
  0
LINE
  8
0
 62
0
 10
17464.0119629
 20
6450.00097656
 30
0.0
 11
17414.0119629
 21
6450.00097656
 31
0.0
  0
LINE
  8
0
 62
0
 10
17414.0119629
 20
6500.00097656
 30
0.0
 11
17464.0119629
 21
6500.00097656
 31
0.0
  0
LINE
  8
0
 62
0
 10
17464.0119629
 20
6999.99169922
 30
0.0
 11
17464.0119629
 21
7049.99169922
 31
0.0
  0
LINE
  8
0
 62
0
 10
17464.0119629
 20
6999.99169922
 30
0.0
 11
17414.0119629
 21
6999.99169922
 31
0.0
  0
LINE
  8
0
 62
0
 10
17414.0119629
 20
7049.99169922
 30
0.0
 11
17464.0119629
 21
7049.99169922
 31
0.0
  0
LINE
  8
0
 62
0
 10
17414.0119629
 20
6450.00097656
 30
0.0
 11
17414.0119629
 21
6500.00097656
 31
0.0
  0
LINE
  8
0
 62
0
 10
17414.0119629
 20
6999.99169922
 30
0.0
 11
17414.0119629
 21
7049.99169922
 31
0.0
  0
LINE
  8
0
 62
0
 10
16644.0112305
 20
2320.14282227
 30
0.0
 11
17544.0148926
 21
2320.14282227
 31
0.0
  0
LINE
  8
0
 62
0
 10
16644.0112305
 20
2370.14282227
 30
0.0
 11
16644.0112305
 21
2320.14282227
 31
0.0
  0
LINE
  8
0
 62
0
 10
17544.0148926
 20
2320.14282227
 30
0.0
 11
17544.0148926
 21
2370.14282227
 31
0.0
  0
LINE
  8
0
 62
0
 10
16644.0112305
 20
2370.14282227
 30
0.0
 11
17544.0148926
 21
2370.14282227
 31
0.0
  0
LINE
  8
0
 62
0
 10
21294.0050049
 20
-5950.00244141
 30
0.0
 11
22244.0041504
 21
-5950.00244141
 31
0.0
  0
LINE
  8
0
 62
0
 10
21294.0050049
 20
-5900.00244141
 30
0.0
 11
21294.0050049
 21
-5950.00244141
 31
0.0
  0
LINE
  8
0
 62
0
 10
22244.0041504
 20
-5950.00244141
 30
0.0
 11
22244.0041504
 21
-5900.00244141
 31
0.0
  0
LINE
  8
0
 62
0
 10
21294.0050049
 20
-5900.00244141
 30
0.0
 11
22244.0041504
 21
-5900.00244141
 31
0.0
  0
LINE
  8
0
 62
0
 10
17451.5148926
 20
6500.00097656
 30
0.0
 11
17451.5148926
 21
6999.99169922
 31
0.0
  0
LINE
  8
0
 62
0
 10
17426.5148926
 20
6500.00097656
 30
0.0
 11
17451.5148926
 21
6500.00097656
 31
0.0
  0
LINE
  8
0
 62
0
 10
17451.5148926
 20
6999.99169922
 30
0.0
 11
17426.5148926
 21
6999.99169922
 31
0.0
  0
LINE
  8
0
 62
0
 10
17426.5148926
 20
6500.00097656
 30
0.0
 11
17426.5148926
 21
6999.99169922
 31
0.0
  0
LINE
  8
0
 62
0
 10
17464.0119629
 20
7049.99560547
 30
0.0
 11
17464.0119629
 21
7099.99560547
 31
0.0
  0
LINE
  8
0
 62
0
 10
17464.0119629
 20
7049.99560547
 30
0.0
 11
17414.0119629
 21
7049.99560547
 31
0.0
  0
LINE
  8
0
 62
0
 10
17414.0119629
 20
7099.99560547
 30
0.0
 11
17464.0119629
 21
7099.99560547
 31
0.0
  0
LINE
  8
0
 62
0
 10
17464.0119629
 20
7800.00195313
 30
0.0
 11
17464.0119629
 21
7850.00195313
 31
0.0
  0
LINE
  8
0
 62
0
 10
17464.0119629
 20
7800.00195313
 30
0.0
 11
17414.0119629
 21
7800.00195313
 31
0.0
  0
LINE
  8
0
 62
0
 10
17414.0119629
 20
7850.00195313
 30
0.0
 11
17464.0119629
 21
7850.00195313
 31
0.0
  0
LINE
  8
0
 62
0
 10
17414.0119629
 20
7049.99560547
 30
0.0
 11
17414.0119629
 21
7099.99560547
 31
0.0
  0
LINE
  8
0
 62
0
 10
17414.0119629
 20
7800.00195313
 30
0.0
 11
17414.0119629
 21
7850.00195313
 31
0.0
  0
LINE
  8
0
 62
0
 10
19644.0044556
 20
-2031.41992187
 30
0.0
 11
19644.0045624
 21
-1180.6282959
 31
0.0
  0
LINE
  8
0
 62
0
 10
19644.0044556
 20
-2031.41992187
 30
0.0
 11
19694.0044556
 21
-2031.41992187
 31
0.0
  0
LINE
  8
0
 62
0
 10
19694.0045471
 20
-1180.6282959
 30
0.0
 11
19644.0045624
 21
-1180.6282959
 31
0.0
  0
LINE
  8
0
 62
0
 10
19694.0045471
 20
-1180.6282959
 30
0.0
 11
19694.0044556
 21
-2031.41992187
 31
0.0
  0
LINE
  8
0
 62
0
 10
17451.5148926
 20
7099.99560547
 30
0.0
 11
17451.5148926
 21
7800.00634766
 31
0.0
  0
LINE
  8
0
 62
0
 10
17426.5148926
 20
7099.99560547
 30
0.0
 11
17451.5148926
 21
7099.99560547
 31
0.0
  0
LINE
  8
0
 62
0
 10
17451.5148926
 20
7800.00634766
 30
0.0
 11
17426.5148926
 21
7800.00634766
 31
0.0
  0
LINE
  8
0
 62
0
 10
17426.5148926
 20
7099.99560547
 30
0.0
 11
17426.5148926
 21
7800.00634766
 31
0.0
  0
LINE
  8
0
 62
0
 10
16594.0112305
 20
2295.14306641
 30
0.0
 11
16644.0112305
 21
2295.14306641
 31
0.0
  0
LINE
  8
0
 62
0
 10
16594.0112305
 20
2295.14306641
 30
0.0
 11
16594.0112305
 21
2395.14306641
 31
0.0
  0
LINE
  8
0
 62
0
 10
16644.0112305
 20
2395.14306641
 30
0.0
 11
16644.0112305
 21
2295.14306641
 31
0.0
  0
LINE
  8
0
 62
0
 10
17544.0106201
 20
2295.14306641
 30
0.0
 11
17594.0106201
 21
2295.14306641
 31
0.0
  0
LINE
  8
0
 62
0
 10
17544.0106201
 20
2295.14306641
 30
0.0
 11
17544.0106201
 21
2395.14306641
 31
0.0
  0
LINE
  8
0
 62
0
 10
17594.0106201
 20
2395.14306641
 30
0.0
 11
17594.0106201
 21
2295.14306641
 31
0.0
  0
LINE
  8
0
 62
0
 10
16594.0112305
 20
2395.14306641
 30
0.0
 11
16644.0112305
 21
2395.14306641
 31
0.0
  0
LINE
  8
0
 62
0
 10
17544.0106201
 20
2395.14306641
 30
0.0
 11
17594.0106201
 21
2395.14306641
 31
0.0
  0
LINE
  8
0
 62
0
 10
21094.0015869
 20
3920.13916016
 30
0.0
 11
21094.0015869
 21
4420.13964844
 31
0.0
  0
LINE
  8
0
 62
0
 10
20944.0015869
 20
3920.13916016
 30
0.0
 11
21094.0015869
 21
3920.13916016
 31
0.0
  0
LINE
  8
0
 62
0
 10
20944.0015869
 20
4420.13964844
 30
0.0
 11
21094.0015869
 21
4420.13964844
 31
0.0
  0
LINE
  8
0
 62
0
 10
20944.0015869
 20
3920.13916016
 30
0.0
 11
20944.0015869
 21
4420.13964844
 31
0.0
  0
LINE
  8
0
 62
0
 10
18567.6292725
 20
6070.14453125
 30
0.0
 11
18117.6276855
 21
6070.14453125
 31
0.0
  0
LINE
  8
0
 62
0
 10
18567.6292725
 20
6070.14453125
 30
0.0
 11
18567.6292725
 21
5970.14453125
 31
0.0
  0
LINE
  8
0
 62
0
 10
18117.6276855
 20
6070.14453125
 30
0.0
 11
18117.6276855
 21
5970.14453125
 31
0.0
  0
LINE
  8
0
 62
0
 10
18567.6292725
 20
5970.14453125
 30
0.0
 11
18117.6276855
 21
5970.14453125
 31
0.0
  0
LINE
  8
0
 62
0
 10
17094.0117188
 20
6450.00097656
 30
0.0
 11
17544.0133057
 21
6450.00048828
 31
0.0
  0
LINE
  8
0
 62
0
 10
17094.0117188
 20
6070.14453125
 30
0.0
 11
17094.0117188
 21
6450.00097656
 31
0.0
  0
LINE
  8
0
 62
0
 10
17544.0133057
 20
6450.00048828
 30
0.0
 11
17544.0133057
 21
6350.00048828
 31
0.0
  0
LINE
  8
0
 62
0
 10
17194.0117188
 20
6350.00097656
 30
0.0
 11
17544.0133057
 21
6350.00048828
 31
0.0
  0
LINE
  8
0
 62
0
 10
17194.0117188
 20
6070.14453125
 30
0.0
 11
17094.0117188
 21
6070.14453125
 31
0.0
  0
LINE
  8
0
 62
0
 10
17194.0117188
 20
6350.00097656
 30
0.0
 11
17194.0117188
 21
6070.14453125
 31
0.0
  0
LINE
  8
0
 62
0
 10
18247.3828125
 20
2270.14282227
 30
0.0
 11
18247.3828125
 21
2420.14282227
 31
0.0
  0
LINE
  8
0
 62
0
 10
17594.0106201
 20
2270.14291875
 30
0.0
 11
18247.3828125
 21
2270.14282227
 31
0.0
  0
LINE
  8
0
 62
0
 10
18247.3828125
 20
2420.14282227
 30
0.0
 11
17594.0106201
 21
2420.14282227
 31
0.0
  0
LINE
  8
0
 62
0
 10
17594.0106201
 20
2420.14282227
 30
0.0
 11
17594.0106201
 21
2270.14291875
 31
0.0
  0
LINE
  8
0
 62
0
 10
22444.0078125
 20
-6000.0
 30
0.0
 11
22444.0078125
 21
-2081.41040039
 31
0.0
  0
LINE
  8
0
 62
0
 10
22444.0078125
 20
-6000.0
 30
0.0
 11
22294.0078125
 21
-6000.0
 31
0.0
  0
LINE
  8
0
 62
0
 10
22444.0078125
 20
-2081.41040039
 30
0.0
 11
22294.0078125
 21
-2081.41040039
 31
0.0
  0
LINE
  8
0
 62
0
 10
22294.0078125
 20
-6000.0
 30
0.0
 11
22294.0078125
 21
-2081.41040039
 31
0.0
  0
LINE
  8
0
 62
0
 10
16444.0078125
 20
-2081.41111537
 30
0.0
 11
16444.0075684
 21
-6000.00097656
 31
0.0
  0
LINE
  8
0
 62
0
 10
16594.0078125
 20
-2081.41111537
 30
0.0
 11
16444.0078125
 21
-2081.41111537
 31
0.0
  0
LINE
  8
0
 62
0
 10
16444.0075684
 20
-6000.00097656
 30
0.0
 11
16594.0075684
 21
-6000.00097656
 31
0.0
  0
LINE
  8
0
 62
0
 10
16594.0075684
 20
-6000.00097656
 30
0.0
 11
16594.0078125
 21
-2081.41111537
 31
0.0
  0
LINE
  8
0
 62
0
 10
16444.0073242
 20
-1281.41186523
 30
0.0
 11
16444.0073242
 21
-2081.41113281
 31
0.0
  0
LINE
  8
0
 62
0
 10
16594.0075684
 20
-1281.41186523
 30
0.0
 11
16444.0073242
 21
-1281.41186523
 31
0.0
  0
LINE
  8
0
 62
0
 10
16444.0073242
 20
-2081.41113281
 30
0.0
 11
16594.0075684
 21
-2081.41113281
 31
0.0
  0
LINE
  8
0
 62
0
 10
16594.0075684
 20
-1281.41186523
 30
0.0
 11
16594.0075684
 21
-2081.41113281
 31
0.0
  0
LINE
  8
0
 62
0
 10
16444.0073242
 20
2420.13671875
 30
0.0
 11
16444.0073242
 21
1470.14331055
 31
0.0
  0
LINE
  8
0
 62
0
 10
16594.0075684
 20
2420.13671875
 30
0.0
 11
16444.0073242
 21
2420.13671875
 31
0.0
  0
LINE
  8
0
 62
0
 10
16444.0073242
 20
1470.14331055
 30
0.0
 11
16594.0075684
 21
1470.14331055
 31
0.0
  0
LINE
  8
0
 62
0
 10
16594.0075684
 20
2420.13671875
 30
0.0
 11
16594.0075684
 21
1470.14331055
 31
0.0
  0
LINE
  8
0
 62
0
 10
22444.0078125
 20
2420.13745117
 30
0.0
 11
22444.0078125
 21
4570.13769531
 31
0.0
  0
LINE
  8
0
 62
0
 10
22444.0078125
 20
2420.13745117
 30
0.0
 11
22294.0078125
 21
2420.13745117
 31
0.0
  0
LINE
  8
0
 62
0
 10
22444.0078125
 20
4570.13769531
 30
0.0
 11
22294.0078125
 21
4570.13769531
 31
0.0
  0
LINE
  8
0
 62
0
 10
22294.0078125
 20
2420.13745117
 30
0.0
 11
22294.0078125
 21
4570.13769531
 31
0.0
  0
LINE
  8
0
 62
0
 10
22444.0075684
 20
4570.13867188
 30
0.0
 11
22444.0075684
 21
6070.14013672
 31
0.0
  0
LINE
  8
0
 62
0
 10
22444.0075684
 20
4570.13867188
 30
0.0
 11
22294.0075684
 21
4570.13867188
 31
0.0
  0
LINE
  8
0
 62
0
 10
22444.0075684
 20
6070.14013672
 30
0.0
 11
22294.0075684
 21
6070.14013672
 31
0.0
  0
LINE
  8
0
 62
0
 10
22294.0075684
 20
4570.13867188
 30
0.0
 11
22294.0075684
 21
6070.14013672
 31
0.0
  0
LINE
  8
0
 62
0
 10
17967.6325684
 20
5420.14453125
 30
0.0
 11
18594.006
 21
5420.14453125
 31
0.0
  0
LINE
  8
0
 62
0
 10
17967.6325684
 20
5420.14453125
 30
0.0
 11
17967.6325684
 21
5920.14453125
 31
0.0
  0
LINE
  8
0
 62
0
 10
18594.006
 20
5570.14453125
 30
0.0
 11
18594.006
 21
5420.14453125
 31
0.0
  0
LINE
  8
0
 62
0
 10
19494.0066299
 20
5420.14453125
 30
0.0
 11
19594.0082092
 21
5420.14453125
 31
0.0
  0
LINE
  8
0
 62
0
 10
19494.0066299
 20
5570.14453125
 30
0.0
 11
19494.0066299
 21
5420.14453125
 31
0.0
  0
LINE
  8
0
 62
0
 10
19594.0082092
 20
5570.14453125
 30
0.0
 11
19594.0082092
 21
5420.14453125
 31
0.0
  0
LINE
  8
0
 62
0
 10
17967.6325684
 20
5920.14453125
 30
0.0
 11
16594.0058594
 21
5920.14453125
 31
0.0
  0
LINE
  8
0
 62
0
 10
18117.6324463
 20
5570.14453125
 30
0.0
 11
18594.006
 21
5570.14453125
 31
0.0
  0
LINE
  8
0
 62
0
 10
19494.0066299
 20
5570.14453125
 30
0.0
 11
19594.0082092
 21
5570.14453125
 31
0.0
  0
LINE
  8
0
 62
0
 10
18117.6324463
 20
6070.14453125
 30
0.0
 11
18117.6324463
 21
5570.14453125
 31
0.0
  0
LINE
  8
0
 62
0
 10
16594.0058594
 20
6070.14453125
 30
0.0
 11
18117.6324463
 21
6070.14453125
 31
0.0
  0
LINE
  8
0
 62
0
 10
16594.0058594
 20
5920.14453125
 30
0.0
 11
16594.0058594
 21
6070.14453125
 31
0.0
  0
LINE
  8
0
 62
0
 10
19594.0092468
 20
7849.99609375
 30
0.0
 11
19744.0092468
 21
7849.99609375
 31
0.0
  0
LINE
  8
0
 62
0
 10
19594.0092468
 20
7849.99609375
 30
0.0
 11
19594.0092468
 21
7100.04443359
 31
0.0
  0
LINE
  8
0
 62
0
 10
19744.0092468
 20
7849.99609375
 30
0.0
 11
19744.0092468
 21
7100.04443359
 31
0.0
  0
LINE
  8
0
 62
0
 10
19594.0092468
 20
7100.04443359
 30
0.0
 11
19744.0092468
 21
7100.04443359
 31
0.0
  0
LINE
  8
0
 62
0
 10
19594.0092468
 20
6400.04882813
 30
0.0
 11
19594.0092468
 21
3520.14453125
 31
0.0
  0
LINE
  8
0
 62
0
 10
19594.0092468
 20
6400.04882813
 30
0.0
 11
19744.0092468
 21
6400.04882813
 31
0.0
  0
LINE
  8
0
 62
0
 10
19744.0092468
 20
3520.14453125
 30
0.0
 11
19594.0092468
 21
3520.14453125
 31
0.0
  0
LINE
  8
0
 62
0
 10
19594.0092468
 20
2520.13969482
 30
0.0
 11
19594.0092468
 21
2420.14306641
 31
0.0
  0
LINE
  8
0
 62
0
 10
19594.0092468
 20
2520.13969482
 30
0.0
 11
19744.0092468
 21
2520.13969482
 31
0.0
  0
LINE
  8
0
 62
0
 10
19744.0092468
 20
2420.14306641
 30
0.0
 11
19594.0092468
 21
2420.14306641
 31
0.0
  0
LINE
  8
0
 62
0
 10
19744.0092468
 20
6400.04882813
 30
0.0
 11
19744.0092468
 21
3520.14453125
 31
0.0
  0
LINE
  8
0
 62
0
 10
19744.0092468
 20
2520.13969482
 30
0.0
 11
19744.0092468
 21
2420.14306641
 31
0.0
  0
LINE
  8
0
 62
0
 10
22294.0
 20
-2081.41552734
 30
0.0
 11
22294.0
 21
-2231.41552734
 31
0.0
  0
LINE
  8
0
 62
0
 10
20844.0013052
 20
-2081.41552734
 30
0.0
 11
22294.0
 21
-2081.41552734
 31
0.0
  0
LINE
  8
0
 62
0
 10
20844.0013052
 20
-2231.41552734
 30
0.0
 11
22294.0
 21
-2231.41552734
 31
0.0
  0
LINE
  8
0
 62
0
 10
19594.0109863
 20
-2081.41552734
 30
0.0
 11
19843.999939
 21
-2081.41552734
 31
0.0
  0
LINE
  8
0
 62
0
 10
19594.0109863
 20
-3140.70849609
 30
0.0
 11
19594.0109863
 21
-2081.41552734
 31
0.0
  0
LINE
  8
0
 62
0
 10
19843.999939
 20
-2231.41552734
 30
0.0
 11
19843.999939
 21
-2081.41552734
 31
0.0
  0
LINE
  8
0
 62
0
 10
20844.0013052
 20
-2231.41552734
 30
0.0
 11
20844.0013052
 21
-2081.41552734
 31
0.0
  0
LINE
  8
0
 62
0
 10
19744.0109863
 20
-2231.41552734
 30
0.0
 11
19843.999939
 21
-2231.41552734
 31
0.0
  0
LINE
  8
0
 62
0
 10
19744.0109863
 20
-3140.70849609
 30
0.0
 11
19744.0109863
 21
-2231.41552734
 31
0.0
  0
LINE
  8
0
 62
0
 10
19594.0109863
 20
-6000.00195312
 30
0.0
 11
19594.0109863
 21
-4940.70951172
 31
0.0
  0
LINE
  8
0
 62
0
 10
21244.0
 20
-6000.00195312
 30
0.0
 11
19594.0109863
 21
-6000.00195312
 31
0.0
  0
LINE
  8
0
 62
0
 10
19594.0109863
 20
-4940.70951172
 30
0.0
 11
19744.0109863
 21
-4940.70951172
 31
0.0
  0
LINE
  8
0
 62
0
 10
19744.0109863
 20
-3140.70849609
 30
0.0
 11
19594.0109863
 21
-3140.70849609
 31
0.0
  0
LINE
  8
0
 62
0
 10
19744.0109863
 20
-5850.00195312
 30
0.0
 11
19744.0109863
 21
-4940.70951172
 31
0.0
  0
LINE
  8
0
 62
0
 10
21244.0
 20
-5850.00195312
 30
0.0
 11
19744.0109863
 21
-5850.00195312
 31
0.0
  0
LINE
  8
0
 62
0
 10
21244.0
 20
-5850.00195312
 30
0.0
 11
21244.0
 21
-6000.00195312
 31
0.0
  0
LINE
  8
0
 62
0
 10
19744.0097656
 20
4420.13916016
 30
0.0
 11
19744.0097656
 21
4570.13916016
 31
0.0
  0
LINE
  8
0
 62
0
 10
19844.0140381
 20
4420.13916016
 30
0.0
 11
19744.0097656
 21
4420.13916016
 31
0.0
  0
LINE
  8
0
 62
0
 10
19844.0140381
 20
4570.13916016
 30
0.0
 11
19744.0097656
 21
4570.13916016
 31
0.0
  0
LINE
  8
0
 62
0
 10
22293.9992676
 20
4570.13916016
 30
0.0
 11
22293.9992676
 21
4420.13916016
 31
0.0
  0
LINE
  8
0
 62
0
 10
22293.9992676
 20
4570.13916016
 30
0.0
 11
20644.02
 21
4570.13916016
 31
0.0
  0
LINE
  8
0
 62
0
 10
22293.9992676
 20
4420.13916016
 30
0.0
 11
20644.02
 21
4420.13916016
 31
0.0
  0
LINE
  8
0
 62
0
 10
20644.02
 20
4570.13916016
 30
0.0
 11
20644.02
 21
4420.13916016
 31
0.0
  0
LINE
  8
0
 62
0
 10
19844.0140381
 20
4570.13916016
 30
0.0
 11
19844.0140381
 21
4420.13916016
 31
0.0
  0
LINE
  8
0
 62
0
 10
22444.0078125
 20
-6000.0
 30
0.0
 11
22444.0078125
 21
-2081.41040039
 31
0.0
  0
LINE
  8
0
 62
0
 10
22444.0078125
 20
-6000.0
 30
0.0
 11
22294.0078125
 21
-6000.0
 31
0.0
  0
LINE
  8
0
 62
0
 10
22444.0078125
 20
-2081.41040039
 30
0.0
 11
22294.0078125
 21
-2081.41040039
 31
0.0
  0
LINE
  8
0
 62
0
 10
22294.0078125
 20
-6000.0
 30
0.0
 11
22294.0078125
 21
-2081.41040039
 31
0.0
  0
LINE
  8
0
 62
0
 10
16444.0078125
 20
-2081.41111537
 30
0.0
 11
16444.0075684
 21
-6000.00097656
 31
0.0
  0
LINE
  8
0
 62
0
 10
16594.0078125
 20
-2081.41111537
 30
0.0
 11
16444.0078125
 21
-2081.41111537
 31
0.0
  0
LINE
  8
0
 62
0
 10
16444.0075684
 20
-6000.00097656
 30
0.0
 11
16594.0075684
 21
-6000.00097656
 31
0.0
  0
LINE
  8
0
 62
0
 10
16594.0075684
 20
-6000.00097656
 30
0.0
 11
16594.0078125
 21
-2081.41111537
 31
0.0
  0
LINE
  8
0
 62
0
 10
16444.0073242
 20
-1281.41186523
 30
0.0
 11
16444.0073242
 21
-2081.41113281
 31
0.0
  0
LINE
  8
0
 62
0
 10
16594.0075684
 20
-1281.41186523
 30
0.0
 11
16444.0073242
 21
-1281.41186523
 31
0.0
  0
LINE
  8
0
 62
0
 10
16444.0073242
 20
-2081.41113281
 30
0.0
 11
16594.0075684
 21
-2081.41113281
 31
0.0
  0
LINE
  8
0
 62
0
 10
16594.0075684
 20
-1281.41186523
 30
0.0
 11
16594.0075684
 21
-2081.41113281
 31
0.0
  0
LINE
  8
0
 62
0
 10
22444.0078125
 20
2420.13745117
 30
0.0
 11
22444.0078125
 21
4570.13769531
 31
0.0
  0
LINE
  8
0
 62
0
 10
22444.0078125
 20
2420.13745117
 30
0.0
 11
22294.0078125
 21
2420.13745117
 31
0.0
  0
LINE
  8
0
 62
0
 10
22444.0078125
 20
4570.13769531
 30
0.0
 11
22294.0078125
 21
4570.13769531
 31
0.0
  0
LINE
  8
0
 62
0
 10
22294.0078125
 20
2420.13745117
 30
0.0
 11
22294.0078125
 21
4570.13769531
 31
0.0
  0
LINE
  8
0
 62
0
 10
22444.0075684
 20
4570.13867188
 30
0.0
 11
22444.0075684
 21
6070.14013672
 31
0.0
  0
LINE
  8
0
 62
0
 10
22444.0075684
 20
4570.13867188
 30
0.0
 11
22294.0075684
 21
4570.13867188
 31
0.0
  0
LINE
  8
0
 62
0
 10
22444.0075684
 20
6070.14013672
 30
0.0
 11
22294.0075684
 21
6070.14013672
 31
0.0
  0
LINE
  8
0
 62
0
 10
22294.0075684
 20
4570.13867188
 30
0.0
 11
22294.0075684
 21
6070.14013672
 31
0.0
  0
LINE
  8
0
 62
0
 10
16444.0073242
 20
2420.13671875
 30
0.0
 11
16444.0073242
 21
1470.14331055
 31
0.0
  0
LINE
  8
0
 62
0
 10
16594.0075684
 20
2420.13671875
 30
0.0
 11
16444.0073242
 21
2420.13671875
 31
0.0
  0
LINE
  8
0
 62
0
 10
16444.0073242
 20
1470.14331055
 30
0.0
 11
16594.0075684
 21
1470.14331055
 31
0.0
  0
LINE
  8
0
 62
0
 10
16594.0075684
 20
2420.13671875
 30
0.0
 11
16594.0075684
 21
1470.14331055
 31
0.0
  0
LINE
  8
0
 62
0
 10
18247.3828125
 20
2270.14282227
 30
0.0
 11
18247.3828125
 21
2420.14282227
 31
0.0
  0
LINE
  8
0
 62
0
 10
17594.0106201
 20
2270.14291875
 30
0.0
 11
18247.3828125
 21
2270.14282227
 31
0.0
  0
LINE
  8
0
 62
0
 10
18247.3828125
 20
2420.14282227
 30
0.0
 11
17594.0106201
 21
2420.14282227
 31
0.0
  0
LINE
  8
0
 62
0
 10
17594.0106201
 20
2420.14282227
 30
0.0
 11
17594.0106201
 21
2270.14291875
 31
0.0
  0
LINE
  8
0
 62
0
 10
22294.0
 20
-2081.41552734
 30
0.0
 11
22294.0
 21
-2231.41552734
 31
0.0
  0
LINE
  8
0
 62
0
 10
20844.0013052
 20
-2081.41552734
 30
0.0
 11
22294.0
 21
-2081.41552734
 31
0.0
  0
LINE
  8
0
 62
0
 10
20844.0013052
 20
-2231.41552734
 30
0.0
 11
22294.0
 21
-2231.41552734
 31
0.0
  0
LINE
  8
0
 62
0
 10
19594.0109863
 20
-2081.41552734
 30
0.0
 11
19843.999939
 21
-2081.41552734
 31
0.0
  0
LINE
  8
0
 62
0
 10
19594.0109863
 20
-3140.70849609
 30
0.0
 11
19594.0109863
 21
-2081.41552734
 31
0.0
  0
LINE
  8
0
 62
0
 10
19843.999939
 20
-2231.41552734
 30
0.0
 11
19843.999939
 21
-2081.41552734
 31
0.0
  0
LINE
  8
0
 62
0
 10
20844.0013052
 20
-2231.41552734
 30
0.0
 11
20844.0013052
 21
-2081.41552734
 31
0.0
  0
LINE
  8
0
 62
0
 10
19744.0109863
 20
-2231.41552734
 30
0.0
 11
19843.999939
 21
-2231.41552734
 31
0.0
  0
LINE
  8
0
 62
0
 10
19744.0109863
 20
-3140.70849609
 30
0.0
 11
19744.0109863
 21
-2231.41552734
 31
0.0
  0
LINE
  8
0
 62
0
 10
19594.0109863
 20
-6000.00195312
 30
0.0
 11
19594.0109863
 21
-4940.70951172
 31
0.0
  0
LINE
  8
0
 62
0
 10
21244.0
 20
-6000.00195312
 30
0.0
 11
19594.0109863
 21
-6000.00195312
 31
0.0
  0
LINE
  8
0
 62
0
 10
19594.0109863
 20
-4940.70951172
 30
0.0
 11
19744.0109863
 21
-4940.70951172
 31
0.0
  0
LINE
  8
0
 62
0
 10
19744.0109863
 20
-3140.70849609
 30
0.0
 11
19594.0109863
 21
-3140.70849609
 31
0.0
  0
LINE
  8
0
 62
0
 10
19744.0109863
 20
-5850.00195312
 30
0.0
 11
19744.0109863
 21
-4940.70951172
 31
0.0
  0
LINE
  8
0
 62
0
 10
21244.0
 20
-5850.00195312
 30
0.0
 11
19744.0109863
 21
-5850.00195312
 31
0.0
  0
LINE
  8
0
 62
0
 10
21244.0
 20
-5850.00195312
 30
0.0
 11
21244.0
 21
-6000.00195312
 31
0.0
  0
LINE
  8
0
 62
0
 10
17194.0117188
 20
6350.00097656
 30
0.0
 11
17194.0117188
 21
6070.14453125
 31
0.0
  0
LINE
  8
0
 62
0
 10
17194.0117188
 20
6350.00097656
 30
0.0
 11
17544.0133057
 21
6350.00048828
 31
0.0
  0
LINE
  8
0
 62
0
 10
18567.6292725
 20
6070.14453125
 30
0.0
 11
17194.0117188
 21
6070.14453125
 31
0.0
  0
LINE
  8
0
 62
0
 10
17094.0117188
 20
6070.14453125
 30
0.0
 11
17094.0117188
 21
6450.00097656
 31
0.0
  0
LINE
  8
0
 62
0
 10
17094.0117188
 20
6070.14453125
 30
0.0
 11
16594.0058594
 21
6070.14453125
 31
0.0
  0
LINE
  8
0
 62
0
 10
17094.0117188
 20
6450.00097656
 30
0.0
 11
17544.0133057
 21
6450.00048828
 31
0.0
  0
LINE
  8
0
 62
0
 10
17544.0133057
 20
6450.00048828
 30
0.0
 11
17544.0133057
 21
6350.00048828
 31
0.0
  0
LINE
  8
0
 62
0
 10
18567.6292725
 20
6070.14453125
 30
0.0
 11
18567.6292725
 21
5970.14453125
 31
0.0
  0
LINE
  8
0
 62
0
 10
18567.6292725
 20
5970.14453125
 30
0.0
 11
18117.6324463
 21
5970.14453125
 31
0.0
  0
LINE
  8
0
 62
0
 10
18117.6324463
 20
5970.14453125
 30
0.0
 11
18117.6324463
 21
5570.14453125
 31
0.0
  0
LINE
  8
0
 62
0
 10
18117.6324463
 20
5570.14453125
 30
0.0
 11
18594.006
 21
5570.14453125
 31
0.0
  0
LINE
  8
0
 62
0
 10
18594.006
 20
5570.14453125
 30
0.0
 11
18594.006
 21
5420.14453125
 31
0.0
  0
LINE
  8
0
 62
0
 10
19494.0066299
 20
5570.14453125
 30
0.0
 11
19594.0082092
 21
5570.14453125
 31
0.0
  0
LINE
  8
0
 62
0
 10
19494.0066299
 20
5570.14453125
 30
0.0
 11
19494.0066299
 21
5420.14453125
 31
0.0
  0
LINE
  8
0
 62
0
 10
19594.0082092
 20
5570.14453125
 30
0.0
 11
19594.0082092
 21
5420.14453125
 31
0.0
  0
LINE
  8
0
 62
0
 10
17967.6325684
 20
5420.14453125
 30
0.0
 11
18594.006
 21
5420.14453125
 31
0.0
  0
LINE
  8
0
 62
0
 10
17967.6325684
 20
5420.14453125
 30
0.0
 11
17967.6325684
 21
5920.14453125
 31
0.0
  0
LINE
  8
0
 62
0
 10
19494.0066299
 20
5420.14453125
 30
0.0
 11
19594.0082092
 21
5420.14453125
 31
0.0
  0
LINE
  8
0
 62
0
 10
17967.6325684
 20
5920.14453125
 30
0.0
 11
16594.0058594
 21
5920.14453125
 31
0.0
  0
LINE
  8
0
 62
0
 10
16594.0058594
 20
5920.14453125
 30
0.0
 11
16594.0058594
 21
6070.14453125
 31
0.0
  0
LINE
  8
0
 62
0
 10
19594.0092468
 20
7849.99609375
 30
0.0
 11
19744.0092468
 21
7849.99609375
 31
0.0
  0
LINE
  8
0
 62
0
 10
19594.0092468
 20
7849.99609375
 30
0.0
 11
19594.0092468
 21
7100.04443359
 31
0.0
  0
LINE
  8
0
 62
0
 10
19744.0092468
 20
7849.99609375
 30
0.0
 11
19744.0092468
 21
7100.04443359
 31
0.0
  0
LINE
  8
0
 62
0
 10
19594.0092468
 20
7100.04443359
 30
0.0
 11
19744.0092468
 21
7100.04443359
 31
0.0
  0
LINE
  8
0
 62
0
 10
19594.0092468
 20
6400.04882813
 30
0.0
 11
19594.0092468
 21
3520.14453125
 31
0.0
  0
LINE
  8
0
 62
0
 10
19594.0092468
 20
6400.04882813
 30
0.0
 11
19744.0092468
 21
6400.04882813
 31
0.0
  0
LINE
  8
0
 62
0
 10
19744.0092468
 20
3520.14453125
 30
0.0
 11
19594.0092468
 21
3520.14453125
 31
0.0
  0
LINE
  8
0
 62
0
 10
19594.0092468
 20
2520.13969482
 30
0.0
 11
19594.0092468
 21
2420.14306641
 31
0.0
  0
LINE
  8
0
 62
0
 10
19594.0092468
 20
2520.13969482
 30
0.0
 11
19744.0092468
 21
2520.13969482
 31
0.0
  0
LINE
  8
0
 62
0
 10
19744.0092468
 20
2420.14306641
 30
0.0
 11
19594.0092468
 21
2420.14306641
 31
0.0
  0
LINE
  8
0
 62
0
 10
19744.0092468
 20
6400.04882813
 30
0.0
 11
19744.0092468
 21
3520.14453125
 31
0.0
  0
LINE
  8
0
 62
0
 10
19744.0092468
 20
2520.13969482
 30
0.0
 11
19744.0092468
 21
2420.14306641
 31
0.0
  0
LINE
  8
0
 62
0
 10
20944.0015869
 20
3920.13916016
 30
0.0
 11
21094.0015869
 21
3920.13916016
 31
0.0
  0
LINE
  8
0
 62
0
 10
20944.0015869
 20
3920.13916016
 30
0.0
 11
20944.0015869
 21
4420.13916016
 31
0.0
  0
LINE
  8
0
 62
0
 10
21094.0015869
 20
3920.13916016
 30
0.0
 11
21094.0015869
 21
4420.13916016
 31
0.0
  0
LINE
  8
0
 62
0
 10
20944.0015869
 20
4420.13916016
 30
0.0
 11
20644.02
 21
4420.13916016
 31
0.0
  0
LINE
  8
0
 62
0
 10
22293.9992676
 20
4420.13916016
 30
0.0
 11
21094.0015869
 21
4420.13916016
 31
0.0
  0
LINE
  8
0
 62
0
 10
20644.02
 20
4570.13916016
 30
0.0
 11
20644.02
 21
4420.13916016
 31
0.0
  0
LINE
  8
0
 62
0
 10
19844.0140381
 20
4420.13916016
 30
0.0
 11
19744.0097656
 21
4420.13916016
 31
0.0
  0
LINE
  8
0
 62
0
 10
19844.0140381
 20
4570.13916016
 30
0.0
 11
19844.0140381
 21
4420.13916016
 31
0.0
  0
LINE
  8
0
 62
0
 10
19744.0097656
 20
4420.13916016
 30
0.0
 11
19744.0097656
 21
4570.13916016
 31
0.0
  0
LINE
  8
0
 62
0
 10
22293.9992676
 20
4570.13916016
 30
0.0
 11
22293.9992676
 21
4420.13916016
 31
0.0
  0
LINE
  8
0
 62
0
 10
22293.9992676
 20
4570.13916016
 30
0.0
 11
20644.02
 21
4570.13916016
 31
0.0
  0
LINE
  8
0
 62
0
 10
19844.0140381
 20
4570.13916016
 30
0.0
 11
19744.0097656
 21
4570.13916016
 31
0.0
  0
LINE
  8
0
 62
0
 10
19719.0102234
 20
-229.858944001
 30
0.0
 11
19619.0114899
 21
-229.858898222
 31
0.0
  0
LINE
  8
0
 62
0
 10
19719.0102005
 20
-279.856014313
 30
0.0
 11
19719.0102234
 21
-229.858944001
 31
0.0
  0
LINE
  8
0
 62
0
 10
19619.011467
 20
-279.855968535
 30
0.0
 11
19619.0114899
 21
-229.858898222
 31
0.0
  0
LINE
  8
0
 62
0
 10
19619.011467
 20
-279.855968535
 30
0.0
 11
19719.0102005
 21
-279.856014313
 31
0.0
  0
LINE
  8
0
 62
0
 10
19719.010086
 20
-1130.63177115
 30
0.0
 11
19619.0113526
 21
-1130.63172537
 31
0.0
  0
LINE
  8
0
 62
0
 10
19719.0100631
 20
-1180.62884146
 30
0.0
 11
19719.010086
 21
-1130.63177115
 31
0.0
  0
LINE
  8
0
 62
0
 10
19619.0113297
 20
-1180.62879568
 30
0.0
 11
19619.0113526
 21
-1130.63172537
 31
0.0
  0
LINE
  8
0
 62
0
 10
19619.0113297
 20
-1180.62879568
 30
0.0
 11
19719.0100631
 21
-1180.62884146
 31
0.0
  0
LINE
  8
0
 62
0
 10
19719.0099487
 20
-2031.41399771
 30
0.0
 11
19619.0112152
 21
-2031.41395193
 31
0.0
  0
LINE
  8
0
 62
0
 10
19719.0099258
 20
-2081.41106802
 30
0.0
 11
19719.0099487
 21
-2031.41399771
 31
0.0
  0
LINE
  8
0
 62
0
 10
19619.0111924
 20
-2081.41102224
 30
0.0
 11
19619.0112152
 21
-2031.41395193
 31
0.0
  0
LINE
  8
0
 62
0
 10
19619.0111924
 20
-2081.41102224
 30
0.0
 11
19719.0099258
 21
-2081.41106802
 31
0.0
  0
LINE
  8
0
 62
0
 10
18272.3843994
 20
2270.14453125
 30
0.0
 11
18372.3843994
 21
2270.14453125
 31
0.0
  0
LINE
  8
0
 62
0
 10
18272.3843994
 20
2270.14453125
 30
0.0
 11
18272.3843994
 21
2220.14746094
 31
0.0
  0
LINE
  8
0
 62
0
 10
18372.3843994
 20
2270.14453125
 30
0.0
 11
18372.3843994
 21
2220.14746094
 31
0.0
  0
LINE
  8
0
 62
0
 10
18372.3843994
 20
-79.86068726
 30
0.0
 11
18272.3843994
 21
-79.86068726
 31
0.0
  0
LINE
  8
0
 62
0
 10
18372.3843994
 20
-29.866455078
 30
0.0
 11
18372.3843994
 21
-79.86068726
 31
0.0
  0
LINE
  8
0
 62
0
 10
18272.3843994
 20
-29.866455078
 30
0.0
 11
18272.3843994
 21
-79.86068726
 31
0.0
  0
LINE
  8
0
 62
0
 10
18272.3843994
 20
532.637390135
 30
0.0
 11
18372.3843994
 21
532.637390135
 31
0.0
  0
LINE
  8
0
 62
0
 10
18272.3843994
 20
532.637390135
 30
0.0
 11
18272.3843994
 21
482.640258789
 31
0.0
  0
LINE
  8
0
 62
0
 10
18372.3843994
 20
532.637390135
 30
0.0
 11
18372.3843994
 21
482.640258789
 31
0.0
  0
LINE
  8
0
 62
0
 10
18372.3843994
 20
1070.1451416
 30
0.0
 11
18272.3843994
 21
1070.1451416
 31
0.0
  0
LINE
  8
0
 62
0
 10
18372.3843994
 20
1120.13769532
 30
0.0
 11
18372.3843994
 21
1070.1451416
 31
0.0
  0
LINE
  8
0
 62
0
 10
18272.3843994
 20
1120.13769532
 30
0.0
 11
18272.3843994
 21
1070.1451416
 31
0.0
  0
LINE
  8
0
 62
0
 10
18272.3843994
 20
1120.13769532
 30
0.0
 11
18372.3843994
 21
1120.13769532
 31
0.0
  0
LINE
  8
0
 62
0
 10
18372.3843994
 20
1657.64355469
 30
0.0
 11
18272.3843994
 21
1657.64355469
 31
0.0
  0
LINE
  8
0
 62
0
 10
18372.3843994
 20
1707.640625
 30
0.0
 11
18372.3843994
 21
1657.64355469
 31
0.0
  0
LINE
  8
0
 62
0
 10
18272.3843994
 20
1707.640625
 30
0.0
 11
18272.3843994
 21
1657.64355469
 31
0.0
  0
LINE
  8
0
 62
0
 10
18272.3843994
 20
1707.640625
 30
0.0
 11
18372.3843994
 21
1707.640625
 31
0.0
  0
LINE
  8
0
 62
0
 10
18372.3843994
 20
2220.14746094
 30
0.0
 11
18272.3843994
 21
2220.14746094
 31
0.0
  0
LINE
  8
0
 62
0
 10
18372.3843994
 20
482.640258789
 30
0.0
 11
18272.3843994
 21
482.640258789
 31
0.0
  0
LINE
  8
0
 62
0
 10
18272.3843994
 20
-29.866455078
 30
0.0
 11
18372.3843994
 21
-29.866455078
 31
0.0
  0
LINE
  8
0
 62
0
 10
18297.378418
 20
2220.14746094
 30
0.0
 11
18297.378418
 21
1707.640625
 31
0.0
  0
LINE
  8
0
 62
0
 10
18347.378418
 20
2220.14746094
 30
0.0
 11
18297.378418
 21
2220.14746094
 31
0.0
  0
LINE
  8
0
 62
0
 10
18347.378418
 20
1707.640625
 30
0.0
 11
18297.378418
 21
1707.640625
 31
0.0
  0
LINE
  8
0
 62
0
 10
18347.378418
 20
2220.14746094
 30
0.0
 11
18347.378418
 21
1707.640625
 31
0.0
  0
LINE
  8
0
 62
0
 10
18297.378418
 20
482.64050293
 30
0.0
 11
18297.378418
 21
-29.8662109375
 31
0.0
  0
LINE
  8
0
 62
0
 10
18347.378418
 20
482.64050293
 30
0.0
 11
18297.378418
 21
482.64050293
 31
0.0
  0
LINE
  8
0
 62
0
 10
18347.378418
 20
-29.8662109375
 30
0.0
 11
18297.378418
 21
-29.8662109375
 31
0.0
  0
LINE
  8
0
 62
0
 10
18347.378418
 20
482.64050293
 30
0.0
 11
18347.378418
 21
-29.8662109375
 31
0.0
  0
LINE
  8
0
 62
0
 10
18297.378418
 20
1657.64355469
 30
0.0
 11
18297.378418
 21
1120.13916016
 31
0.0
  0
LINE
  8
0
 62
0
 10
18347.378418
 20
1657.64355469
 30
0.0
 11
18297.378418
 21
1657.64355469
 31
0.0
  0
LINE
  8
0
 62
0
 10
18347.378418
 20
1120.13916016
 30
0.0
 11
18297.378418
 21
1120.13916016
 31
0.0
  0
LINE
  8
0
 62
0
 10
18347.378418
 20
1657.64355469
 30
0.0
 11
18347.378418
 21
1120.13916016
 31
0.0
  0
LINE
  8
0
 62
0
 10
18297.378418
 20
1070.1451416
 30
0.0
 11
18297.378418
 21
532.637573242
 31
0.0
  0
LINE
  8
0
 62
0
 10
18347.378418
 20
1070.1451416
 30
0.0
 11
18297.378418
 21
1070.1451416
 31
0.0
  0
LINE
  8
0
 62
0
 10
18347.378418
 20
532.637573242
 30
0.0
 11
18297.378418
 21
532.637573242
 31
0.0
  0
LINE
  8
0
 62
0
 10
18347.378418
 20
1070.1451416
 30
0.0
 11
18347.378418
 21
532.637573242
 31
0.0
  0
LINE
  8
0
 62
0
 10
19744.0106812
 20
-79.8606872559
 30
0.0
 11
18247.3828125
 21
-79.8606872559
 31
0.0
  0
LINE
  8
0
 62
0
 10
19744.0106812
 20
-79.8606872559
 30
0.0
 11
19744.0106812
 21
-229.860671997
 31
0.0
  0
LINE
  8
0
 62
0
 10
18247.3828125
 20
-79.8606872559
 30
0.0
 11
18247.3828125
 21
-229.860671997
 31
0.0
  0
LINE
  8
0
 62
0
 10
19744.0106812
 20
-229.860671997
 30
0.0
 11
18247.3828125
 21
-229.860671997
 31
0.0
  0
LINE
  8
0
 62
0
 10
19744.0106812
 20
2420.13745117
 30
0.0
 11
18247.3828125
 21
2420.13745117
 31
0.0
  0
LINE
  8
0
 62
0
 10
19744.0106812
 20
2420.13745117
 30
0.0
 11
19744.0106812
 21
2270.13745117
 31
0.0
  0
LINE
  8
0
 62
0
 10
18247.3828125
 20
2420.13745117
 30
0.0
 11
18247.3828125
 21
2270.13745117
 31
0.0
  0
LINE
  8
0
 62
0
 10
19744.0106812
 20
2270.13745117
 30
0.0
 11
18247.3828125
 21
2270.13745117
 31
0.0
  0
LINE
  8
0
 62
0
 10
19709.7973785
 20
-3220.70532227
 30
0.0
 11
19709.7974091
 21
-3960.70525683
 31
0.0
  0
LINE
  8
0
 62
0
 10
19709.7973785
 20
-3220.70532227
 30
0.0
 11
19689.7973785
 21
-3220.70532227
 31
0.0
  0
LINE
  8
0
 62
0
 10
19709.7974091
 20
-3960.70525683
 30
0.0
 11
19689.7974091
 21
-3960.70525683
 31
0.0
  0
LINE
  8
0
 62
0
 10
19689.7974091
 20
-3960.70525683
 30
0.0
 11
19689.7973785
 21
-3220.70532227
 31
0.0
  0
LINE
  8
0
 62
0
 10
19659.7973785
 20
-4120.70532227
 30
0.0
 11
19659.7974091
 21
-4860.70525683
 31
0.0
  0
LINE
  8
0
 62
0
 10
19659.7973785
 20
-4120.70532227
 30
0.0
 11
19639.7973785
 21
-4120.70532227
 31
0.0
  0
LINE
  8
0
 62
0
 10
19659.7974091
 20
-4860.70525683
 30
0.0
 11
19639.7974091
 21
-4860.70525683
 31
0.0
  0
LINE
  8
0
 62
0
 10
19639.7974091
 20
-4860.70525683
 30
0.0
 11
19639.7973785
 21
-4120.70532227
 31
0.0
  0
LINE
  8
0
 62
0
 10
18594.0062828
 20
5570.14501953
 30
0.0
 11
18644.0062828
 21
5570.14501953
 31
0.0
  0
LINE
  8
0
 62
0
 10
18594.0062828
 20
5420.14501953
 30
0.0
 11
18594.0062828
 21
5570.14501953
 31
0.0
  0
LINE
  8
0
 62
0
 10
18644.0062828
 20
5570.14501953
 30
0.0
 11
18644.0062828
 21
5420.14501953
 31
0.0
  0
LINE
  8
0
 62
0
 10
19444.006649
 20
5570.14501953
 30
0.0
 11
19494.006649
 21
5570.14501953
 31
0.0
  0
LINE
  8
0
 62
0
 10
19444.006649
 20
5420.14501953
 30
0.0
 11
19444.006649
 21
5570.14501953
 31
0.0
  0
LINE
  8
0
 62
0
 10
19494.006649
 20
5420.14501953
 30
0.0
 11
19494.006649
 21
5570.14501953
 31
0.0
  0
LINE
  8
0
 62
0
 10
18644.0062828
 20
5420.14501953
 30
0.0
 11
18594.0062828
 21
5420.14501953
 31
0.0
  0
LINE
  8
0
 62
0
 10
19494.006649
 20
5420.14501953
 30
0.0
 11
19444.006649
 21
5420.14501953
 31
0.0
  0
LINE
  8
0
 62
0
 10
20594.0167236
 20
4420.13916015
 30
0.0
 11
20594.0167236
 21
4570.13964844
 31
0.0
  0
LINE
  8
0
 62
0
 10
20644.0167236
 20
4420.13916015
 30
0.0
 11
20594.0167236
 21
4420.13916015
 31
0.0
  0
LINE
  8
0
 62
0
 10
20644.0167236
 20
4570.13964844
 30
0.0
 11
20594.0167236
 21
4570.13964844
 31
0.0
  0
LINE
  8
0
 62
0
 10
19894.0168457
 20
4570.13964844
 30
0.0
 11
19894.0168457
 21
4420.13916015
 31
0.0
  0
LINE
  8
0
 62
0
 10
19894.0168457
 20
4570.13964844
 30
0.0
 11
19844.0168457
 21
4570.13964844
 31
0.0
  0
LINE
  8
0
 62
0
 10
19894.0168457
 20
4420.13916015
 30
0.0
 11
19844.0168457
 21
4420.13916015
 31
0.0
  0
LINE
  8
0
 62
0
 10
19844.0168457
 20
4420.13916015
 30
0.0
 11
19844.0168457
 21
4570.13964844
 31
0.0
  0
LINE
  8
0
 62
0
 10
20644.0167236
 20
4570.13964844
 30
0.0
 11
20644.0167236
 21
4420.13916015
 31
0.0
  0
LINE
  8
0
 62
0
 10
19594.0088501
 20
2520.14447021
 30
0.0
 11
19594.0088501
 21
2570.14447021
 31
0.0
  0
LINE
  8
0
 62
0
 10
19744.0088501
 20
2520.14447021
 30
0.0
 11
19594.0088501
 21
2520.14447021
 31
0.0
  0
LINE
  8
0
 62
0
 10
19594.0088501
 20
2570.14447021
 30
0.0
 11
19744.0088501
 21
2570.14447021
 31
0.0
  0
LINE
  8
0
 62
0
 10
19594.0088501
 20
3470.14477539
 30
0.0
 11
19594.0088501
 21
3520.14477539
 31
0.0
  0
LINE
  8
0
 62
0
 10
19744.0088501
 20
3470.14477539
 30
0.0
 11
19594.0088501
 21
3470.14477539
 31
0.0
  0
LINE
  8
0
 62
0
 10
19744.0088501
 20
3520.14477539
 30
0.0
 11
19594.0088501
 21
3520.14477539
 31
0.0
  0
LINE
  8
0
 62
0
 10
19744.0088501
 20
2570.14447021
 30
0.0
 11
19744.0088501
 21
2520.14447021
 31
0.0
  0
LINE
  8
0
 62
0
 10
19744.0088501
 20
3520.14477539
 30
0.0
 11
19744.0088501
 21
3470.14477539
 31
0.0
  0
LINE
  8
0
 62
0
 10
19844.0005493
 20
-2081.41015625
 30
0.0
 11
19894.0005493
 21
-2081.41015625
 31
0.0
  0
LINE
  8
0
 62
0
 10
19844.0005493
 20
-2231.41015625
 30
0.0
 11
19844.0005493
 21
-2081.41015625
 31
0.0
  0
LINE
  8
0
 62
0
 10
19894.0005493
 20
-2081.41015625
 30
0.0
 11
19894.0005493
 21
-2231.41015625
 31
0.0
  0
LINE
  8
0
 62
0
 10
20794.0008545
 20
-2081.41015625
 30
0.0
 11
20844.0008545
 21
-2081.41015625
 31
0.0
  0
LINE
  8
0
 62
0
 10
20794.0008545
 20
-2231.41015625
 30
0.0
 11
20794.0008545
 21
-2081.41015625
 31
0.0
  0
LINE
  8
0
 62
0
 10
20844.0008545
 20
-2231.41015625
 30
0.0
 11
20844.0008545
 21
-2081.41015625
 31
0.0
  0
LINE
  8
0
 62
0
 10
19894.0005493
 20
-2231.41015625
 30
0.0
 11
19844.0005493
 21
-2231.41015625
 31
0.0
  0
LINE
  8
0
 62
0
 10
20844.0008545
 20
-2231.41015625
 30
0.0
 11
20794.0008545
 21
-2231.41015625
 31
0.0
  0
LINE
  8
0
 62
0
 10
19594.0109863
 20
-4940.70800781
 30
0.0
 11
19594.0109863
 21
-4890.70800781
 31
0.0
  0
LINE
  8
0
 62
0
 10
19744.0109863
 20
-4940.70800781
 30
0.0
 11
19594.0109863
 21
-4940.70800781
 31
0.0
  0
LINE
  8
0
 62
0
 10
19594.0109863
 20
-4890.70800781
 30
0.0
 11
19744.0109863
 21
-4890.70800781
 31
0.0
  0
LINE
  8
0
 62
0
 10
19594.0109863
 20
-3190.70849609
 30
0.0
 11
19594.0109863
 21
-3140.70849609
 31
0.0
  0
LINE
  8
0
 62
0
 10
19744.0109863
 20
-3190.70849609
 30
0.0
 11
19594.0109863
 21
-3190.70849609
 31
0.0
  0
LINE
  8
0
 62
0
 10
19744.0109863
 20
-3140.70849609
 30
0.0
 11
19594.0109863
 21
-3140.70849609
 31
0.0
  0
LINE
  8
0
 62
0
 10
19744.0109863
 20
-3140.70849609
 30
0.0
 11
19744.0109863
 21
-3190.70849609
 31
0.0
  0
LINE
  8
0
 62
0
 10
19744.0109863
 20
-4890.70800781
 30
0.0
 11
19744.0109863
 21
-4940.70800781
 31
0.0
  0
LINE
  8
0
 62
0
 10
19444.005708
 20
6370.14501953
 30
0.0
 11
19444.00675
 21
5570.14501953
 31
0.0
  0
LINE
  8
0
 62
0
 10
19444.005708
 20
6370.14501953
 30
0.0
 11
19394.005703
 21
6370.14453125
 31
0.0
  0
LINE
  8
0
 62
0
 10
19444.00675
 20
5570.14501953
 30
0.0
 11
19394.0067444
 21
5570.14453125
 31
0.0
  0
LINE
  8
0
 62
0
 10
19394.0067444
 20
5570.14453125
 30
0.0
 11
19394.005703
 21
6370.14453125
 31
0.0
  0
LINE
  8
0
 62
0
 10
19894.0168457
 20
4570.13916016
 30
0.0
 11
19894.0159607
 21
5270.13916016
 31
0.0
  0
LINE
  8
0
 62
0
 10
19894.0168457
 20
4570.13916016
 30
0.0
 11
19944.0168762
 21
4570.13964844
 31
0.0
  0
LINE
  8
0
 62
0
 10
19894.0159607
 20
5270.13916016
 30
0.0
 11
19944.0159607
 21
5270.13964844
 31
0.0
  0
LINE
  8
0
 62
0
 10
19944.0168762
 20
4570.13964844
 30
0.0
 11
19944.0159607
 21
5270.13964844
 31
0.0
  0
LINE
  8
0
 62
0
 10
19594.0088501
 20
2570.14453125
 30
0.0
 11
18694.0089111
 21
2570.14331055
 31
0.0
  0
LINE
  8
0
 62
0
 10
19594.0088501
 20
2570.14453125
 30
0.0
 11
19594.0087891
 21
2620.14453125
 31
0.0
  0
LINE
  8
0
 62
0
 10
18694.0088501
 20
2620.14331055
 30
0.0
 11
18694.0089111
 21
2570.14331055
 31
0.0
  0
LINE
  8
0
 62
0
 10
18694.0088501
 20
2620.14331055
 30
0.0
 11
19594.0087891
 21
2620.14453125
 31
0.0
  0
LINE
  8
0
 62
0
 10
19894.0016174
 20
-3131.41137695
 30
0.0
 11
19894.0010376
 21
-2231.41137695
 31
0.0
  0
LINE
  8
0
 62
0
 10
19944.0016174
 20
-3131.41113281
 30
0.0
 11
19894.0016174
 21
-3131.41137695
 31
0.0
  0
LINE
  8
0
 62
0
 10
19894.0010376
 20
-2231.41137695
 30
0.0
 11
19944.0010376
 21
-2231.41137695
 31
0.0
  0
LINE
  8
0
 62
0
 10
19944.0016174
 20
-3131.41113281
 30
0.0
 11
19944.0010376
 21
-2231.41137695
 31
0.0
  0
LINE
  8
0
 62
0
 10
19671.3624268
 20
-4890.70800781
 30
0.0
 11
19621.3624268
 21
-4890.70800781
 31
0.0
  0
LINE
  8
0
 62
0
 10
19671.3624268
 20
-4810.70800781
 30
0.0
 11
19671.3624268
 21
-4890.70800781
 31
0.0
  0
LINE
  8
0
 62
0
 10
19621.3624268
 20
-4810.70800781
 30
0.0
 11
19621.3624268
 21
-4890.70800781
 31
0.0
  0
LINE
  8
0
 62
0
 10
19621.3624268
 20
-4040.70849609
 30
0.0
 11
19671.3624268
 21
-4040.70849609
 31
0.0
  0
LINE
  8
0
 62
0
 10
19621.3624268
 20
-4040.70849609
 30
0.0
 11
19621.3624268
 21
-4120.70849609
 31
0.0
  0
LINE
  8
0
 62
0
 10
19671.3624268
 20
-4040.70849609
 30
0.0
 11
19671.3624268
 21
-4120.70849609
 31
0.0
  0
LINE
  8
0
 62
0
 10
19621.3624268
 20
-4120.70849609
 30
0.0
 11
19671.3624268
 21
-4120.70849609
 31
0.0
  0
LINE
  8
0
 62
0
 10
19671.3624268
 20
-4810.70800781
 30
0.0
 11
19621.3624268
 21
-4810.70800781
 31
0.0
  0
LINE
  8
0
 62
0
 10
19721.3623657
 20
-4040.70703125
 30
0.0
 11
19671.3623657
 21
-4040.70703125
 31
0.0
  0
LINE
  8
0
 62
0
 10
19721.3623657
 20
-3960.70703125
 30
0.0
 11
19721.3623657
 21
-4040.70703125
 31
0.0
  0
LINE
  8
0
 62
0
 10
19671.3623657
 20
-3960.70703125
 30
0.0
 11
19671.3623657
 21
-4040.70703125
 31
0.0
  0
LINE
  8
0
 62
0
 10
19671.3623657
 20
-3190.70751953
 30
0.0
 11
19721.3623657
 21
-3190.70751953
 31
0.0
  0
LINE
  8
0
 62
0
 10
19671.3623657
 20
-3190.70751953
 30
0.0
 11
19671.3623657
 21
-3270.70751953
 31
0.0
  0
LINE
  8
0
 62
0
 10
19721.3623657
 20
-3190.70751953
 30
0.0
 11
19721.3623657
 21
-3270.70751953
 31
0.0
  0
LINE
  8
0
 62
0
 10
19671.3623657
 20
-3270.70751953
 30
0.0
 11
19721.3623657
 21
-3270.70751953
 31
0.0
  0
LINE
  8
0
 62
0
 10
19721.3623657
 20
-3960.70703125
 30
0.0
 11
19671.3623657
 21
-3960.70703125
 31
0.0
  0
LINE
  8
0
 62
0
 10
19706.362915
 20
-3270.70843065
 30
0.0
 11
19706.3629761
 21
-3960.70379198
 31
0.0
  0
LINE
  8
0
 62
0
 10
19706.362915
 20
-3270.70843065
 30
0.0
 11
19686.3629303
 21
-3270.70843065
 31
0.0
  0
LINE
  8
0
 62
0
 10
19686.3629608
 20
-3960.70379198
 30
0.0
 11
19706.3629761
 21
-3960.70379198
 31
0.0
  0
LINE
  8
0
 62
0
 10
19686.3629303
 20
-3270.70843065
 30
0.0
 11
19686.3629608
 21
-3960.70379198
 31
0.0
  0
LINE
  8
0
 62
0
 10
19656.3553619
 20
-4120.70556641
 30
0.0
 11
19656.3553925
 21
-4810.70836521
 31
0.0
  0
LINE
  8
0
 62
0
 10
19656.3553619
 20
-4120.70556641
 30
0.0
 11
19636.3553619
 21
-4120.70556641
 31
0.0
  0
LINE
  8
0
 62
0
 10
19636.3553925
 20
-4810.70836521
 30
0.0
 11
19656.3553925
 21
-4810.70836521
 31
0.0
  0
LINE
  8
0
 62
0
 10
19636.3553619
 20
-4120.70556641
 30
0.0
 11
19636.3553925
 21
-4810.70836521
 31
0.0
  0
LINE
  8
0
 62
0
 10
20544.0107422
 20
8000.0
 30
0.0
 11
19744.0107422
 21
8000.0
 31
0.0
  0
LINE
  8
0
 62
0
 10
20544.0107422
 20
8000.0
 30
0.0
 11
20544.0107422
 21
7850.0
 31
0.0
  0
LINE
  8
0
 62
0
 10
19744.0107422
 20
8000.0
 30
0.0
 11
19744.0107422
 21
7850.0
 31
0.0
  0
LINE
  8
0
 62
0
 10
20544.0107422
 20
7850.0
 30
0.0
 11
19744.0107422
 21
7850.0
 31
0.0
  0
LINE
  8
0
 62
0
 10
16444.0073242
 20
-6000.00292969
 30
0.0
 11
16444.0073242
 21
-7999.99902344
 31
0.0
  0
LINE
  8
0
 62
0
 10
16594.0075684
 20
-6000.00292969
 30
0.0
 11
16444.0073242
 21
-6000.00292969
 31
0.0
  0
LINE
  8
0
 62
0
 10
16444.0073242
 20
-7999.99902344
 30
0.0
 11
16594.0075684
 21
-7999.99902344
 31
0.0
  0
LINE
  8
0
 62
0
 10
16594.0075684
 20
-6000.00292969
 30
0.0
 11
16594.0075684
 21
-7999.99902344
 31
0.0
  0
LINE
  8
0
 62
0
 10
22444.0078125
 20
-6000.0
 30
0.0
 11
22444.0078125
 21
-8000.00097656
 31
0.0
  0
LINE
  8
0
 62
0
 10
22444.0078125
 20
-6000.0
 30
0.0
 11
22294.0078125
 21
-6000.0
 31
0.0
  0
LINE
  8
0
 62
0
 10
22444.0078125
 20
-8000.00097656
 30
0.0
 11
22294.0078125
 21
-8000.00097656
 31
0.0
  0
LINE
  8
0
 62
0
 10
22294.0078125
 20
-8000.00097656
 30
0.0
 11
22294.0078125
 21
-6000.0
 31
0.0
  0
LINE
  8
0
 62
0
 10
22444.0078125
 20
2420.13745117
 30
0.0
 11
22444.0078125
 21
-2081.41040039
 31
0.0
  0
LINE
  8
0
 62
0
 10
22444.0078125
 20
2420.13745117
 30
0.0
 11
22294.0078125
 21
2420.13745117
 31
0.0
  0
LINE
  8
0
 62
0
 10
22444.0078125
 20
-2081.41040039
 30
0.0
 11
22294.0078125
 21
-2081.41040039
 31
0.0
  0
LINE
  8
0
 62
0
 10
22294.0078125
 20
-2081.41040039
 30
0.0
 11
22294.0078125
 21
2420.13745117
 31
0.0
  0
LINE
  8
0
 62
0
 10
16444.0078125
 20
8000.0
 30
0.0
 11
16444.0078125
 21
2420.13696289
 31
0.0
  0
LINE
  8
0
 62
0
 10
16444.0078125
 20
8000.0
 30
0.0
 11
19744.0107422
 21
8000.0
 31
0.0
  0
LINE
  8
0
 62
0
 10
16444.0078125
 20
2420.13696289
 30
0.0
 11
16594.0078125
 21
2420.13696289
 31
0.0
  0
LINE
  8
0
 62
0
 10
16594.0078125
 20
7850.0
 30
0.0
 11
16594.0078125
 21
2420.13696289
 31
0.0
  0
LINE
  8
0
 62
0
 10
19744.0107422
 20
8000.0
 30
0.0
 11
19744.0107422
 21
7850.0
 31
0.0
  0
LINE
  8
0
 62
0
 10
19744.0107422
 20
7850.0
 30
0.0
 11
16594.0078125
 21
7850.0
 31
0.0
  0
ENDBLK
  0
BLOCK
  8
0
  2
SHAPE2DVIEW003
 70
0
 10
0.0
 20
0.0
 30
0.0
  3
SHAPE2DVIEW003
  0
LINE
  8
0
 62
0
 10
17544.0109863
 20
6070.14550781
 30
0.0
 11
17194.0117188
 21
6070.14550781
 31
0.0
  0
LINE
  8
0
 62
0
 10
17544.0109863
 20
6350.00048828
 30
0.0
 11
17544.0109863
 21
6070.14550781
 31
0.0
  0
LINE
  8
0
 62
0
 10
22244.0041504
 20
-5975.00244141
 30
0.0
 11
22294.0043945
 21
-5975.00244141
 31
0.0
  0
LINE
  8
0
 62
0
 10
21294.0050049
 20
-5975.00244141
 30
0.0
 11
22244.0041504
 21
-5975.00244141
 31
0.0
  0
LINE
  8
0
 62
0
 10
21244.0050049
 20
-5975.00244141
 30
0.0
 11
21294.0050049
 21
-5975.00244141
 31
0.0
  0
LINE
  8
0
 62
0
 10
21244.0050049
 20
-5975.00244141
 30
0.0
 11
21244.0050049
 21
-5875.00244141
 31
0.0
  0
LINE
  8
0
 62
0
 10
22294.0043945
 20
-5875.00244141
 30
0.0
 11
22294.0043945
 21
-5975.00244141
 31
0.0
  0
LINE
  8
0
 62
0
 10
22244.0041504
 20
-5975.00244141
 30
0.0
 11
22244.0041504
 21
-5875.00244141
 31
0.0
  0
LINE
  8
0
 62
0
 10
22244.0041504
 20
-5875.00244141
 30
0.0
 11
22294.0043945
 21
-5875.00244141
 31
0.0
  0
LINE
  8
0
 62
0
 10
22244.0041504
 20
-5875.00244141
 30
0.0
 11
21294.0050049
 21
-5875.00244141
 31
0.0
  0
LINE
  8
0
 62
0
 10
21294.0050049
 20
-5875.00244141
 30
0.0
 11
21294.0050049
 21
-5900.00244141
 31
0.0
  0
LINE
  8
0
 62
0
 10
21294.0050049
 20
-5950.00244141
 30
0.0
 11
21294.0050049
 21
-5975.00244141
 31
0.0
  0
LINE
  8
0
 62
0
 10
21294.0050049
 20
-5875.00244141
 30
0.0
 11
21294.0050049
 21
-5975.00244141
 31
0.0
  0
LINE
  8
0
 62
0
 10
21244.0050049
 20
-5875.00244141
 30
0.0
 11
21294.0050049
 21
-5875.00244141
 31
0.0
  0
LINE
  8
0
 62
0
 10
17544.0109863
 20
6350.00048828
 30
0.0
 11
17544.0109863
 21
6070.14550781
 31
0.0
  0
LINE
  8
0
 62
0
 10
19644.0045624
 20
-1180.63403642
 30
0.0
 11
19644.0045624
 21
-1180.62880712
 31
0.0
  0
LINE
  8
0
 62
0
 10
22293.9990234
 20
3920.13916016
 30
0.0
 11
21094.0015869
 21
3920.13916016
 31
0.0
  0
LINE
  8
0
 62
0
 10
22293.9987793
 20
4420.13916016
 30
0.0
 11
22293.9990234
 21
3920.13916016
 31
0.0
  0
LINE
  8
0
 62
0
 10
16594.0078125
 20
5920.14453125
 30
0.0
 11
16594.0078125
 21
5420.14501953
 31
0.0
  0
LINE
  8
0
 62
0
 10
17967.6325684
 20
5420.14501953
 30
0.0
 11
16594.0078125
 21
5420.14501953
 31
0.0
  0
LINE
  8
0
 62
0
 10
17094.0097656
 20
6450.00097656
 30
0.0
 11
17094.0097656
 21
6070.14501953
 31
0.0
  0
LINE
  8
0
 62
0
 10
19641.0976562
 20
617.396240234
 30
0.0
 11
19297.3873767
 21
617.396240234
 31
0.0
  0
LINE
  8
0
 62
0
 10
19641.0977325
 20
137.396240234
 30
0.0
 11
19297.3873019
 21
137.396156321
 31
0.0
  0
LINE
  8
0
 62
0
 10
19641.0976562
 20
617.396240234
 30
0.0
 11
19641.0977325
 21
137.396240234
 31
0.0
  0
LINE
  8
0
 62
0
 10
22293.9987793
 20
4420.13916016
 30
0.0
 11
22293.9990234
 21
3920.13916016
 31
0.0
  0
LINE
  8
0
 62
0
 10
19641.0977173
 20
2057.39624023
 30
0.0
 11
19297.3876011
 21
2057.39607241
 31
0.0
  0
LINE
  8
0
 62
0
 10
19641.0977936
 20
1577.39611816
 30
0.0
 11
19297.3875263
 21
1577.39611816
 31
0.0
  0
LINE
  8
0
 62
0
 10
19641.0977173
 20
2057.39624023
 30
0.0
 11
19641.0977936
 21
1577.39611816
 31
0.0
  0
LINE
  8
0
 62
0
 10
19694.0096283
 20
6450.04931641
 30
0.0
 11
19694.0096283
 21
7050.04443359
 31
0.0
  0
LINE
  8
0
 62
0
 10
19644.0096283
 20
6450.04931641
 30
0.0
 11
19694.0096283
 21
6450.04931641
 31
0.0
  0
LINE
  8
0
 62
0
 10
19644.0096436
 20
7050.04443359
 30
0.0
 11
19644.0096283
 21
6450.04931641
 31
0.0
  0
LINE
  8
0
 62
0
 10
19694.0096283
 20
7050.04443359
 30
0.0
 11
19644.0096436
 21
7050.04443359
 31
0.0
  0
LINE
  8
0
 62
0
 10
19644.0046997
 20
-229.860046387
 30
0.0
 11
19644.0045929
 21
-1130.63574219
 31
0.0
  0
LINE
  8
0
 62
0
 10
19694.0046997
 20
-229.860046387
 30
0.0
 11
19644.0046997
 21
-229.860046387
 31
0.0
  0
LINE
  8
0
 62
0
 10
19694.0046082
 20
-1130.63574219
 30
0.0
 11
19694.0046997
 21
-229.860046387
 31
0.0
  0
LINE
  8
0
 62
0
 10
19644.0045929
 20
-1130.63574219
 30
0.0
 11
19694.0046082
 21
-1130.63574219
 31
0.0
  0
LINE
  8
0
 62
0
 10
19719.0092468
 20
7050.04443359
 30
0.0
 11
19719.0092468
 21
7100.04443359
 31
0.0
  0
LINE
  8
0
 62
0
 10
19719.0092468
 20
6450.04931641
 30
0.0
 11
19719.0092468
 21
7050.04443359
 31
0.0
  0
LINE
  8
0
 62
0
 10
19719.0092468
 20
6400.04931641
 30
0.0
 11
19719.0092468
 21
6450.04931641
 31
0.0
  0
LINE
  8
0
 62
0
 10
19719.0092468
 20
6400.04931641
 30
0.0
 11
19619.0092468
 21
6400.04931641
 31
0.0
  0
LINE
  8
0
 62
0
 10
19619.0092468
 20
7100.04443359
 30
0.0
 11
19719.0092468
 21
7100.04443359
 31
0.0
  0
LINE
  8
0
 62
0
 10
19719.0092468
 20
7050.04443359
 30
0.0
 11
19619.0092468
 21
7050.04443359
 31
0.0
  0
LINE
  8
0
 62
0
 10
19619.0092468
 20
7050.04443359
 30
0.0
 11
19619.0092468
 21
7100.04443359
 31
0.0
  0
LINE
  8
0
 62
0
 10
19619.0092468
 20
7050.04443359
 30
0.0
 11
19619.0092468
 21
6450.04931641
 31
0.0
  0
LINE
  8
0
 62
0
 10
19619.0092468
 20
6450.04931641
 30
0.0
 11
19719.0092468
 21
6450.04931641
 31
0.0
  0
LINE
  8
0
 62
0
 10
19619.0092468
 20
6400.04931641
 30
0.0
 11
19619.0092468
 21
6450.04931641
 31
0.0
  0
LINE
  8
0
 62
0
 10
16594.0078125
 20
6450.00097656
 30
0.0
 11
16594.0078125
 21
6070.14501953
 31
0.0
  0
LINE
  8
0
 62
0
 10
17094.0097656
 20
6070.14501953
 30
0.0
 11
16594.0078125
 21
6070.14501953
 31
0.0
  0
LINE
  8
0
 62
0
 10
17094.0097656
 20
6450.00097656
 30
0.0
 11
17094.0097656
 21
6070.14501953
 31
0.0
  0
LINE
  8
0
 62
0
 10
16594.0078125
 20
6450.00097656
 30
0.0
 11
17094.0097656
 21
6450.00097656
 31
0.0
  0
LINE
  8
0
 62
0
 10
17464.0119629
 20
6999.99169922
 30
0.0
 11
17464.0119629
 21
7049.99169922
 31
0.0
  0
LINE
  8
0
 62
0
 10
17464.0119629
 20
6500.00097656
 30
0.0
 11
17464.0119629
 21
6999.99169922
 31
0.0
  0
LINE
  8
0
 62
0
 10
17464.0119629
 20
6450.00097656
 30
0.0
 11
17464.0119629
 21
6500.00097656
 31
0.0
  0
LINE
  8
0
 62
0
 10
17464.0119629
 20
6450.00097656
 30
0.0
 11
17414.0119629
 21
6450.00097656
 31
0.0
  0
LINE
  8
0
 62
0
 10
17414.0119629
 20
7049.99169922
 30
0.0
 11
17464.0119629
 21
7049.99169922
 31
0.0
  0
LINE
  8
0
 62
0
 10
17464.0119629
 20
6999.99169922
 30
0.0
 11
17414.0119629
 21
6999.99169922
 31
0.0
  0
LINE
  8
0
 62
0
 10
17414.0119629
 20
6999.99169922
 30
0.0
 11
17414.0119629
 21
7049.99169922
 31
0.0
  0
LINE
  8
0
 62
0
 10
17414.0119629
 20
6999.99169922
 30
0.0
 11
17414.0119629
 21
6500.00097656
 31
0.0
  0
LINE
  8
0
 62
0
 10
17414.0119629
 20
6500.00097656
 30
0.0
 11
17464.0119629
 21
6500.00097656
 31
0.0
  0
LINE
  8
0
 62
0
 10
17414.0119629
 20
6450.00097656
 30
0.0
 11
17414.0119629
 21
6500.00097656
 31
0.0
  0
LINE
  8
0
 62
0
 10
16644.0112305
 20
2320.14282227
 30
0.0
 11
17544.0148926
 21
2320.14282227
 31
0.0
  0
LINE
  8
0
 62
0
 10
16644.0112305
 20
2370.14282227
 30
0.0
 11
16644.0112305
 21
2320.14282227
 31
0.0
  0
LINE
  8
0
 62
0
 10
16644.0112305
 20
2370.14282227
 30
0.0
 11
17544.0148926
 21
2370.14282227
 31
0.0
  0
LINE
  8
0
 62
0
 10
17544.0148926
 20
2320.14282227
 30
0.0
 11
17544.0148926
 21
2370.14282227
 31
0.0
  0
LINE
  8
0
 62
0
 10
22293.9987793
 20
4420.13916016
 30
0.0
 11
22293.9990234
 21
3920.13916016
 31
0.0
  0
LINE
  8
0
 62
0
 10
21294.0050049
 20
-5950.00244141
 30
0.0
 11
22244.0041504
 21
-5950.00244141
 31
0.0
  0
LINE
  8
0
 62
0
 10
21294.0050049
 20
-5900.00244141
 30
0.0
 11
21294.0050049
 21
-5950.00244141
 31
0.0
  0
LINE
  8
0
 62
0
 10
21294.0050049
 20
-5900.00244141
 30
0.0
 11
22244.0041504
 21
-5900.00244141
 31
0.0
  0
LINE
  8
0
 62
0
 10
22244.0041504
 20
-5950.00244141
 30
0.0
 11
22244.0041504
 21
-5900.00244141
 31
0.0
  0
LINE
  8
0
 62
0
 10
19641.0976868
 20
1337.39611816
 30
0.0
 11
19297.3874889
 21
1337.39611816
 31
0.0
  0
LINE
  8
0
 62
0
 10
19641.0977631
 20
857.396179199
 30
0.0
 11
19297.3874141
 21
857.396179199
 31
0.0
  0
LINE
  8
0
 62
0
 10
19641.0976868
 20
1337.39611816
 30
0.0
 11
19641.0977631
 21
857.396179199
 31
0.0
  0
LINE
  8
0
 62
0
 10
17451.5148926
 20
6500.00097656
 30
0.0
 11
17451.5148926
 21
6999.99169922
 31
0.0
  0
LINE
  8
0
 62
0
 10
17426.5148926
 20
6500.00097656
 30
0.0
 11
17451.5148926
 21
6500.00097656
 31
0.0
  0
LINE
  8
0
 62
0
 10
17426.5148926
 20
6500.00097656
 30
0.0
 11
17426.5148926
 21
6999.99169922
 31
0.0
  0
LINE
  8
0
 62
0
 10
17451.5148926
 20
6999.99169922
 30
0.0
 11
17426.5148926
 21
6999.99169922
 31
0.0
  0
LINE
  8
0
 62
0
 10
17094.0097656
 20
6450.00097656
 30
0.0
 11
17094.0097656
 21
6070.14501953
 31
0.0
  0
LINE
  8
0
 62
0
 10
17464.0119629
 20
7800.00195313
 30
0.0
 11
17464.0119629
 21
7850.00195313
 31
0.0
  0
LINE
  8
0
 62
0
 10
17464.0119629
 20
7099.99560547
 30
0.0
 11
17464.0119629
 21
7800.00195313
 31
0.0
  0
LINE
  8
0
 62
0
 10
17464.0119629
 20
7049.99560547
 30
0.0
 11
17464.0119629
 21
7099.99560547
 31
0.0
  0
LINE
  8
0
 62
0
 10
17464.0119629
 20
7049.99560547
 30
0.0
 11
17414.0119629
 21
7049.99560547
 31
0.0
  0
LINE
  8
0
 62
0
 10
17414.0119629
 20
7850.00195313
 30
0.0
 11
17464.0119629
 21
7850.00195313
 31
0.0
  0
LINE
  8
0
 62
0
 10
17464.0119629
 20
7800.00195313
 30
0.0
 11
17414.0119629
 21
7800.00195313
 31
0.0
  0
LINE
  8
0
 62
0
 10
17414.0119629
 20
7800.00195313
 30
0.0
 11
17414.0119629
 21
7850.00195313
 31
0.0
  0
LINE
  8
0
 62
0
 10
17414.0119629
 20
7800.00195313
 30
0.0
 11
17414.0119629
 21
7099.99560547
 31
0.0
  0
LINE
  8
0
 62
0
 10
17414.0119629
 20
7099.99560547
 30
0.0
 11
17464.0119629
 21
7099.99560547
 31
0.0
  0
LINE
  8
0
 62
0
 10
17414.0119629
 20
7049.99560547
 30
0.0
 11
17414.0119629
 21
7099.99560547
 31
0.0
  0
LINE
  8
0
 62
0
 10
17544.0109863
 20
6350.00048828
 30
0.0
 11
17544.0109863
 21
6070.14550781
 31
0.0
  0
LINE
  8
0
 62
0
 10
19644.0044556
 20
-2031.41992188
 30
0.0
 11
19644.0045624
 21
-1180.6282959
 31
0.0
  0
LINE
  8
0
 62
0
 10
19644.0044556
 20
-2031.41992187
 30
0.0
 11
19694.0044556
 21
-2031.41992187
 31
0.0
  0
LINE
  8
0
 62
0
 10
19694.0045471
 20
-1180.6282959
 30
0.0
 11
19644.0045624
 21
-1180.6282959
 31
0.0
  0
LINE
  8
0
 62
0
 10
19694.0045471
 20
-1180.6282959
 30
0.0
 11
19694.0044556
 21
-2031.41992187
 31
0.0
  0
LINE
  8
0
 62
0
 10
17451.5148926
 20
7099.99560547
 30
0.0
 11
17451.5148926
 21
7800.00634766
 31
0.0
  0
LINE
  8
0
 62
0
 10
17426.5148926
 20
7099.99560547
 30
0.0
 11
17451.5148926
 21
7099.99560547
 31
0.0
  0
LINE
  8
0
 62
0
 10
17426.5148926
 20
7099.99560547
 30
0.0
 11
17426.5148926
 21
7800.00634766
 31
0.0
  0
LINE
  8
0
 62
0
 10
17451.5148926
 20
7800.00634766
 30
0.0
 11
17426.5148926
 21
7800.00634766
 31
0.0
  0
LINE
  8
0
 62
0
 10
17544.0106201
 20
2295.14306641
 30
0.0
 11
17594.0106201
 21
2295.14306641
 31
0.0
  0
LINE
  8
0
 62
0
 10
16644.0112305
 20
2295.14306641
 30
0.0
 11
17544.0106201
 21
2295.14306641
 31
0.0
  0
LINE
  8
0
 62
0
 10
16594.0112305
 20
2295.14306641
 30
0.0
 11
16644.0112305
 21
2295.14306641
 31
0.0
  0
LINE
  8
0
 62
0
 10
16594.0112305
 20
2295.14306641
 30
0.0
 11
16594.0112305
 21
2395.14306641
 31
0.0
  0
LINE
  8
0
 62
0
 10
17594.0106201
 20
2395.14306641
 30
0.0
 11
17594.0106201
 21
2295.14306641
 31
0.0
  0
LINE
  8
0
 62
0
 10
17544.0106201
 20
2295.14306641
 30
0.0
 11
17544.0106201
 21
2395.14306641
 31
0.0
  0
LINE
  8
0
 62
0
 10
17544.0106201
 20
2395.14306641
 30
0.0
 11
17594.0106201
 21
2395.14306641
 31
0.0
  0
LINE
  8
0
 62
0
 10
17544.0106201
 20
2395.14306641
 30
0.0
 11
16644.0112305
 21
2395.14306641
 31
0.0
  0
LINE
  8
0
 62
0
 10
16644.0112305
 20
2395.14306641
 30
0.0
 11
16644.0112305
 21
2370.14282227
 31
0.0
  0
LINE
  8
0
 62
0
 10
16644.0112305
 20
2320.14282227
 30
0.0
 11
16644.0112305
 21
2295.14306641
 31
0.0
  0
LINE
  8
0
 62
0
 10
16644.0112305
 20
2395.14306641
 30
0.0
 11
16644.0112305
 21
2295.14306641
 31
0.0
  0
LINE
  8
0
 62
0
 10
16594.0112305
 20
2395.14306641
 30
0.0
 11
16644.0112305
 21
2395.14306641
 31
0.0
  0
LINE
  8
0
 62
0
 10
18247.3828125
 20
-2081.4128418
 30
0.0
 11
19594.0072021
 21
-2081.4128418
 31
0.0
  0
LINE
  8
0
 62
0
 10
18247.3828125
 20
-2081.41308594
 30
0.0
 11
18247.3828125
 21
-2081.4128418
 31
0.0
  0
LINE
  8
0
 62
0
 10
18247.3828125
 20
2270.14282227
 30
0.0
 11
17594.0106201
 21
2270.14291875
 31
0.0
  0
LINE
  8
0
 62
0
 10
18397.3828125
 20
-79.8606872559
 30
0.0
 11
18397.3828125
 21
-79.860672
 31
0.0
  0
LINE
  8
0
 62
0
 10
22444.0078125
 20
-6000.0
 30
0.0
 11
22444.0078125
 21
-2081.41137695
 31
0.0
  0
LINE
  8
0
 62
0
 10
22444.0078125
 20
2420.1394043
 30
0.0
 11
22444.0078125
 21
4570.13867187
 31
0.0
  0
LINE
  8
0
 62
0
 10
16444.0073242
 20
-1281.41186523
 30
0.0
 11
16444.0073242
 21
1470.14331055
 31
0.0
  0
LINE
  8
0
 62
0
 10
16594.0075684
 20
2420.13671875
 30
0.0
 11
16594.0075684
 21
-2081.41111537
 31
0.0
  0
LINE
  8
0
 62
0
 10
21094.0015869
 20
3920.13916016
 30
0.0
 11
21094.0015869
 21
4420.13964844
 31
0.0
  0
LINE
  8
0
 62
0
 10
20944.0015869
 20
4420.13964844
 30
0.0
 11
21094.0015869
 21
4420.13964844
 31
0.0
  0
LINE
  8
0
 62
0
 10
20944.0015869
 20
3920.13916016
 30
0.0
 11
21094.0015869
 21
3920.13916016
 31
0.0
  0
LINE
  8
0
 62
0
 10
20944.0015869
 20
3920.13916016
 30
0.0
 11
20944.0015869
 21
4420.13964844
 31
0.0
  0
LINE
  8
0
 62
0
 10
18567.6292725
 20
6070.14453125
 30
0.0
 11
18117.6276855
 21
6070.14453125
 31
0.0
  0
LINE
  8
0
 62
0
 10
18567.6292725
 20
6070.14453125
 30
0.0
 11
18567.6292725
 21
5970.14453125
 31
0.0
  0
LINE
  8
0
 62
0
 10
18117.6276855
 20
6070.14453125
 30
0.0
 11
18117.6276855
 21
5970.14453125
 31
0.0
  0
LINE
  8
0
 62
0
 10
18567.6292725
 20
5970.14453125
 30
0.0
 11
18117.6276855
 21
5970.14453125
 31
0.0
  0
LINE
  8
0
 62
0
 10
17094.0117188
 20
6450.00097656
 30
0.0
 11
17544.0133057
 21
6450.00048828
 31
0.0
  0
LINE
  8
0
 62
0
 10
17544.0133057
 20
6450.00048828
 30
0.0
 11
17544.0133057
 21
6350.00048828
 31
0.0
  0
LINE
  8
0
 62
0
 10
17194.0117188
 20
6350.00097656
 30
0.0
 11
17544.0133057
 21
6350.00048828
 31
0.0
  0
LINE
  8
0
 62
0
 10
17194.0117188
 20
6350.00097656
 30
0.0
 11
17194.0117188
 21
6070.14453125
 31
0.0
  0
LINE
  8
0
 62
0
 10
17194.0117188
 20
6070.14453125
 30
0.0
 11
17094.0117188
 21
6070.14453125
 31
0.0
  0
LINE
  8
0
 62
0
 10
17094.0117188
 20
6070.14453125
 30
0.0
 11
17094.0117188
 21
6450.00097656
 31
0.0
  0
LINE
  8
0
 62
0
 10
18247.3828125
 20
2270.14282227
 30
0.0
 11
18247.3828125
 21
2420.14282227
 31
0.0
  0
LINE
  8
0
 62
0
 10
17594.0106201
 20
2270.14291875
 30
0.0
 11
18247.3828125
 21
2270.14282227
 31
0.0
  0
LINE
  8
0
 62
0
 10
17594.0106201
 20
2420.14282227
 30
0.0
 11
17594.0106201
 21
2270.14291875
 31
0.0
  0
LINE
  8
0
 62
0
 10
18247.3828125
 20
2420.14282227
 30
0.0
 11
17594.0106201
 21
2420.14282227
 31
0.0
  0
LINE
  8
0
 62
0
 10
17594.0106201
 20
2270.14291875
 30
0.0
 11
16594.012207
 21
2270.14306641
 31
0.0
  0
LINE
  8
0
 62
0
 10
16594.012207
 20
2420.14282227
 30
0.0
 11
17594.0106201
 21
2420.14282227
 31
0.0
  0
LINE
  8
0
 62
0
 10
16594.012207
 20
2270.14306641
 30
0.0
 11
16594.012207
 21
2295.14306641
 31
0.0
  0
LINE
  8
0
 62
0
 10
16594.012207
 20
2395.14306641
 30
0.0
 11
16594.012207
 21
2420.14282227
 31
0.0
  0
LINE
  8
0
 62
0
 10
18247.3828125
 20
-79.8606872559
 30
0.0
 11
18247.3828125
 21
2270.13745117
 31
0.0
  0
LINE
  8
0
 62
0
 10
18397.3828125
 20
2270.13745117
 30
0.0
 11
18397.3828125
 21
-79.8606872559
 31
0.0
  0
LINE
  8
0
 62
0
 10
21094.0013428
 20
-2081.4152832
 30
0.0
 11
21094.0015869
 21
2420.13720703
 31
0.0
  0
LINE
  8
0
 62
0
 10
20944.0013428
 20
-2081.4152832
 30
0.0
 11
21094.0013428
 21
-2081.4152832
 31
0.0
  0
LINE
  8
0
 62
0
 10
21094.0015869
 20
2420.13720703
 30
0.0
 11
20944.0015869
 21
2420.13720703
 31
0.0
  0
LINE
  8
0
 62
0
 10
20944.0015869
 20
2420.13720703
 30
0.0
 11
20944.0013428
 21
-2081.4152832
 31
0.0
  0
LINE
  8
0
 62
0
 10
22444.0078125
 20
-6000.0
 30
0.0
 11
22444.0078125
 21
-2081.41040039
 31
0.0
  0
LINE
  8
0
 62
0
 10
22444.0078125
 20
-6000.0
 30
0.0
 11
22294.0078125
 21
-6000.0
 31
0.0
  0
LINE
  8
0
 62
0
 10
22444.0078125
 20
-2081.41040039
 30
0.0
 11
22294.0078125
 21
-2081.41040039
 31
0.0
  0
LINE
  8
0
 62
0
 10
22294.0078125
 20
-6000.0
 30
0.0
 11
22294.0078125
 21
-2081.41040039
 31
0.0
  0
LINE
  8
0
 62
0
 10
16444.0078125
 20
-2081.41111537
 30
0.0
 11
16444.0075684
 21
-6000.00097656
 31
0.0
  0
LINE
  8
0
 62
0
 10
16594.0078125
 20
-2081.41111537
 30
0.0
 11
16444.0078125
 21
-2081.41111537
 31
0.0
  0
LINE
  8
0
 62
0
 10
16594.0075684
 20
-6000.00097656
 30
0.0
 11
16594.0078125
 21
-2081.41111537
 31
0.0
  0
LINE
  8
0
 62
0
 10
16444.0075684
 20
-6000.00097656
 30
0.0
 11
16594.0075684
 21
-6000.00097656
 31
0.0
  0
LINE
  8
0
 62
0
 10
16444.0073242
 20
-1281.41186523
 30
0.0
 11
16444.0073242
 21
-2081.41113281
 31
0.0
  0
LINE
  8
0
 62
0
 10
16594.0075684
 20
-1281.41186523
 30
0.0
 11
16444.0073242
 21
-1281.41186523
 31
0.0
  0
LINE
  8
0
 62
0
 10
16594.0075684
 20
-1281.41186523
 30
0.0
 11
16594.0075684
 21
-2081.41113281
 31
0.0
  0
LINE
  8
0
 62
0
 10
16444.0073242
 20
-2081.41113281
 30
0.0
 11
16594.0075684
 21
-2081.41113281
 31
0.0
  0
LINE
  8
0
 62
0
 10
16444.0073242
 20
2420.13671875
 30
0.0
 11
16444.0073242
 21
1470.14331055
 31
0.0
  0
LINE
  8
0
 62
0
 10
16594.0075684
 20
2420.13671875
 30
0.0
 11
16444.0073242
 21
2420.13671875
 31
0.0
  0
LINE
  8
0
 62
0
 10
16594.0075684
 20
2420.13671875
 30
0.0
 11
16594.0075684
 21
1470.14331055
 31
0.0
  0
LINE
  8
0
 62
0
 10
16444.0073242
 20
1470.14331055
 30
0.0
 11
16594.0075684
 21
1470.14331055
 31
0.0
  0
LINE
  8
0
 62
0
 10
22444.0078125
 20
2420.13745117
 30
0.0
 11
22444.0078125
 21
4570.13769531
 31
0.0
  0
LINE
  8
0
 62
0
 10
22444.0078125
 20
2420.13745117
 30
0.0
 11
22294.0078125
 21
2420.13745117
 31
0.0
  0
LINE
  8
0
 62
0
 10
22444.0078125
 20
4570.13769531
 30
0.0
 11
22294.0078125
 21
4570.13769531
 31
0.0
  0
LINE
  8
0
 62
0
 10
22294.0078125
 20
2420.13745117
 30
0.0
 11
22294.0078125
 21
4570.13769531
 31
0.0
  0
LINE
  8
0
 62
0
 10
22444.0075684
 20
4570.13867188
 30
0.0
 11
22444.0075684
 21
6070.14013672
 31
0.0
  0
LINE
  8
0
 62
0
 10
22444.0075684
 20
4570.13867188
 30
0.0
 11
22294.0075684
 21
4570.13867188
 31
0.0
  0
LINE
  8
0
 62
0
 10
22444.0075684
 20
6070.14013672
 30
0.0
 11
22294.0075684
 21
6070.14013672
 31
0.0
  0
LINE
  8
0
 62
0
 10
22294.0075684
 20
4570.13867188
 30
0.0
 11
22294.0075684
 21
6070.14013672
 31
0.0
  0
LINE
  8
0
 62
0
 10
17967.6325684
 20
5420.14453125
 30
0.0
 11
18594.006
 21
5420.14453125
 31
0.0
  0
LINE
  8
0
 62
0
 10
17967.6325684
 20
5420.14453125
 30
0.0
 11
17967.6325684
 21
5920.14453125
 31
0.0
  0
LINE
  8
0
 62
0
 10
18594.006
 20
5570.14453125
 30
0.0
 11
18594.006
 21
5420.14453125
 31
0.0
  0
LINE
  8
0
 62
0
 10
17967.6325684
 20
5920.14453125
 30
0.0
 11
16594.0058594
 21
5920.14453125
 31
0.0
  0
LINE
  8
0
 62
0
 10
16594.0058594
 20
5920.14453125
 30
0.0
 11
16594.0058594
 21
6070.14453125
 31
0.0
  0
LINE
  8
0
 62
0
 10
16594.0058594
 20
6070.14453125
 30
0.0
 11
18117.6324463
 21
6070.14453125
 31
0.0
  0
LINE
  8
0
 62
0
 10
18117.6324463
 20
6070.14453125
 30
0.0
 11
18117.6324463
 21
5570.14453125
 31
0.0
  0
LINE
  8
0
 62
0
 10
18117.6324463
 20
5570.14453125
 30
0.0
 11
18594.006
 21
5570.14453125
 31
0.0
  0
LINE
  8
0
 62
0
 10
19494.0066299
 20
5420.14453125
 30
0.0
 11
19594.0082092
 21
5420.14453125
 31
0.0
  0
LINE
  8
0
 62
0
 10
19494.0066299
 20
5570.14453125
 30
0.0
 11
19494.0066299
 21
5420.14453125
 31
0.0
  0
LINE
  8
0
 62
0
 10
19494.0066299
 20
5570.14453125
 30
0.0
 11
19594.0082092
 21
5570.14453125
 31
0.0
  0
LINE
  8
0
 62
0
 10
19594.0082092
 20
5570.14453125
 30
0.0
 11
19594.0082092
 21
5420.14453125
 31
0.0
  0
LINE
  8
0
 62
0
 10
19594.0092468
 20
7849.99609375
 30
0.0
 11
19744.0092468
 21
7849.99609375
 31
0.0
  0
LINE
  8
0
 62
0
 10
19594.0092468
 20
6400.04882813
 30
0.0
 11
19594.0092468
 21
3520.14453125
 31
0.0
  0
LINE
  8
0
 62
0
 10
19594.0092468
 20
7100.04443359
 30
0.0
 11
19594.0092468
 21
6400.04882812
 31
0.0
  0
LINE
  8
0
 62
0
 10
19594.0092468
 20
7849.99609375
 30
0.0
 11
19594.0092468
 21
7100.04443359
 31
0.0
  0
LINE
  8
0
 62
0
 10
19744.0092468
 20
6400.04882813
 30
0.0
 11
19744.0092468
 21
3520.14453125
 31
0.0
  0
LINE
  8
0
 62
0
 10
19744.0092468
 20
7100.04443359
 30
0.0
 11
19744.0092468
 21
6400.04882812
 31
0.0
  0
LINE
  8
0
 62
0
 10
19744.0092468
 20
7849.99609375
 30
0.0
 11
19744.0092468
 21
7100.04443359
 31
0.0
  0
LINE
  8
0
 62
0
 10
19594.0092468
 20
7100.04443359
 30
0.0
 11
19744.0092468
 21
7100.04443359
 31
0.0
  0
LINE
  8
0
 62
0
 10
19744.0092468
 20
3520.14453125
 30
0.0
 11
19594.0092468
 21
3520.14453125
 31
0.0
  0
LINE
  8
0
 62
0
 10
19594.0092468
 20
6400.04882813
 30
0.0
 11
19744.0092468
 21
6400.04882813
 31
0.0
  0
LINE
  8
0
 62
0
 10
19594.0092468
 20
2520.13969482
 30
0.0
 11
19594.0092468
 21
2420.14306641
 31
0.0
  0
LINE
  8
0
 62
0
 10
19594.0092468
 20
2520.13969482
 30
0.0
 11
19744.0092468
 21
2520.13969482
 31
0.0
  0
LINE
  8
0
 62
0
 10
19744.0092468
 20
2520.13969482
 30
0.0
 11
19744.0092468
 21
2420.14306641
 31
0.0
  0
LINE
  8
0
 62
0
 10
19744.0092468
 20
2420.14306641
 30
0.0
 11
19594.0092468
 21
2420.14306641
 31
0.0
  0
LINE
  8
0
 62
0
 10
22294.0
 20
-2081.41552734
 30
0.0
 11
22294.0
 21
-2231.41552734
 31
0.0
  0
LINE
  8
0
 62
0
 10
20844.0013052
 20
-2231.41552734
 30
0.0
 11
22294.0
 21
-2231.41552734
 31
0.0
  0
LINE
  8
0
 62
0
 10
20844.0
 20
-2231.41552734
 30
0.0
 11
20844.0013052
 21
-2231.41552734
 31
0.0
  0
LINE
  8
0
 62
0
 10
20844.0013052
 20
-2231.41552734
 30
0.0
 11
20844.0013052
 21
-2081.41552734
 31
0.0
  0
LINE
  8
0
 62
0
 10
20844.0013052
 20
-2081.41552734
 30
0.0
 11
22294.0
 21
-2081.41552734
 31
0.0
  0
LINE
  8
0
 62
0
 10
20844.0008545
 20
-2081.41552734
 30
0.0
 11
20844.0013052
 21
-2081.41552734
 31
0.0
  0
LINE
  8
0
 62
0
 10
20844.0
 20
-2231.41552734
 30
0.0
 11
20844.0
 21
-2231.41015625
 31
0.0
  0
LINE
  8
0
 62
0
 10
19744.0109863
 20
-2231.41552734
 30
0.0
 11
19843.999939
 21
-2231.41552734
 31
0.0
  0
LINE
  8
0
 62
0
 10
19843.999939
 20
-2231.41552734
 30
0.0
 11
19843.999939
 21
-2081.41552734
 31
0.0
  0
LINE
  8
0
 62
0
 10
19594.0109863
 20
-2081.41552734
 30
0.0
 11
19843.999939
 21
-2081.41552734
 31
0.0
  0
LINE
  8
0
 62
0
 10
19744.0109863
 20
-3140.70849609
 30
0.0
 11
19744.0109863
 21
-2231.41552734
 31
0.0
  0
LINE
  8
0
 62
0
 10
19744.0109863
 20
-3140.70849609
 30
0.0
 11
19594.0109863
 21
-3140.70849609
 31
0.0
  0
LINE
  8
0
 62
0
 10
19594.0109863
 20
-3140.70849609
 30
0.0
 11
19594.0109863
 21
-2081.41552734
 31
0.0
  0
LINE
  8
0
 62
0
 10
19744.0109863
 20
-4940.70951172
 30
0.0
 11
19744.0109863
 21
-4940.70800781
 31
0.0
  0
LINE
  8
0
 62
0
 10
19744.0109863
 20
-5850.00195312
 30
0.0
 11
19744.0109863
 21
-4940.70951172
 31
0.0
  0
LINE
  8
0
 62
0
 10
19594.0109863
 20
-4940.70951172
 30
0.0
 11
19594.0109863
 21
-4940.70800781
 31
0.0
  0
LINE
  8
0
 62
0
 10
19594.0109863
 20
-4940.70951172
 30
0.0
 11
19744.0109863
 21
-4940.70951172
 31
0.0
  0
LINE
  8
0
 62
0
 10
19594.0109863
 20
-6000.00195312
 30
0.0
 11
19594.0109863
 21
-4940.70951172
 31
0.0
  0
LINE
  8
0
 62
0
 10
21244.0
 20
-5850.00195312
 30
0.0
 11
19744.0109863
 21
-5850.00195312
 31
0.0
  0
LINE
  8
0
 62
0
 10
21244.0
 20
-5850.00195312
 30
0.0
 11
21244.0
 21
-6000.00195312
 31
0.0
  0
LINE
  8
0
 62
0
 10
21244.0
 20
-6000.00195312
 30
0.0
 11
19594.0109863
 21
-6000.00195312
 31
0.0
  0
LINE
  8
0
 62
0
 10
22294.0012207
 20
-5850.00195312
 30
0.0
 11
21244.0
 21
-5850.00195312
 31
0.0
  0
LINE
  8
0
 62
0
 10
22294.0012207
 20
-6000.00195312
 30
0.0
 11
22294.0012207
 21
-5975.00244141
 31
0.0
  0
LINE
  8
0
 62
0
 10
22294.0012207
 20
-5875.00244141
 30
0.0
 11
22294.0012207
 21
-5850.00195312
 31
0.0
  0
LINE
  8
0
 62
0
 10
22294.0012207
 20
-6000.00195312
 30
0.0
 11
21244.0
 21
-6000.00195312
 31
0.0
  0
LINE
  8
0
 62
0
 10
19744.0097656
 20
4420.13916016
 30
0.0
 11
19744.0097656
 21
4570.13916016
 31
0.0
  0
LINE
  8
0
 62
0
 10
19844.0140381
 20
4570.13916016
 30
0.0
 11
19744.0097656
 21
4570.13916016
 31
0.0
  0
LINE
  8
0
 62
0
 10
19844.0140381
 20
4570.13916016
 30
0.0
 11
19844.0140381
 21
4420.13916016
 31
0.0
  0
LINE
  8
0
 62
0
 10
19844.0140381
 20
4420.13916016
 30
0.0
 11
19744.0097656
 21
4420.13916016
 31
0.0
  0
LINE
  8
0
 62
0
 10
22293.9992676
 20
4570.13916016
 30
0.0
 11
22293.9992676
 21
4420.13916016
 31
0.0
  0
LINE
  8
0
 62
0
 10
22293.9992676
 20
4570.13916016
 30
0.0
 11
20644.02
 21
4570.13916016
 31
0.0
  0
LINE
  8
0
 62
0
 10
22293.9992676
 20
4420.13916016
 30
0.0
 11
20644.02
 21
4420.13916016
 31
0.0
  0
LINE
  8
0
 62
0
 10
20644.02
 20
4570.13916016
 30
0.0
 11
20644.02
 21
4420.13916016
 31
0.0
  0
LINE
  8
0
 62
0
 10
21094.0013428
 20
-2081.4152832
 30
0.0
 11
21094.0015869
 21
2420.13720703
 31
0.0
  0
LINE
  8
0
 62
0
 10
20944.0013428
 20
-2081.4152832
 30
0.0
 11
21094.0013428
 21
-2081.4152832
 31
0.0
  0
LINE
  8
0
 62
0
 10
21094.0015869
 20
2420.13720703
 30
0.0
 11
20944.0015869
 21
2420.13720703
 31
0.0
  0
LINE
  8
0
 62
0
 10
20944.0015869
 20
2420.13720703
 30
0.0
 11
20944.0013428
 21
-2081.4152832
 31
0.0
  0
LINE
  8
0
 62
0
 10
22444.0078125
 20
-6000.0
 30
0.0
 11
22444.0078125
 21
-2081.41040039
 31
0.0
  0
LINE
  8
0
 62
0
 10
22444.0078125
 20
-6000.0
 30
0.0
 11
22294.0078125
 21
-6000.0
 31
0.0
  0
LINE
  8
0
 62
0
 10
22444.0078125
 20
-2081.41040039
 30
0.0
 11
22294.0078125
 21
-2081.41040039
 31
0.0
  0
LINE
  8
0
 62
0
 10
22294.0078125
 20
-6000.0
 30
0.0
 11
22294.0078125
 21
-2081.41040039
 31
0.0
  0
LINE
  8
0
 62
0
 10
16444.0078125
 20
-2081.41111537
 30
0.0
 11
16444.0075684
 21
-6000.00097656
 31
0.0
  0
LINE
  8
0
 62
0
 10
16594.0078125
 20
-2081.41111537
 30
0.0
 11
16444.0078125
 21
-2081.41111537
 31
0.0
  0
LINE
  8
0
 62
0
 10
16594.0075684
 20
-6000.00097656
 30
0.0
 11
16594.0078125
 21
-2081.41111537
 31
0.0
  0
LINE
  8
0
 62
0
 10
16444.0075684
 20
-6000.00097656
 30
0.0
 11
16594.0075684
 21
-6000.00097656
 31
0.0
  0
LINE
  8
0
 62
0
 10
16444.0073242
 20
-1281.41186523
 30
0.0
 11
16444.0073242
 21
-2081.41113281
 31
0.0
  0
LINE
  8
0
 62
0
 10
16594.0075684
 20
-1281.41186523
 30
0.0
 11
16444.0073242
 21
-1281.41186523
 31
0.0
  0
LINE
  8
0
 62
0
 10
16594.0075684
 20
-1281.41186523
 30
0.0
 11
16594.0075684
 21
-2081.41113281
 31
0.0
  0
LINE
  8
0
 62
0
 10
16444.0073242
 20
-2081.41113281
 30
0.0
 11
16594.0075684
 21
-2081.41113281
 31
0.0
  0
LINE
  8
0
 62
0
 10
22444.0078125
 20
2420.13745117
 30
0.0
 11
22444.0078125
 21
4570.13769531
 31
0.0
  0
LINE
  8
0
 62
0
 10
22444.0078125
 20
2420.13745117
 30
0.0
 11
22294.0078125
 21
2420.13745117
 31
0.0
  0
LINE
  8
0
 62
0
 10
22444.0078125
 20
4570.13769531
 30
0.0
 11
22294.0078125
 21
4570.13769531
 31
0.0
  0
LINE
  8
0
 62
0
 10
22294.0078125
 20
2420.13745117
 30
0.0
 11
22294.0078125
 21
4570.13769531
 31
0.0
  0
LINE
  8
0
 62
0
 10
22444.0075684
 20
4570.13867188
 30
0.0
 11
22444.0075684
 21
6070.14013672
 31
0.0
  0
LINE
  8
0
 62
0
 10
22444.0075684
 20
4570.13867188
 30
0.0
 11
22294.0075684
 21
4570.13867188
 31
0.0
  0
LINE
  8
0
 62
0
 10
22444.0075684
 20
6070.14013672
 30
0.0
 11
22294.0075684
 21
6070.14013672
 31
0.0
  0
LINE
  8
0
 62
0
 10
22294.0075684
 20
4570.13867188
 30
0.0
 11
22294.0075684
 21
6070.14013672
 31
0.0
  0
LINE
  8
0
 62
0
 10
16444.0073242
 20
2420.13671875
 30
0.0
 11
16444.0073242
 21
1470.14331055
 31
0.0
  0
LINE
  8
0
 62
0
 10
16594.0075684
 20
2420.13671875
 30
0.0
 11
16444.0073242
 21
2420.13671875
 31
0.0
  0
LINE
  8
0
 62
0
 10
16594.0075684
 20
2420.13671875
 30
0.0
 11
16594.0075684
 21
1470.14331055
 31
0.0
  0
LINE
  8
0
 62
0
 10
16444.0073242
 20
1470.14331055
 30
0.0
 11
16594.0075684
 21
1470.14331055
 31
0.0
  0
LINE
  8
0
 62
0
 10
18247.3828125
 20
2270.14282227
 30
0.0
 11
18247.3828125
 21
2420.14282227
 31
0.0
  0
LINE
  8
0
 62
0
 10
17594.0106201
 20
2270.14291875
 30
0.0
 11
18247.3828125
 21
2270.14282227
 31
0.0
  0
LINE
  8
0
 62
0
 10
17594.0106201
 20
2420.14282227
 30
0.0
 11
17594.0106201
 21
2270.14291875
 31
0.0
  0
LINE
  8
0
 62
0
 10
18247.3828125
 20
2420.14282227
 30
0.0
 11
17594.0106201
 21
2420.14282227
 31
0.0
  0
LINE
  8
0
 62
0
 10
17594.0106201
 20
2270.14291875
 30
0.0
 11
16594.012207
 21
2270.14306641
 31
0.0
  0
LINE
  8
0
 62
0
 10
18397.3828125
 20
2270.13745117
 30
0.0
 11
18397.3828125
 21
-79.8606872559
 31
0.0
  0
LINE
  8
0
 62
0
 10
18247.3828125
 20
-79.8606872559
 30
0.0
 11
18247.3828125
 21
2270.13745117
 31
0.0
  0
LINE
  8
0
 62
0
 10
16594.012207
 20
2420.14282227
 30
0.0
 11
17594.0106201
 21
2420.14282227
 31
0.0
  0
LINE
  8
0
 62
0
 10
16594.012207
 20
2270.14306641
 30
0.0
 11
16594.012207
 21
2295.14306641
 31
0.0
  0
LINE
  8
0
 62
0
 10
16594.012207
 20
2395.14306641
 30
0.0
 11
16594.012207
 21
2420.14282227
 31
0.0
  0
LINE
  8
0
 62
0
 10
22294.0
 20
-2081.41552734
 30
0.0
 11
22294.0
 21
-2231.41552734
 31
0.0
  0
LINE
  8
0
 62
0
 10
20844.0013052
 20
-2231.41552734
 30
0.0
 11
22294.0
 21
-2231.41552734
 31
0.0
  0
LINE
  8
0
 62
0
 10
20844.0
 20
-2231.41552734
 30
0.0
 11
20844.0013052
 21
-2231.41552734
 31
0.0
  0
LINE
  8
0
 62
0
 10
20844.0013052
 20
-2231.41552734
 30
0.0
 11
20844.0013052
 21
-2081.41552734
 31
0.0
  0
LINE
  8
0
 62
0
 10
20844.0013052
 20
-2081.41552734
 30
0.0
 11
22294.0
 21
-2081.41552734
 31
0.0
  0
LINE
  8
0
 62
0
 10
20844.0008545
 20
-2081.41552734
 30
0.0
 11
20844.0013052
 21
-2081.41552734
 31
0.0
  0
LINE
  8
0
 62
0
 10
20844.0
 20
-2231.41552734
 30
0.0
 11
20844.0
 21
-2231.41015625
 31
0.0
  0
LINE
  8
0
 62
0
 10
19744.0109863
 20
-2231.41552734
 30
0.0
 11
19843.999939
 21
-2231.41552734
 31
0.0
  0
LINE
  8
0
 62
0
 10
19843.999939
 20
-2231.41552734
 30
0.0
 11
19843.999939
 21
-2081.41552734
 31
0.0
  0
LINE
  8
0
 62
0
 10
19594.0109863
 20
-2081.41552734
 30
0.0
 11
19843.999939
 21
-2081.41552734
 31
0.0
  0
LINE
  8
0
 62
0
 10
19744.0109863
 20
-3140.70849609
 30
0.0
 11
19744.0109863
 21
-2231.41552734
 31
0.0
  0
LINE
  8
0
 62
0
 10
19744.0109863
 20
-3140.70849609
 30
0.0
 11
19594.0109863
 21
-3140.70849609
 31
0.0
  0
LINE
  8
0
 62
0
 10
19594.0109863
 20
-3140.70849609
 30
0.0
 11
19594.0109863
 21
-2081.41552734
 31
0.0
  0
LINE
  8
0
 62
0
 10
19744.0109863
 20
-4940.70951172
 30
0.0
 11
19744.0109863
 21
-4940.70800781
 31
0.0
  0
LINE
  8
0
 62
0
 10
19744.0109863
 20
-5850.00195312
 30
0.0
 11
19744.0109863
 21
-4940.70951172
 31
0.0
  0
LINE
  8
0
 62
0
 10
19594.0109863
 20
-4940.70951172
 30
0.0
 11
19594.0109863
 21
-4940.70800781
 31
0.0
  0
LINE
  8
0
 62
0
 10
19594.0109863
 20
-4940.70951172
 30
0.0
 11
19744.0109863
 21
-4940.70951172
 31
0.0
  0
LINE
  8
0
 62
0
 10
19594.0109863
 20
-6000.00195312
 30
0.0
 11
19594.0109863
 21
-4940.70951172
 31
0.0
  0
LINE
  8
0
 62
0
 10
21244.0
 20
-5850.00195312
 30
0.0
 11
19744.0109863
 21
-5850.00195312
 31
0.0
  0
LINE
  8
0
 62
0
 10
21244.0
 20
-5850.00195312
 30
0.0
 11
21244.0
 21
-6000.00195312
 31
0.0
  0
LINE
  8
0
 62
0
 10
21244.0
 20
-6000.00195312
 30
0.0
 11
19594.0109863
 21
-6000.00195312
 31
0.0
  0
LINE
  8
0
 62
0
 10
22294.0012207
 20
-5850.00195312
 30
0.0
 11
21244.0
 21
-5850.00195312
 31
0.0
  0
LINE
  8
0
 62
0
 10
22294.0012207
 20
-6000.00195312
 30
0.0
 11
22294.0012207
 21
-5975.00244141
 31
0.0
  0
LINE
  8
0
 62
0
 10
22294.0012207
 20
-5875.00244141
 30
0.0
 11
22294.0012207
 21
-5850.00195312
 31
0.0
  0
LINE
  8
0
 62
0
 10
22294.0012207
 20
-6000.00195312
 30
0.0
 11
21244.0
 21
-6000.00195312
 31
0.0
  0
LINE
  8
0
 62
0
 10
17194.0117188
 20
6350.00097656
 30
0.0
 11
17194.0117188
 21
6070.14453125
 31
0.0
  0
LINE
  8
0
 62
0
 10
18567.6292725
 20
6070.14453125
 30
0.0
 11
17194.0117188
 21
6070.14453125
 31
0.0
  0
LINE
  8
0
 62
0
 10
18567.6292725
 20
6070.14453125
 30
0.0
 11
18567.6292725
 21
5970.14453125
 31
0.0
  0
LINE
  8
0
 62
0
 10
18567.6292725
 20
5970.14453125
 30
0.0
 11
18117.6324463
 21
5970.14453125
 31
0.0
  0
LINE
  8
0
 62
0
 10
18117.6324463
 20
5970.14453125
 30
0.0
 11
18117.6324463
 21
5570.14453125
 31
0.0
  0
LINE
  8
0
 62
0
 10
18117.6324463
 20
5570.14453125
 30
0.0
 11
18594.006
 21
5570.14453125
 31
0.0
  0
LINE
  8
0
 62
0
 10
18594.006
 20
5570.14453125
 30
0.0
 11
18594.006
 21
5420.14453125
 31
0.0
  0
LINE
  8
0
 62
0
 10
17967.6325684
 20
5420.14453125
 30
0.0
 11
18594.006
 21
5420.14453125
 31
0.0
  0
LINE
  8
0
 62
0
 10
17967.6325684
 20
5420.14453125
 30
0.0
 11
17967.6325684
 21
5920.14453125
 31
0.0
  0
LINE
  8
0
 62
0
 10
17967.6325684
 20
5920.14453125
 30
0.0
 11
16594.0058594
 21
5920.14453125
 31
0.0
  0
LINE
  8
0
 62
0
 10
16594.0058594
 20
5920.14453125
 30
0.0
 11
16594.0058594
 21
6070.14453125
 31
0.0
  0
LINE
  8
0
 62
0
 10
17094.0117188
 20
6070.14453125
 30
0.0
 11
16594.0058594
 21
6070.14453125
 31
0.0
  0
LINE
  8
0
 62
0
 10
17094.0117188
 20
6070.14453125
 30
0.0
 11
17094.0117188
 21
6450.00097656
 31
0.0
  0
LINE
  8
0
 62
0
 10
17094.0117188
 20
6450.00097656
 30
0.0
 11
17544.0133057
 21
6450.00048828
 31
0.0
  0
LINE
  8
0
 62
0
 10
17544.0133057
 20
6450.00048828
 30
0.0
 11
17544.0133057
 21
6350.00048828
 31
0.0
  0
LINE
  8
0
 62
0
 10
17194.0117188
 20
6350.00097656
 30
0.0
 11
17544.0133057
 21
6350.00048828
 31
0.0
  0
LINE
  8
0
 62
0
 10
19494.0066299
 20
5420.14453125
 30
0.0
 11
19594.0082092
 21
5420.14453125
 31
0.0
  0
LINE
  8
0
 62
0
 10
19494.0066299
 20
5570.14453125
 30
0.0
 11
19594.0082092
 21
5570.14453125
 31
0.0
  0
LINE
  8
0
 62
0
 10
19594.0082092
 20
5570.14453125
 30
0.0
 11
19594.0082092
 21
5420.14453125
 31
0.0
  0
LINE
  8
0
 62
0
 10
19494.0066299
 20
5570.14453125
 30
0.0
 11
19494.0066299
 21
5420.14453125
 31
0.0
  0
LINE
  8
0
 62
0
 10
19594.0092468
 20
7849.99609375
 30
0.0
 11
19744.0092468
 21
7849.99609375
 31
0.0
  0
LINE
  8
0
 62
0
 10
19594.0092468
 20
6400.04882813
 30
0.0
 11
19594.0092468
 21
3520.14453125
 31
0.0
  0
LINE
  8
0
 62
0
 10
19594.0092468
 20
7100.04443359
 30
0.0
 11
19594.0092468
 21
6400.04882812
 31
0.0
  0
LINE
  8
0
 62
0
 10
19594.0092468
 20
7849.99609375
 30
0.0
 11
19594.0092468
 21
7100.04443359
 31
0.0
  0
LINE
  8
0
 62
0
 10
19744.0092468
 20
6400.04882813
 30
0.0
 11
19744.0092468
 21
3520.14453125
 31
0.0
  0
LINE
  8
0
 62
0
 10
19744.0092468
 20
7100.04443359
 30
0.0
 11
19744.0092468
 21
6400.04882812
 31
0.0
  0
LINE
  8
0
 62
0
 10
19744.0092468
 20
7849.99609375
 30
0.0
 11
19744.0092468
 21
7100.04443359
 31
0.0
  0
LINE
  8
0
 62
0
 10
19594.0092468
 20
7100.04443359
 30
0.0
 11
19744.0092468
 21
7100.04443359
 31
0.0
  0
LINE
  8
0
 62
0
 10
19744.0092468
 20
3520.14453125
 30
0.0
 11
19594.0092468
 21
3520.14453125
 31
0.0
  0
LINE
  8
0
 62
0
 10
19594.0092468
 20
6400.04882813
 30
0.0
 11
19744.0092468
 21
6400.04882813
 31
0.0
  0
LINE
  8
0
 62
0
 10
19594.0092468
 20
2520.13969482
 30
0.0
 11
19594.0092468
 21
2420.14306641
 31
0.0
  0
LINE
  8
0
 62
0
 10
19594.0092468
 20
2520.13969482
 30
0.0
 11
19744.0092468
 21
2520.13969482
 31
0.0
  0
LINE
  8
0
 62
0
 10
19744.0092468
 20
2520.13969482
 30
0.0
 11
19744.0092468
 21
2420.14306641
 31
0.0
  0
LINE
  8
0
 62
0
 10
19744.0092468
 20
2420.14306641
 30
0.0
 11
19594.0092468
 21
2420.14306641
 31
0.0
  0
LINE
  8
0
 62
0
 10
20944.0015869
 20
3920.13916016
 30
0.0
 11
21094.0015869
 21
3920.13916016
 31
0.0
  0
LINE
  8
0
 62
0
 10
20944.0015869
 20
3920.13916016
 30
0.0
 11
20944.0015869
 21
4420.13916016
 31
0.0
  0
LINE
  8
0
 62
0
 10
21094.0015869
 20
3920.13916016
 30
0.0
 11
21094.0015869
 21
4420.13916016
 31
0.0
  0
LINE
  8
0
 62
0
 10
20944.0015869
 20
4420.13916016
 30
0.0
 11
20644.02
 21
4420.13916016
 31
0.0
  0
LINE
  8
0
 62
0
 10
20644.02
 20
4570.13916016
 30
0.0
 11
20644.02
 21
4420.13916016
 31
0.0
  0
LINE
  8
0
 62
0
 10
22293.9992676
 20
4570.13916016
 30
0.0
 11
20644.02
 21
4570.13916016
 31
0.0
  0
LINE
  8
0
 62
0
 10
22293.9992676
 20
4570.13916016
 30
0.0
 11
22293.9992676
 21
4420.13916016
 31
0.0
  0
LINE
  8
0
 62
0
 10
22293.9992676
 20
4420.13916016
 30
0.0
 11
21094.0015869
 21
4420.13916016
 31
0.0
  0
LINE
  8
0
 62
0
 10
19844.0140381
 20
4420.13916016
 30
0.0
 11
19744.0097656
 21
4420.13916016
 31
0.0
  0
LINE
  8
0
 62
0
 10
19744.0097656
 20
4420.13916016
 30
0.0
 11
19744.0097656
 21
4570.13916016
 31
0.0
  0
LINE
  8
0
 62
0
 10
19844.0140381
 20
4570.13916016
 30
0.0
 11
19744.0097656
 21
4570.13916016
 31
0.0
  0
LINE
  8
0
 62
0
 10
19844.0140381
 20
4570.13916016
 30
0.0
 11
19844.0140381
 21
4420.13916016
 31
0.0
  0
LINE
  8
0
 62
0
 10
19619.011467
 20
-279.855968535
 30
0.0
 11
19719.0102005
 21
-279.856014313
 31
0.0
  0
LINE
  8
0
 62
0
 10
19719.0102234
 20
-229.858944001
 30
0.0
 11
19619.0114899
 21
-229.858898222
 31
0.0
  0
LINE
  8
0
 62
0
 10
19619.011467
 20
-279.855968535
 30
0.0
 11
19619.0114899
 21
-229.858898222
 31
0.0
  0
LINE
  8
0
 62
0
 10
19719.0102005
 20
-279.856014313
 30
0.0
 11
19719.0102234
 21
-229.858944001
 31
0.0
  0
LINE
  8
0
 62
0
 10
19619.0113297
 20
-1180.62879568
 30
0.0
 11
19719.0100631
 21
-1180.62884146
 31
0.0
  0
LINE
  8
0
 62
0
 10
19719.010086
 20
-1130.63177115
 30
0.0
 11
19619.0113526
 21
-1130.63172537
 31
0.0
  0
LINE
  8
0
 62
0
 10
19619.0113297
 20
-1180.62879568
 30
0.0
 11
19619.0113526
 21
-1130.63172537
 31
0.0
  0
LINE
  8
0
 62
0
 10
19719.0100631
 20
-1180.62884146
 30
0.0
 11
19719.010086
 21
-1130.63177115
 31
0.0
  0
LINE
  8
0
 62
0
 10
19619.0111924
 20
-2081.41102224
 30
0.0
 11
19719.0099258
 21
-2081.41106802
 31
0.0
  0
LINE
  8
0
 62
0
 10
19719.0099487
 20
-2031.41399771
 30
0.0
 11
19619.0112152
 21
-2031.41395193
 31
0.0
  0
LINE
  8
0
 62
0
 10
19619.0111924
 20
-2081.41102224
 30
0.0
 11
19619.0112152
 21
-2031.41395193
 31
0.0
  0
LINE
  8
0
 62
0
 10
19719.0099258
 20
-2081.41106802
 30
0.0
 11
19719.0099487
 21
-2031.41399771
 31
0.0
  0
LINE
  8
0
 62
0
 10
19619.0108032
 20
-279.861206134
 30
0.0
 11
19644.0046938
 21
-279.861209272
 31
0.0
  0
LINE
  8
0
 62
0
 10
19694.0046946
 20
-279.861215549
 30
0.0
 11
19719.0107714
 21
-279.861218688
 31
0.0
  0
LINE
  8
0
 62
0
 10
19619.0106964
 20
-1130.64147957
 30
0.0
 11
19619.0113526
 21
-1130.64147957
 31
0.0
  0
LINE
  8
0
 62
0
 10
19719.010086
 20
-1130.64149213
 30
0.0
 11
19719.0106645
 21
-1130.64149213
 31
0.0
  0
LINE
  8
0
 62
0
 10
19619.0108032
 20
-279.861206134
 30
0.0
 11
19619.0106964
 21
-1130.64147957
 31
0.0
  0
LINE
  8
0
 62
0
 10
19719.0107714
 20
-279.861218688
 30
0.0
 11
19719.0106645
 21
-1130.64149213
 31
0.0
  0
LINE
  8
0
 62
0
 10
19619.0106659
 20
-1180.63403328
 30
0.0
 11
19644.0045624
 21
-1180.63403642
 31
0.0
  0
LINE
  8
0
 62
0
 10
19694.0045471
 20
-1180.6340427
 30
0.0
 11
19719.010634
 21
-1180.63404584
 31
0.0
  0
LINE
  8
0
 62
0
 10
19619.0105591
 20
-2031.41430672
 30
0.0
 11
19619.0112152
 21
-2031.41430672
 31
0.0
  0
LINE
  8
0
 62
0
 10
19719.0099487
 20
-2031.41431927
 30
0.0
 11
19719.0105272
 21
-2031.41431927
 31
0.0
  0
LINE
  8
0
 62
0
 10
19619.0106659
 20
-1180.63403328
 30
0.0
 11
19619.0105591
 21
-2031.41430672
 31
0.0
  0
LINE
  8
0
 62
0
 10
19719.010634
 20
-1180.63404584
 30
0.0
 11
19719.0105272
 21
-2031.41431927
 31
0.0
  0
LINE
  8
0
 62
0
 10
19619.0107956
 20
-279.861515142
 30
0.0
 11
19619.0108032
 21
-279.861515142
 31
0.0
  0
LINE
  8
0
 62
0
 10
19619.0106888
 20
-1130.64178858
 30
0.0
 11
19619.0113526
 21
-1130.64178858
 31
0.0
  0
LINE
  8
0
 62
0
 10
19719.010086
 20
-1130.64180113
 30
0.0
 11
19719.0106569
 21
-1130.64180113
 31
0.0
  0
LINE
  8
0
 62
0
 10
19619.0107956
 20
-279.861515142
 30
0.0
 11
19619.0106888
 21
-1130.64178858
 31
0.0
  0
LINE
  8
0
 62
0
 10
19719.0106569
 20
-1130.64149213
 30
0.0
 11
19719.0106569
 21
-1130.64180113
 31
0.0
  0
LINE
  8
0
 62
0
 10
19619.0106583
 20
-1180.63434229
 30
0.0
 11
19619.0106659
 21
-1180.63434229
 31
0.0
  0
LINE
  8
0
 62
0
 10
19619.0105515
 20
-2031.41461573
 30
0.0
 11
19619.0112152
 21
-2031.41461573
 31
0.0
  0
LINE
  8
0
 62
0
 10
19719.0099487
 20
-2031.41462828
 30
0.0
 11
19719.0105196
 21
-2031.41462828
 31
0.0
  0
LINE
  8
0
 62
0
 10
19619.0106583
 20
-1180.63434229
 30
0.0
 11
19619.0105515
 21
-2031.41461573
 31
0.0
  0
LINE
  8
0
 62
0
 10
19719.0105196
 20
-2031.41431927
 30
0.0
 11
19719.0105196
 21
-2031.41462828
 31
0.0
  0
LINE
  8
0
 62
0
 10
18272.3843994
 20
2270.14453125
 30
0.0
 11
18372.3843994
 21
2270.14453125
 31
0.0
  0
LINE
  8
0
 62
0
 10
18372.3843994
 20
-79.86068726
 30
0.0
 11
18272.3843994
 21
-79.86068726
 31
0.0
  0
LINE
  8
0
 62
0
 10
18272.3843994
 20
-29.866455078
 30
0.0
 11
18272.3843994
 21
-79.86068726
 31
0.0
  0
LINE
  8
0
 62
0
 10
18272.3843994
 20
-29.866455078
 30
0.0
 11
18272.3843994
 21
482.640258789
 31
0.0
  0
LINE
  8
0
 62
0
 10
18272.3843994
 20
532.637390135
 30
0.0
 11
18272.3843994
 21
482.640258789
 31
0.0
  0
LINE
  8
0
 62
0
 10
18272.3843994
 20
532.637390135
 30
0.0
 11
18272.3843994
 21
1070.1451416
 31
0.0
  0
LINE
  8
0
 62
0
 10
18272.3843994
 20
1120.13769532
 30
0.0
 11
18272.3843994
 21
1070.1451416
 31
0.0
  0
LINE
  8
0
 62
0
 10
18272.3843994
 20
1120.13769532
 30
0.0
 11
18272.3843994
 21
1657.64355469
 31
0.0
  0
LINE
  8
0
 62
0
 10
18272.3843994
 20
1707.640625
 30
0.0
 11
18272.3843994
 21
1657.64355469
 31
0.0
  0
LINE
  8
0
 62
0
 10
18272.3843994
 20
1707.640625
 30
0.0
 11
18272.3843994
 21
2220.14746094
 31
0.0
  0
LINE
  8
0
 62
0
 10
18272.3843994
 20
2270.14453125
 30
0.0
 11
18272.3843994
 21
2220.14746094
 31
0.0
  0
LINE
  8
0
 62
0
 10
18372.3843994
 20
-29.866455078
 30
0.0
 11
18372.3843994
 21
-79.86068726
 31
0.0
  0
LINE
  8
0
 62
0
 10
18372.3843994
 20
-29.866455078
 30
0.0
 11
18372.3843994
 21
482.640258789
 31
0.0
  0
LINE
  8
0
 62
0
 10
18372.3843994
 20
532.637390135
 30
0.0
 11
18372.3843994
 21
482.640258789
 31
0.0
  0
LINE
  8
0
 62
0
 10
18372.3843994
 20
532.637390135
 30
0.0
 11
18372.3843994
 21
1070.1451416
 31
0.0
  0
LINE
  8
0
 62
0
 10
18372.3843994
 20
1120.13769532
 30
0.0
 11
18372.3843994
 21
1070.1451416
 31
0.0
  0
LINE
  8
0
 62
0
 10
18372.3843994
 20
1120.13769532
 30
0.0
 11
18372.3843994
 21
1657.64355469
 31
0.0
  0
LINE
  8
0
 62
0
 10
18372.3843994
 20
1707.640625
 30
0.0
 11
18372.3843994
 21
1657.64355469
 31
0.0
  0
LINE
  8
0
 62
0
 10
18372.3843994
 20
1707.640625
 30
0.0
 11
18372.3843994
 21
2220.14746094
 31
0.0
  0
LINE
  8
0
 62
0
 10
18372.3843994
 20
2270.14453125
 30
0.0
 11
18372.3843994
 21
2220.14746094
 31
0.0
  0
LINE
  8
0
 62
0
 10
18372.3843994
 20
2220.14746094
 30
0.0
 11
18272.3843994
 21
2220.14746094
 31
0.0
  0
LINE
  8
0
 62
0
 10
18272.3843994
 20
-29.866455078
 30
0.0
 11
18372.3843994
 21
-29.866455078
 31
0.0
  0
LINE
  8
0
 62
0
 10
18372.3843994
 20
482.640258789
 30
0.0
 11
18272.3843994
 21
482.640258789
 31
0.0
  0
LINE
  8
0
 62
0
 10
18272.3843994
 20
532.637390135
 30
0.0
 11
18372.3843994
 21
532.637390135
 31
0.0
  0
LINE
  8
0
 62
0
 10
18372.3843994
 20
1070.1451416
 30
0.0
 11
18272.3843994
 21
1070.1451416
 31
0.0
  0
LINE
  8
0
 62
0
 10
18272.3843994
 20
1120.13769532
 30
0.0
 11
18372.3843994
 21
1120.13769532
 31
0.0
  0
LINE
  8
0
 62
0
 10
18372.3843994
 20
1657.64355469
 30
0.0
 11
18272.3843994
 21
1657.64355469
 31
0.0
  0
LINE
  8
0
 62
0
 10
18272.3843994
 20
1707.640625
 30
0.0
 11
18372.3843994
 21
1707.640625
 31
0.0
  0
LINE
  8
0
 62
0
 10
18297.378418
 20
2220.14746094
 30
0.0
 11
18297.378418
 21
1707.640625
 31
0.0
  0
LINE
  8
0
 62
0
 10
18347.378418
 20
1707.640625
 30
0.0
 11
18297.378418
 21
1707.640625
 31
0.0
  0
LINE
  8
0
 62
0
 10
18347.378418
 20
2220.14746094
 30
0.0
 11
18297.378418
 21
2220.14746094
 31
0.0
  0
LINE
  8
0
 62
0
 10
18347.378418
 20
2220.14746094
 30
0.0
 11
18347.378418
 21
1707.640625
 31
0.0
  0
LINE
  8
0
 62
0
 10
18297.378418
 20
482.64050293
 30
0.0
 11
18297.378418
 21
-29.8662109375
 31
0.0
  0
LINE
  8
0
 62
0
 10
18347.378418
 20
-29.8662109375
 30
0.0
 11
18297.378418
 21
-29.8662109375
 31
0.0
  0
LINE
  8
0
 62
0
 10
18347.378418
 20
482.64050293
 30
0.0
 11
18297.378418
 21
482.64050293
 31
0.0
  0
LINE
  8
0
 62
0
 10
18347.378418
 20
482.64050293
 30
0.0
 11
18347.378418
 21
-29.8662109375
 31
0.0
  0
LINE
  8
0
 62
0
 10
18297.378418
 20
1657.64355469
 30
0.0
 11
18297.378418
 21
1120.13916016
 31
0.0
  0
LINE
  8
0
 62
0
 10
18347.378418
 20
1120.13916016
 30
0.0
 11
18297.378418
 21
1120.13916016
 31
0.0
  0
LINE
  8
0
 62
0
 10
18347.378418
 20
1657.64355469
 30
0.0
 11
18297.378418
 21
1657.64355469
 31
0.0
  0
LINE
  8
0
 62
0
 10
18347.378418
 20
1657.64355469
 30
0.0
 11
18347.378418
 21
1120.13916016
 31
0.0
  0
LINE
  8
0
 62
0
 10
18297.378418
 20
1070.1451416
 30
0.0
 11
18297.378418
 21
532.637573242
 31
0.0
  0
LINE
  8
0
 62
0
 10
18347.378418
 20
532.637573242
 30
0.0
 11
18297.378418
 21
532.637573242
 31
0.0
  0
LINE
  8
0
 62
0
 10
18347.378418
 20
1070.1451416
 30
0.0
 11
18297.378418
 21
1070.1451416
 31
0.0
  0
LINE
  8
0
 62
0
 10
18347.378418
 20
1070.1451416
 30
0.0
 11
18347.378418
 21
532.637573242
 31
0.0
  0
LINE
  8
0
 62
0
 10
19619.0099791
 20
-229.860671997
 30
0.0
 11
19619.0099791
 21
-229.860961914
 31
0.0
  0
LINE
  8
0
 62
0
 10
19719.010643
 20
-229.860671997
 30
0.0
 11
19719.010643
 21
-229.860961914
 31
0.0
  0
LINE
  8
0
 62
0
 10
19101.5535177
 20
-79.8606872559
 30
0.0
 11
18397.3828125
 21
-79.860577522
 31
0.0
  0
LINE
  8
0
 62
0
 10
19297.3872681
 20
-79.8606872559
 30
0.0
 11
19297.3876343
 21
2270.13745117
 31
0.0
  0
LINE
  8
0
 62
0
 10
18397.3828125
 20
-79.860577522
 30
0.0
 11
18397.3831787
 21
2270.13745117
 31
0.0
  0
LINE
  8
0
 62
0
 10
19101.5535177
 20
-79.8606872559
 30
0.0
 11
19003.6554412
 21
-79.860672
 31
0.0
  0
LINE
  8
0
 62
0
 10
19744.0106812
 20
-79.8606872559
 30
0.0
 11
18247.3828125
 21
-79.8606872559
 31
0.0
  0
LINE
  8
0
 62
0
 10
19744.0106812
 20
-79.8606872559
 30
0.0
 11
19744.0106812
 21
-229.860671997
 31
0.0
  0
LINE
  8
0
 62
0
 10
18247.3828125
 20
-79.8606872559
 30
0.0
 11
18247.3828125
 21
-229.860671997
 31
0.0
  0
LINE
  8
0
 62
0
 10
19744.0106812
 20
-229.860671997
 30
0.0
 11
18247.3828125
 21
-229.860671997
 31
0.0
  0
LINE
  8
0
 62
0
 10
19744.0106812
 20
2420.13745117
 30
0.0
 11
18247.3828125
 21
2420.13745117
 31
0.0
  0
LINE
  8
0
 62
0
 10
19744.0106812
 20
2420.13745117
 30
0.0
 11
19744.0106812
 21
2270.13745117
 31
0.0
  0
LINE
  8
0
 62
0
 10
18247.3828125
 20
2420.13745117
 30
0.0
 11
18247.3828125
 21
2270.13745117
 31
0.0
  0
LINE
  8
0
 62
0
 10
19744.0106812
 20
2270.13745117
 30
0.0
 11
18247.3828125
 21
2270.13745117
 31
0.0
  0
LINE
  8
0
 62
0
 10
22294.0026855
 20
1625.74829101
 30
0.0
 11
21094.0056152
 21
1625.74829101
 31
0.0
  0
LINE
  8
0
 62
0
 10
22294.0026855
 20
1890.54565429
 30
0.0
 11
21094.0056152
 21
1890.54565429
 31
0.0
  0
LINE
  8
0
 62
0
 10
22294.0026855
 20
1625.74829101
 30
0.0
 11
22294.0026855
 21
1890.54565429
 31
0.0
  0
LINE
  8
0
 62
0
 10
22294.0026855
 20
1360.95117187
 30
0.0
 11
21094.0056152
 21
1360.95117187
 31
0.0
  0
LINE
  8
0
 62
0
 10
22294.0026855
 20
1360.95117187
 30
0.0
 11
22294.0026855
 21
1625.74829101
 31
0.0
  0
LINE
  8
0
 62
0
 10
22294.0026855
 20
1096.15380859
 30
0.0
 11
21094.0056152
 21
1096.15380859
 31
0.0
  0
LINE
  8
0
 62
0
 10
22294.0026855
 20
1096.15380859
 30
0.0
 11
22294.0026855
 21
1360.95117187
 31
0.0
  0
LINE
  8
0
 62
0
 10
22294.0026855
 20
831.356689451
 30
0.0
 11
21094.0056152
 21
831.356689451
 31
0.0
  0
LINE
  8
0
 62
0
 10
22294.0026855
 20
1096.15380859
 30
0.0
 11
22294.0026855
 21
831.356689451
 31
0.0
  0
LINE
  8
0
 62
0
 10
22294.0026855
 20
566.55957031
 30
0.0
 11
21094.0056152
 21
566.55957031
 31
0.0
  0
LINE
  8
0
 62
0
 10
22294.0026855
 20
566.55957031
 30
0.0
 11
22294.0026855
 21
831.356689451
 31
0.0
  0
LINE
  8
0
 62
0
 10
22294.0026855
 20
566.55957031
 30
0.0
 11
22294.0026855
 21
434.161440871
 31
0.0
  0
LINE
  8
0
 62
0
 10
22294.0026855
 20
301.762207029
 30
0.0
 11
21094.0056152
 21
301.762207029
 31
0.0
  0
LINE
  8
0
 62
0
 10
22294.0026855
 20
434.161440871
 30
0.0
 11
22294.0026855
 21
301.762207029
 31
0.0
  0
LINE
  8
0
 62
0
 10
22294.0026855
 20
301.762207029
 30
0.0
 11
21094.0056152
 21
301.762207029
 31
0.0
  0
LINE
  8
0
 62
0
 10
22294.0026855
 20
36.9650878881
 30
0.0
 11
21094.0056152
 21
36.9650878881
 31
0.0
  0
LINE
  8
0
 62
0
 10
22294.0026855
 20
36.9650878881
 30
0.0
 11
22294.0026855
 21
301.762207029
 31
0.0
  0
LINE
  8
0
 62
0
 10
22294.0026855
 20
-227.832275393
 30
0.0
 11
21094.0056152
 21
-227.832275393
 31
0.0
  0
LINE
  8
0
 62
0
 10
22294.0026855
 20
36.9650878881
 30
0.0
 11
22294.0026855
 21
-227.832275393
 31
0.0
  0
LINE
  8
0
 62
0
 10
22294.0026855
 20
-227.832275393
 30
0.0
 11
21094.0056152
 21
-227.832275393
 31
0.0
  0
LINE
  8
0
 62
0
 10
22294.0026855
 20
-492.629394534
 30
0.0
 11
21094.0056152
 21
-492.629394534
 31
0.0
  0
LINE
  8
0
 62
0
 10
22294.0026855
 20
-492.629394534
 30
0.0
 11
22294.0026855
 21
-227.832275393
 31
0.0
  0
LINE
  8
0
 62
0
 10
22294.0026855
 20
-757.426513675
 30
0.0
 11
21094.0056152
 21
-757.426513675
 31
0.0
  0
LINE
  8
0
 62
0
 10
22294.0026855
 20
-757.426513675
 30
0.0
 11
22294.0026855
 21
-492.629394534
 31
0.0
  0
LINE
  8
0
 62
0
 10
22294.0026855
 20
-1022.22387696
 30
0.0
 11
21094.0056152
 21
-1022.22387696
 31
0.0
  0
LINE
  8
0
 62
0
 10
22294.0026855
 20
-1022.22387696
 30
0.0
 11
22294.0026855
 21
-757.426513675
 31
0.0
  0
LINE
  8
0
 62
0
 10
22294.0026855
 20
-1287.0209961
 30
0.0
 11
21094.0056152
 21
-1287.0209961
 31
0.0
  0
LINE
  8
0
 62
0
 10
22294.0026855
 20
-1287.0209961
 30
0.0
 11
22294.0026855
 21
-1022.22387696
 31
0.0
  0
LINE
  8
0
 62
0
 10
22294.0026855
 20
-1551.81811524
 30
0.0
 11
21094.0056152
 21
-1551.81811524
 31
0.0
  0
LINE
  8
0
 62
0
 10
22294.0026855
 20
-1551.81811524
 30
0.0
 11
22294.0026855
 21
-1287.0209961
 31
0.0
  0
LINE
  8
0
 62
0
 10
22294.0026855
 20
-1816.61535645
 30
0.0
 11
21094.0056152
 21
-1816.61535645
 31
0.0
  0
LINE
  8
0
 62
0
 10
22294.0026855
 20
-1816.61535645
 30
0.0
 11
22294.0026855
 21
-1551.81811524
 31
0.0
  0
LINE
  8
0
 62
0
 10
22294.0026855
 20
-2081.41259766
 30
0.0
 11
21094.0056152
 21
-2081.41259766
 31
0.0
  0
LINE
  8
0
 62
0
 10
22294.0026855
 20
-2081.41259766
 30
0.0
 11
22294.0026855
 21
-1816.61535645
 31
0.0
  0
LINE
  8
0
 62
0
 10
22294.0026855
 20
2420.14013672
 30
0.0
 11
21094.0056152
 21
2420.14013672
 31
0.0
  0
LINE
  8
0
 62
0
 10
22294.0026855
 20
2155.34277344
 30
0.0
 11
21094.0056152
 21
2155.34277344
 31
0.0
  0
LINE
  8
0
 62
0
 10
22294.0026855
 20
2420.14013672
 30
0.0
 11
22294.0026855
 21
2155.34277344
 31
0.0
  0
LINE
  8
0
 62
0
 10
21094.0056152
 20
2420.14013672
 30
0.0
 11
21094.0056152
 21
2155.34277344
 31
0.0
  0
LINE
  8
0
 62
0
 10
22294.0026855
 20
1890.54565429
 30
0.0
 11
21094.0056152
 21
1890.54565429
 31
0.0
  0
LINE
  8
0
 62
0
 10
22294.0026855
 20
2155.34277344
 30
0.0
 11
22294.0026855
 21
1890.54565429
 31
0.0
  0
LINE
  8
0
 62
0
 10
16444.0070801
 20
-6000.00195312
 30
0.0
 11
22294.0078125
 21
-6000.00290528
 31
0.0
  0
LINE
  8
0
 62
0
 10
22294.0078125
 20
-2081.41308594
 30
0.0
 11
21094.0056152
 21
-2081.41308594
 31
0.0
  0
LINE
  8
0
 62
0
 10
21094.0056152
 20
-2081.41308594
 30
0.0
 11
21094.0056152
 21
2420.14013672
 31
0.0
  0
LINE
  8
0
 62
0
 10
21094.0056152
 20
2420.14013672
 30
0.0
 11
22294.0078125
 21
2420.14013672
 31
0.0
  0
LINE
  8
0
 62
0
 10
22444.0043945
 20
4570.13769531
 30
0.0
 11
22444.0043945
 21
4570.13818359
 31
0.0
  0
LINE
  8
0
 62
0
 10
22444.0043945
 20
4570.13818359
 30
0.0
 11
22294.0046387
 21
4570.13818359
 31
0.0
  0
LINE
  8
0
 62
0
 10
22294.0046387
 20
4570.13818359
 30
0.0
 11
22294.0048828
 21
5570.13818359
 31
0.0
  0
LINE
  8
0
 62
0
 10
22294.0048828
 20
5570.13818359
 30
0.0
 11
19744.0092468
 21
5570.13818359
 31
0.0
  0
LINE
  8
0
 62
0
 10
19744.0080352
 20
7849.99609375
 30
0.0
 11
19744.0080352
 21
7850.0
 31
0.0
  0
LINE
  8
0
 62
0
 10
16444.0078125
 20
7999.99804688
 30
0.0
 11
16444.0073242
 21
7999.99804688
 31
0.0
  0
LINE
  8
0
 62
0
 10
16444.0073242
 20
7999.99804688
 30
0.0
 11
16444.0070801
 21
2420.14038086
 31
0.0
  0
LINE
  8
0
 62
0
 10
16444.0070801
 20
2420.14038086
 30
0.0
 11
16444.0078125
 21
2420.14038086
 31
0.0
  0
LINE
  8
0
 62
0
 10
16594.0078125
 20
2420.14038086
 30
0.0
 11
16594.0087891
 21
2420.14038086
 31
0.0
  0
LINE
  8
0
 62
0
 10
16594.0087891
 20
2420.14038086
 30
0.0
 11
16594.0087891
 21
2270.14404297
 31
0.0
  0
LINE
  8
0
 62
0
 10
16594.0087891
 20
2270.14404297
 30
0.0
 11
16594.012207
 21
2270.14404297
 31
0.0
  0
LINE
  8
0
 62
0
 10
18247.3828125
 20
1149.45214424
 30
0.0
 11
18247.3810718
 21
-79.860672
 31
0.0
  0
LINE
  8
0
 62
0
 10
18247.3812256
 20
-79.860672
 30
0.0
 11
18247.3810718
 21
-79.860672
 31
0.0
  0
LINE
  8
0
 62
0
 10
19744.0090943
 20
-79.860672
 30
0.0
 11
19297.3872681
 21
-79.860672
 31
0.0
  0
LINE
  8
0
 62
0
 10
19003.6554412
 20
-79.860672
 30
0.0
 11
18397.3828125
 21
-79.860672
 31
0.0
  0
LINE
  8
0
 62
0
 10
18247.3828125
 20
-79.860672
 30
0.0
 11
18247.3812256
 21
-79.860672
 31
0.0
  0
LINE
  8
0
 62
0
 10
19744.0090943
 20
-79.860672
 30
0.0
 11
19744.0090943
 21
-79.8606872559
 31
0.0
  0
LINE
  8
0
 62
0
 10
19744.0090943
 20
-229.860671997
 30
0.0
 11
19744.0090943
 21
-229.860961914
 31
0.0
  0
LINE
  8
0
 62
0
 10
19744.0090943
 20
-229.860961914
 30
0.0
 11
19719.0102234
 21
-229.860961914
 31
0.0
  0
LINE
  8
0
 62
0
 10
19619.0114899
 20
-229.860961914
 30
0.0
 11
19594.0072174
 21
-229.860961914
 31
0.0
  0
LINE
  8
0
 62
0
 10
19594.0072174
 20
-229.860961914
 30
0.0
 11
19594.0072021
 21
-2081.41308594
 31
0.0
  0
LINE
  8
0
 62
0
 10
19594.0072021
 20
-2081.41308594
 30
0.0
 11
16594.0078125
 21
-2081.41308594
 31
0.0
  0
LINE
  8
0
 62
0
 10
16444.0078125
 20
-2081.41308594
 30
0.0
 11
16444.0068359
 21
-2081.41308594
 31
0.0
  0
LINE
  8
0
 62
0
 10
16444.0068359
 20
-2081.41308594
 30
0.0
 11
16444.0070801
 21
-6000.00195312
 31
0.0
  0
LINE
  8
0
 62
0
 10
19744.0106812
 20
2270.13745117
 30
0.0
 11
19744.0102555
 21
2270.13745117
 31
0.0
  0
LINE
  8
0
 62
0
 10
16594.012207
 20
2270.14306641
 30
0.0
 11
18247.3828125
 21
2270.13745117
 31
0.0
  0
LINE
  8
0
 62
0
 10
18247.3828125
 20
-229.860671997
 30
0.0
 11
18247.3828125
 21
-2081.4128418
 31
0.0
  0
LINE
  8
0
 62
0
 10
18247.3828125
 20
-2081.4128418
 30
0.0
 11
16594.0078125
 21
-2081.41210937
 31
0.0
  0
LINE
  8
0
 62
0
 10
22294.0032915
 20
-2081.41308594
 30
0.0
 11
22294.0026855
 21
-1556.24402863
 31
0.0
  0
LINE
  8
0
 62
0
 10
22293.9944635
 20
5570.13818359
 30
0.0
 11
22293.9941406
 21
5849.99853516
 31
0.0
  0
LINE
  8
0
 62
0
 10
22293.9941406
 20
5849.99853516
 30
0.0
 11
19744.0092468
 21
5849.99853516
 31
0.0
  0
LINE
  8
0
 62
0
 10
19744.0092468
 20
6318.74590734
 30
0.0
 11
19744.0107422
 21
7850.0
 31
0.0
  0
LINE
  8
0
 62
0
 10
19744.0107422
 20
7850.0
 30
0.0
 11
19744.0080352
 21
7850.0
 31
0.0
  0
LINE
  8
0
 62
0
 10
16594.012207
 20
2270.14404297
 30
0.0
 11
16594.012207
 21
2270.14306697
 31
0.0
  0
LINE
  8
0
 62
0
 10
22294.0078125
 20
7850.0
 30
0.0
 11
22294.0078125
 21
6070.14013672
 31
0.0
  0
LINE
  8
0
 62
0
 10
22294.0075684
 20
5849.99853516
 30
0.0
 11
19744.0092468
 21
5849.99853516
 31
0.0
  0
LINE
  8
0
 62
0
 10
18247.3828125
 20
2270.13745117
 30
0.0
 11
18247.3828125
 21
1149.45214408
 31
0.0
  0
LINE
  8
0
 62
0
 10
18247.3828125
 20
-79.860672
 30
0.0
 11
18247.3828125
 21
-2081.4128418
 31
0.0
  0
LINE
  8
0
 62
0
 10
16594.0242003
 20
-2081.41210938
 30
0.0
 11
16594.0242003
 21
2270.14306637
 31
0.0
  0
LINE
  8
0
 62
0
 10
18117.6325684
 20
5970.1430664
 30
0.0
 11
18567.6239014
 21
5970.14306641
 31
0.0
  0
LINE
  8
0
 62
0
 10
18567.6239014
 20
5970.14306641
 30
0.0
 11
18567.6239014
 21
5570.14550781
 31
0.0
  0
LINE
  8
0
 62
0
 10
18567.6239014
 20
5570.14550781
 30
0.0
 11
18117.6325684
 21
5570.14550781
 31
0.0
  0
LINE
  8
0
 62
0
 10
18117.6325684
 20
5570.14550781
 30
0.0
 11
18117.6325684
 21
5970.1430664
 31
0.0
  0
LINE
  8
0
 62
0
 10
18567.6239014
 20
5970.14306641
 30
0.0
 11
18567.6239014
 21
5570.14550781
 31
0.0
  0
LINE
  8
0
 62
0
 10
18567.6239014
 20
5970.14299317
 30
0.0
 11
18567.6239665
 21
5970.14299317
 31
0.0
  0
LINE
  8
0
 62
0
 10
18567.6239665
 20
5970.14299317
 30
0.0
 11
18567.6239665
 21
5570.14543458
 31
0.0
  0
LINE
  8
0
 62
0
 10
18567.6239665
 20
5570.14543458
 30
0.0
 11
18117.6326335
 21
5570.14543457
 31
0.0
  0
LINE
  8
0
 62
0
 10
18117.6326335
 20
5570.14543457
 30
0.0
 11
18117.6326335
 21
5570.14550781
 31
0.0
  0
LINE
  8
0
 62
0
 10
19544.012085
 20
-5965.00195312
 30
0.0
 11
16644.0063477
 21
-5965.00195312
 31
0.0
  0
LINE
  8
0
 62
0
 10
19544.012085
 20
-5965.00195312
 30
0.0
 11
19544.012085
 21
-5885.00195312
 31
0.0
  0
LINE
  8
0
 62
0
 10
19544.012085
 20
-5885.00195312
 30
0.0
 11
16644.0063477
 21
-5885.00195312
 31
0.0
  0
LINE
  8
0
 62
0
 10
16644.0063477
 20
-5965.00195312
 30
0.0
 11
16644.0063477
 21
-5885.00195312
 31
0.0
  0
LINE
  8
0
 62
0
 10
19544.012085
 20
-2196.41333008
 30
0.0
 11
16644.0063477
 21
-2196.41333008
 31
0.0
  0
LINE
  8
0
 62
0
 10
19544.012085
 20
-2196.41333008
 30
0.0
 11
19544.012085
 21
-2116.41333008
 31
0.0
  0
LINE
  8
0
 62
0
 10
19544.012085
 20
-2116.41333008
 30
0.0
 11
16644.0063477
 21
-2116.41333008
 31
0.0
  0
LINE
  8
0
 62
0
 10
16644.0063477
 20
-2196.41333008
 30
0.0
 11
16644.0063477
 21
-2116.41333008
 31
0.0
  0
LINE
  8
0
 62
0
 10
22244.0073242
 20
5450.13818359
 30
0.0
 11
19794.0072021
 21
5450.13818359
 31
0.0
  0
LINE
  8
0
 62
0
 10
22244.0073242
 20
5450.13818359
 30
0.0
 11
22244.0073242
 21
5530.13818359
 31
0.0
  0
LINE
  8
0
 62
0
 10
22244.0073242
 20
5530.13818359
 30
0.0
 11
19794.0072021
 21
5530.13818359
 31
0.0
  0
LINE
  8
0
 62
0
 10
19794.0072021
 20
5450.13818359
 30
0.0
 11
19794.0072021
 21
5530.13818359
 31
0.0
  0
LINE
  8
0
 62
0
 10
19709.7973785
 20
-3220.70532227
 30
0.0
 11
19709.7974091
 21
-3960.70525683
 31
0.0
  0
LINE
  8
0
 62
0
 10
19709.7974091
 20
-3960.70525683
 30
0.0
 11
19689.7974091
 21
-3960.70525683
 31
0.0
  0
LINE
  8
0
 62
0
 10
19689.7974091
 20
-3960.70525683
 30
0.0
 11
19689.7973785
 21
-3220.70532227
 31
0.0
  0
LINE
  8
0
 62
0
 10
19709.7973785
 20
-3220.70532227
 30
0.0
 11
19689.7973785
 21
-3220.70532227
 31
0.0
  0
LINE
  8
0
 62
0
 10
19659.7973785
 20
-4120.70532227
 30
0.0
 11
19659.7974091
 21
-4860.70525683
 31
0.0
  0
LINE
  8
0
 62
0
 10
19659.7974091
 20
-4860.70525683
 30
0.0
 11
19639.7974091
 21
-4860.70525683
 31
0.0
  0
LINE
  8
0
 62
0
 10
19639.7974091
 20
-4860.70525683
 30
0.0
 11
19639.7973785
 21
-4120.70532227
 31
0.0
  0
LINE
  8
0
 62
0
 10
19659.7973785
 20
-4120.70532227
 30
0.0
 11
19639.7973785
 21
-4120.70532227
 31
0.0
  0
LINE
  8
0
 62
0
 10
18594.0062828
 20
5570.14501953
 30
0.0
 11
18644.0062828
 21
5570.14501953
 31
0.0
  0
LINE
  8
0
 62
0
 10
18594.0062828
 20
5420.14501953
 30
0.0
 11
18594.0062828
 21
5570.14501953
 31
0.0
  0
LINE
  8
0
 62
0
 10
18644.0062828
 20
5570.14501953
 30
0.0
 11
18644.0062828
 21
5420.14501953
 31
0.0
  0
LINE
  8
0
 62
0
 10
18644.0062828
 20
5420.14501953
 30
0.0
 11
18594.0062828
 21
5420.14501953
 31
0.0
  0
LINE
  8
0
 62
0
 10
19444.006649
 20
5570.14501953
 30
0.0
 11
19494.006649
 21
5570.14501953
 31
0.0
  0
LINE
  8
0
 62
0
 10
19494.006649
 20
5420.14501953
 30
0.0
 11
19494.006649
 21
5570.14501953
 31
0.0
  0
LINE
  8
0
 62
0
 10
19494.006649
 20
5420.14501953
 30
0.0
 11
19444.006649
 21
5420.14501953
 31
0.0
  0
LINE
  8
0
 62
0
 10
19444.006649
 20
5420.14501953
 30
0.0
 11
19444.006649
 21
5570.14501953
 31
0.0
  0
LINE
  8
0
 62
0
 10
20644.0167236
 20
4570.13964844
 30
0.0
 11
20644.0167236
 21
4420.13916015
 31
0.0
  0
LINE
  8
0
 62
0
 10
20594.0167236
 20
4420.13916015
 30
0.0
 11
20594.0167236
 21
4570.13964844
 31
0.0
  0
LINE
  8
0
 62
0
 10
20644.0167236
 20
4570.13964844
 30
0.0
 11
20594.0167236
 21
4570.13964844
 31
0.0
  0
LINE
  8
0
 62
0
 10
20644.0167236
 20
4420.13916015
 30
0.0
 11
20594.0167236
 21
4420.13916015
 31
0.0
  0
LINE
  8
0
 62
0
 10
19894.0168457
 20
4570.13964844
 30
0.0
 11
19844.0168457
 21
4570.13964844
 31
0.0
  0
LINE
  8
0
 62
0
 10
19894.0168457
 20
4570.13964844
 30
0.0
 11
19894.0168457
 21
4420.13916015
 31
0.0
  0
LINE
  8
0
 62
0
 10
19894.0168457
 20
4420.13916015
 30
0.0
 11
19844.0168457
 21
4420.13916015
 31
0.0
  0
LINE
  8
0
 62
0
 10
19844.0168457
 20
4420.13916015
 30
0.0
 11
19844.0168457
 21
4570.13964844
 31
0.0
  0
LINE
  8
0
 62
0
 10
19594.0088501
 20
2520.14447021
 30
0.0
 11
19594.0088501
 21
2570.14447021
 31
0.0
  0
LINE
  8
0
 62
0
 10
19744.0088501
 20
2520.14447021
 30
0.0
 11
19594.0088501
 21
2520.14447021
 31
0.0
  0
LINE
  8
0
 62
0
 10
19594.0088501
 20
2570.14447021
 30
0.0
 11
19744.0088501
 21
2570.14447021
 31
0.0
  0
LINE
  8
0
 62
0
 10
19744.0088501
 20
2570.14447021
 30
0.0
 11
19744.0088501
 21
2520.14447021
 31
0.0
  0
LINE
  8
0
 62
0
 10
19594.0088501
 20
3470.14477539
 30
0.0
 11
19594.0088501
 21
3520.14477539
 31
0.0
  0
LINE
  8
0
 62
0
 10
19744.0088501
 20
3520.14477539
 30
0.0
 11
19594.0088501
 21
3520.14477539
 31
0.0
  0
LINE
  8
0
 62
0
 10
19744.0088501
 20
3520.14477539
 30
0.0
 11
19744.0088501
 21
3470.14477539
 31
0.0
  0
LINE
  8
0
 62
0
 10
19744.0088501
 20
3470.14477539
 30
0.0
 11
19594.0088501
 21
3470.14477539
 31
0.0
  0
LINE
  8
0
 62
0
 10
19844.0005493
 20
-2081.41015625
 30
0.0
 11
19894.0005493
 21
-2081.41015625
 31
0.0
  0
LINE
  8
0
 62
0
 10
19844.0005493
 20
-2231.41015625
 30
0.0
 11
19844.0005493
 21
-2081.41015625
 31
0.0
  0
LINE
  8
0
 62
0
 10
19894.0005493
 20
-2081.41015625
 30
0.0
 11
19894.0005493
 21
-2231.41015625
 31
0.0
  0
LINE
  8
0
 62
0
 10
19894.0005493
 20
-2231.41015625
 30
0.0
 11
19844.0005493
 21
-2231.41015625
 31
0.0
  0
LINE
  8
0
 62
0
 10
20794.0008545
 20
-2081.41015625
 30
0.0
 11
20844.0008545
 21
-2081.41015625
 31
0.0
  0
LINE
  8
0
 62
0
 10
20844.0008545
 20
-2231.41015625
 30
0.0
 11
20844.0008545
 21
-2081.41015625
 31
0.0
  0
LINE
  8
0
 62
0
 10
20844.0008545
 20
-2231.41015625
 30
0.0
 11
20794.0008545
 21
-2231.41015625
 31
0.0
  0
LINE
  8
0
 62
0
 10
20794.0008545
 20
-2231.41015625
 30
0.0
 11
20794.0008545
 21
-2081.41015625
 31
0.0
  0
LINE
  8
0
 62
0
 10
19594.0109863
 20
-3190.70849609
 30
0.0
 11
19594.0109863
 21
-3140.70849609
 31
0.0
  0
LINE
  8
0
 62
0
 10
19744.0109863
 20
-3140.70849609
 30
0.0
 11
19594.0109863
 21
-3140.70849609
 31
0.0
  0
LINE
  8
0
 62
0
 10
19744.0109863
 20
-3140.70849609
 30
0.0
 11
19744.0109863
 21
-3190.70849609
 31
0.0
  0
LINE
  8
0
 62
0
 10
19744.0109863
 20
-3190.70849609
 30
0.0
 11
19594.0109863
 21
-3190.70849609
 31
0.0
  0
LINE
  8
0
 62
0
 10
19594.0109863
 20
-4940.70800781
 30
0.0
 11
19594.0109863
 21
-4890.70800781
 31
0.0
  0
LINE
  8
0
 62
0
 10
19594.0109863
 20
-4890.70800781
 30
0.0
 11
19744.0109863
 21
-4890.70800781
 31
0.0
  0
LINE
  8
0
 62
0
 10
19744.0109863
 20
-4890.70800781
 30
0.0
 11
19744.0109863
 21
-4940.70800781
 31
0.0
  0
LINE
  8
0
 62
0
 10
19744.0109863
 20
-4940.70800781
 30
0.0
 11
19594.0109863
 21
-4940.70800781
 31
0.0
  0
LINE
  8
0
 62
0
 10
19444.005708
 20
6370.14501953
 30
0.0
 11
19444.00675
 21
5570.14501953
 31
0.0
  0
LINE
  8
0
 62
0
 10
19444.005708
 20
6370.14501953
 30
0.0
 11
19394.005703
 21
6370.14453125
 31
0.0
  0
LINE
  8
0
 62
0
 10
19444.00675
 20
5570.14501953
 30
0.0
 11
19394.0067444
 21
5570.14453125
 31
0.0
  0
LINE
  8
0
 62
0
 10
19394.0067444
 20
5570.14453125
 30
0.0
 11
19394.005703
 21
6370.14453125
 31
0.0
  0
LINE
  8
0
 62
0
 10
19894.0168457
 20
4570.13916016
 30
0.0
 11
19894.0159607
 21
5270.13916016
 31
0.0
  0
LINE
  8
0
 62
0
 10
19894.0159607
 20
5270.13916016
 30
0.0
 11
19944.0159607
 21
5270.13964844
 31
0.0
  0
LINE
  8
0
 62
0
 10
19944.0168762
 20
4570.13964844
 30
0.0
 11
19944.0159607
 21
5270.13964844
 31
0.0
  0
LINE
  8
0
 62
0
 10
19894.0168457
 20
4570.13916016
 30
0.0
 11
19944.0168762
 21
4570.13964844
 31
0.0
  0
LINE
  8
0
 62
0
 10
19594.0088501
 20
2570.14453125
 30
0.0
 11
18694.0089111
 21
2570.14331055
 31
0.0
  0
LINE
  8
0
 62
0
 10
18694.0088501
 20
2620.14331055
 30
0.0
 11
18694.0089111
 21
2570.14331055
 31
0.0
  0
LINE
  8
0
 62
0
 10
18694.0088501
 20
2620.14331055
 30
0.0
 11
19594.0087891
 21
2620.14453125
 31
0.0
  0
LINE
  8
0
 62
0
 10
19594.0088501
 20
2570.14453125
 30
0.0
 11
19594.0087891
 21
2620.14453125
 31
0.0
  0
LINE
  8
0
 62
0
 10
19894.0016174
 20
-3131.41137695
 30
0.0
 11
19894.0010376
 21
-2231.41137695
 31
0.0
  0
LINE
  8
0
 62
0
 10
19944.0016174
 20
-3131.41113281
 30
0.0
 11
19894.0016174
 21
-3131.41137695
 31
0.0
  0
LINE
  8
0
 62
0
 10
19894.0010376
 20
-2231.41137695
 30
0.0
 11
19944.0010376
 21
-2231.41137695
 31
0.0
  0
LINE
  8
0
 62
0
 10
19944.0016174
 20
-3131.41113281
 30
0.0
 11
19944.0010376
 21
-2231.41137695
 31
0.0
  0
LINE
  8
0
 62
0
 10
19671.3624268
 20
-4890.70800781
 30
0.0
 11
19621.3624268
 21
-4890.70800781
 31
0.0
  0
LINE
  8
0
 62
0
 10
19621.3624268
 20
-4810.70800781
 30
0.0
 11
19621.3624268
 21
-4890.70800781
 31
0.0
  0
LINE
  8
0
 62
0
 10
19621.3624268
 20
-4120.70849609
 30
0.0
 11
19621.3624268
 21
-4810.70800781
 31
0.0
  0
LINE
  8
0
 62
0
 10
19621.3624268
 20
-4040.70849609
 30
0.0
 11
19621.3624268
 21
-4120.70849609
 31
0.0
  0
LINE
  8
0
 62
0
 10
19671.3624268
 20
-4810.70800781
 30
0.0
 11
19621.3624268
 21
-4810.70800781
 31
0.0
  0
LINE
  8
0
 62
0
 10
19671.3624268
 20
-4810.70800781
 30
0.0
 11
19671.3624268
 21
-4890.70800781
 31
0.0
  0
LINE
  8
0
 62
0
 10
19671.3624268
 20
-4120.70849609
 30
0.0
 11
19671.3624268
 21
-4810.70800781
 31
0.0
  0
LINE
  8
0
 62
0
 10
19671.3624268
 20
-4040.70849609
 30
0.0
 11
19671.3624268
 21
-4120.70849609
 31
0.0
  0
LINE
  8
0
 62
0
 10
19621.3624268
 20
-4120.70849609
 30
0.0
 11
19671.3624268
 21
-4120.70849609
 31
0.0
  0
LINE
  8
0
 62
0
 10
19621.3624268
 20
-4040.70849609
 30
0.0
 11
19671.3624268
 21
-4040.70849609
 31
0.0
  0
LINE
  8
0
 62
0
 10
19721.3623657
 20
-4040.70703125
 30
0.0
 11
19671.3623657
 21
-4040.70703125
 31
0.0
  0
LINE
  8
0
 62
0
 10
19671.3623657
 20
-3960.70703125
 30
0.0
 11
19671.3623657
 21
-4040.70703125
 31
0.0
  0
LINE
  8
0
 62
0
 10
19671.3623657
 20
-3270.70751953
 30
0.0
 11
19671.3623657
 21
-3960.70703125
 31
0.0
  0
LINE
  8
0
 62
0
 10
19671.3623657
 20
-3190.70751953
 30
0.0
 11
19671.3623657
 21
-3270.70751953
 31
0.0
  0
LINE
  8
0
 62
0
 10
19721.3623657
 20
-3960.70703125
 30
0.0
 11
19671.3623657
 21
-3960.70703125
 31
0.0
  0
LINE
  8
0
 62
0
 10
19721.3623657
 20
-3960.70703125
 30
0.0
 11
19721.3623657
 21
-4040.70703125
 31
0.0
  0
LINE
  8
0
 62
0
 10
19721.3623657
 20
-3270.70751953
 30
0.0
 11
19721.3623657
 21
-3960.70703125
 31
0.0
  0
LINE
  8
0
 62
0
 10
19721.3623657
 20
-3190.70751953
 30
0.0
 11
19721.3623657
 21
-3270.70751953
 31
0.0
  0
LINE
  8
0
 62
0
 10
19671.3623657
 20
-3270.70751953
 30
0.0
 11
19721.3623657
 21
-3270.70751953
 31
0.0
  0
LINE
  8
0
 62
0
 10
19671.3623657
 20
-3190.70751953
 30
0.0
 11
19721.3623657
 21
-3190.70751953
 31
0.0
  0
LINE
  8
0
 62
0
 10
19706.362915
 20
-3270.70843065
 30
0.0
 11
19706.3629761
 21
-3960.70379198
 31
0.0
  0
LINE
  8
0
 62
0
 10
19686.3629608
 20
-3960.70379198
 30
0.0
 11
19706.3629761
 21
-3960.70379198
 31
0.0
  0
LINE
  8
0
 62
0
 10
19686.3629303
 20
-3270.70843065
 30
0.0
 11
19686.3629608
 21
-3960.70379198
 31
0.0
  0
LINE
  8
0
 62
0
 10
19706.362915
 20
-3270.70843065
 30
0.0
 11
19686.3629303
 21
-3270.70843065
 31
0.0
  0
LINE
  8
0
 62
0
 10
19656.3553619
 20
-4120.70556641
 30
0.0
 11
19656.3553925
 21
-4810.70836521
 31
0.0
  0
LINE
  8
0
 62
0
 10
19636.3553925
 20
-4810.70836521
 30
0.0
 11
19656.3553925
 21
-4810.70836521
 31
0.0
  0
LINE
  8
0
 62
0
 10
19636.3553619
 20
-4120.70556641
 30
0.0
 11
19636.3553925
 21
-4810.70836521
 31
0.0
  0
LINE
  8
0
 62
0
 10
19656.3553619
 20
-4120.70556641
 30
0.0
 11
19636.3553619
 21
-4120.70556641
 31
0.0
  0
LINE
  8
0
 62
0
 10
18803.0190475
 20
-2031.41894531
 30
0.0
 11
18803.0190475
 21
-1981.41894531
 31
0.0
  0
LINE
  8
0
 62
0
 10
19594.0072026
 20
-2031.41894531
 30
0.0
 11
18803.0190475
 21
-2031.41894531
 31
0.0
  0
LINE
  8
0
 62
0
 10
19594.007203
 20
-1981.41894531
 30
0.0
 11
18803.0190475
 21
-1981.41894531
 31
0.0
  0
LINE
  8
0
 62
0
 10
19573.7960709
 20
-2031.41894531
 30
0.0
 11
18883.0191696
 21
-2031.41894531
 31
0.0
  0
LINE
  8
0
 62
0
 10
18803.0195669
 20
-329.851054191
 30
0.0
 11
18803.0195669
 21
-279.851054191
 31
0.0
  0
LINE
  8
0
 62
0
 10
19594.0072166
 20
-329.851054191
 30
0.0
 11
18803.0195669
 21
-329.851054191
 31
0.0
  0
LINE
  8
0
 62
0
 10
19594.007217
 20
-279.851054191
 30
0.0
 11
18803.0195669
 21
-279.851054191
 31
0.0
  0
LINE
  8
0
 62
0
 10
19573.7965902
 20
-329.851054191
 30
0.0
 11
18883.019689
 21
-329.851054191
 31
0.0
  0
LINE
  8
0
 62
0
 10
20544.0107422
 20
8000.0
 30
0.0
 11
19744.0107422
 21
8000.0
 31
0.0
  0
LINE
  8
0
 62
0
 10
20544.0107422
 20
8000.0
 30
0.0
 11
20544.0107422
 21
7850.0
 31
0.0
  0
LINE
  8
0
 62
0
 10
19744.0107422
 20
8000.0
 30
0.0
 11
19744.0107422
 21
7850.0
 31
0.0
  0
LINE
  8
0
 62
0
 10
20544.0107422
 20
7850.0
 30
0.0
 11
19744.0107422
 21
7850.0
 31
0.0
  0
LINE
  8
0
 62
0
 10
16444.0073242
 20
-6000.00292969
 30
0.0
 11
16444.0073242
 21
-7999.99902344
 31
0.0
  0
LINE
  8
0
 62
0
 10
16444.0073242
 20
-7999.99902344
 30
0.0
 11
16594.0075684
 21
-7999.99902344
 31
0.0
  0
LINE
  8
0
 62
0
 10
16594.0075684
 20
-6000.00292969
 30
0.0
 11
16444.0073242
 21
-6000.00292969
 31
0.0
  0
LINE
  8
0
 62
0
 10
16594.0075684
 20
-6000.00292969
 30
0.0
 11
16594.0075684
 21
-7999.99902344
 31
0.0
  0
LINE
  8
0
 62
0
 10
22444.0078125
 20
-6000.0
 30
0.0
 11
22444.0078125
 21
-8000.00097656
 31
0.0
  0
LINE
  8
0
 62
0
 10
22444.0078125
 20
-8000.00097656
 30
0.0
 11
22294.0078125
 21
-8000.00097656
 31
0.0
  0
LINE
  8
0
 62
0
 10
22294.0078125
 20
-8000.00097656
 30
0.0
 11
22294.0078125
 21
-6000.0
 31
0.0
  0
LINE
  8
0
 62
0
 10
22444.0078125
 20
-6000.0
 30
0.0
 11
22294.0078125
 21
-6000.0
 31
0.0
  0
LINE
  8
0
 62
0
 10
22444.0078125
 20
2420.13745117
 30
0.0
 11
22444.0078125
 21
-2081.41040039
 31
0.0
  0
LINE
  8
0
 62
0
 10
22444.0078125
 20
-2081.41040039
 30
0.0
 11
22294.0078125
 21
-2081.41040039
 31
0.0
  0
LINE
  8
0
 62
0
 10
22294.0078125
 20
-2081.41040039
 30
0.0
 11
22294.0078125
 21
2420.13745117
 31
0.0
  0
LINE
  8
0
 62
0
 10
22444.0078125
 20
2420.13745117
 30
0.0
 11
22294.0078125
 21
2420.13745117
 31
0.0
  0
LINE
  8
0
 62
0
 10
20544.0107422
 20
8000.0
 30
0.0
 11
22444.0078125
 21
8000.0
 31
0.0
  0
LINE
  8
0
 62
0
 10
22444.0078125
 20
8000.0
 30
0.0
 11
22444.0078125
 21
4570.13769531
 31
0.0
  0
LINE
  8
0
 62
0
 10
20544.0107422
 20
7850.0
 30
0.0
 11
22294.0078125
 21
7850.0
 31
0.0
  0
LINE
  8
0
 62
0
 10
22294.0078125
 20
7850.0
 30
0.0
 11
22294.0078125
 21
6070.14013672
 31
0.0
  0
LINE
  8
0
 62
0
 10
22294.0078125
 20
4570.13867188
 30
0.0
 11
22294.0078125
 21
4570.13769531
 31
0.0
  0
LINE
  8
0
 62
0
 10
16444.0078125
 20
8000.0
 30
0.0
 11
16444.0078125
 21
2420.13696289
 31
0.0
  0
LINE
  8
0
 62
0
 10
16444.0078125
 20
8000.0
 30
0.0
 11
19744.0107422
 21
8000.0
 31
0.0
  0
LINE
  8
0
 62
0
 10
19744.0107422
 20
8000.0
 30
0.0
 11
19744.0107422
 21
7850.0
 31
0.0
  0
LINE
  8
0
 62
0
 10
19744.0107422
 20
7850.0
 30
0.0
 11
16594.0078125
 21
7850.0
 31
0.0
  0
LINE
  8
0
 62
0
 10
16594.0078125
 20
7850.0
 30
0.0
 11
16594.0078125
 21
2420.13696289
 31
0.0
  0
LINE
  8
0
 62
0
 10
16444.0078125
 20
2420.13696289
 30
0.0
 11
16594.0078125
 21
2420.13696289
 31
0.0
  0
LINE
  8
0
 62
0
 10
19744.0107422
 20
7850.0
 30
0.0
 11
19744.0080352
 21
7850.0
 31
0.0
  0
LINE
  8
0
 62
0
 10
22294.0026855
 20
434.161440871
 30
0.0
 11
21094.0056152
 21
434.161440871
 31
0.0
  0
ENDBLK
  0
ENDSEC
  0
SECTION
  2
ENTITIES
  0
INSERT
  2
SHAPE2DVIEW001
  8
0
 62
0
 10
0.0
 20
0.0
 30
0.0
  0
INSERT
  2
SHAPE2DVIEW002
  8
0
 62
0
 10
0.0
 20
0.0
 30
0.0
  0
INSERT
  2
SHAPE2DVIEW003
  8
0
 62
0
 10
0.0
 20
0.0
 30
0.0
  0
ENDSEC
  0
EOF
