# Blender v2.78 (sub 0) OBJ File: 'model 01.blend'
# www.blender.org
mtllib object exports.mtl
o Plane.1480_Plane.2360
v -11.073364 7999.998047 6299.500000
v -11.073486 2420.137451 6299.500000
v -2629.512695 7999.998047 6535.083984
v -2255.450195 7999.998047 6501.429199
v -1881.387329 7999.998047 6467.774414
v -1507.324463 7999.998047 6434.119141
v -1133.261719 7999.998047 6400.464355
v -759.198975 7999.998047 6366.809570
v -385.136230 7999.998047 6333.154785
v -2629.513672 2420.137451 6535.083984
v -2255.450928 2420.137451 6501.429199
v -1881.387939 2420.137451 6467.774414
v -1507.325073 2420.137451 6434.119629
v -1133.262207 2420.137451 6400.464844
v -759.199280 2420.137451 6366.809570
v -385.136475 2420.137451 6333.154785
v -16.449463 7999.998047 6239.741699
v -16.449585 2420.137451 6239.741699
v -2634.888916 7999.998047 6475.325684
v -2260.826172 7999.998047 6441.670898
v -1886.763428 7999.998047 6408.016113
v -1512.700684 7999.998047 6374.361328
v -1138.637817 7999.998047 6340.706543
v -764.575073 7999.998047 6307.051758
v -390.512329 7999.998047 6273.396484
v -2634.889893 2420.137451 6475.325684
v -2260.826904 2420.137451 6441.670898
v -1886.764038 2420.137451 6408.016113
v -1512.701172 2420.137451 6374.361328
v -1138.638306 2420.137451 6340.706543
v -764.575378 2420.137451 6307.051758
v -390.512573 2420.137451 6273.396484
v -90.751587 7999.998047 6306.668457
v -90.751709 2420.137451 6306.668457
v -2709.190918 7999.998047 6542.251953
v -2335.128418 7999.998047 6508.597168
v -1961.065552 7999.998047 6474.942383
v -1587.002686 7999.998047 6441.287598
v -1212.939941 7999.998047 6407.632812
v -838.877197 7999.998047 6373.978027
v -464.814453 7999.998047 6340.323242
v -2709.191895 2420.137451 6542.251953
v -2335.129150 2420.137451 6508.597168
v -1961.066162 2420.137451 6474.942383
v -1587.003296 2420.137451 6441.287598
v -1212.940430 2420.137451 6407.632812
v -838.877502 2420.137451 6373.978027
v -464.814697 2420.137451 6340.323242
v -96.127686 7999.998047 6246.910156
v -96.127808 2420.137451 6246.910156
v -2714.567139 7999.998047 6482.494141
v -2340.504395 7999.998047 6448.838867
v -1966.441650 7999.998047 6415.184082
v -1592.378784 7999.998047 6381.529297
v -1218.316040 7999.998047 6347.874512
v -844.253296 7999.998047 6314.219727
v -470.190552 7999.998047 6280.564941
v -2714.568115 2420.137451 6482.494141
v -2340.505127 2420.137451 6448.839355
v -1966.442383 2420.137451 6415.184082
v -1592.379395 2420.137451 6381.529297
v -1218.316406 2420.137451 6347.874512
v -844.253601 2420.137451 6314.219727
v -470.190796 2420.137451 6280.564941
vn 0.9960 -0.0000 -0.0896
vn -0.9960 0.0000 0.0896
vn 0.0896 -0.0000 0.9960
vn -0.0896 0.0000 -0.9960
vn 0.0000 1.0000 -0.0000
vn 0.0000 -1.0000 0.0000
usemtl None
s off
f 2//1 18//1 17//1 1//1
f 6//1 13//1 29//1 22//1
f 9//1 16//1 32//1 25//1
f 5//1 12//1 28//1 21//1
f 8//1 15//1 31//1 24//1
f 4//1 11//1 27//1 20//1
f 7//1 14//1 30//1 23//1
f 3//1 10//1 26//1 19//1
f 34//2 33//2 49//2 50//2
f 38//2 54//2 61//2 45//2
f 41//2 57//2 64//2 48//2
f 37//2 53//2 60//2 44//2
f 40//2 56//2 63//2 47//2
f 36//2 52//2 59//2 43//2
f 39//2 55//2 62//2 46//2
f 35//2 51//2 58//2 42//2
f 2//3 1//3 33//3 34//3
f 16//3 9//3 41//3 48//3
f 15//3 8//3 40//3 47//3
f 14//3 7//3 39//3 46//3
f 13//3 6//3 38//3 45//3
f 12//3 5//3 37//3 44//3
f 11//3 4//3 36//3 43//3
f 10//3 3//3 35//3 42//3
f 17//4 18//4 50//4 49//4
f 25//4 32//4 64//4 57//4
f 24//4 31//4 63//4 56//4
f 23//4 30//4 62//4 55//4
f 22//4 29//4 61//4 54//4
f 21//4 28//4 60//4 53//4
f 20//4 27//4 59//4 52//4
f 19//4 26//4 58//4 51//4
f 1//5 17//5 49//5 33//5
f 18//6 2//6 34//6 50//6
f 29//6 13//6 45//6 61//6
f 6//5 22//5 54//5 38//5
f 32//6 16//6 48//6 64//6
f 9//5 25//5 57//5 41//5
f 28//6 12//6 44//6 60//6
f 5//5 21//5 53//5 37//5
f 31//6 15//6 47//6 63//6
f 8//5 24//5 56//5 40//5
f 27//6 11//6 43//6 59//6
f 4//5 20//5 52//5 36//5
f 30//6 14//6 46//6 62//6
f 7//5 23//5 55//5 39//5
f 26//6 10//6 42//6 58//6
f 3//5 19//5 51//5 35//5
